<svg width="103" height="176" viewBox="0 0 103 176" fill="none" xmlns="http://www.w3.org/2000/svg">
<path opacity="0.75" d="M48.4039 175.466C75.1366 175.466 96.8078 167.699 96.8078 158.118C96.8078 148.537 75.1366 140.77 48.4039 140.77C21.6712 140.77 0 148.537 0 158.118C0 167.699 21.6712 175.466 48.4039 175.466Z" fill="#808080"/>
<path d="M76.7908 143.379C73.9593 137.532 62.1123 133.145 47.9225 133.145C33.5495 133.145 21.5822 137.646 18.951 143.606C18.598 144.405 18.407 145.23 18.407 146.075C18.407 146.246 18.4215 146.416 18.4366 146.585C18.5587 145.314 19.1648 144.094 20.1936 142.955C24.3278 138.377 35.1824 135.11 47.923 135.11C60.3955 135.11 71.0532 138.243 75.3751 142.67C76.5663 143.89 77.2766 145.207 77.409 146.585C77.424 146.416 77.4385 146.246 77.4385 146.075C77.4381 145.15 77.2121 144.248 76.7908 143.379Z" fill="#A1A1A1"/>
<path d="M48.0796 129.137C27.3072 129.137 10.4678 136.703 10.4678 146.036C10.4678 155.369 27.3072 162.936 48.0796 162.936C68.8521 162.936 85.6915 155.369 85.6915 146.036C85.6915 136.703 68.8521 129.137 48.0796 129.137ZM77.4085 146.586C76.7957 153.49 63.8325 159.006 47.9225 159.006C32.0126 159.006 19.0494 153.49 18.4366 146.586C18.4216 146.416 18.407 146.247 18.407 146.076C18.407 145.231 18.598 144.406 18.951 143.607C21.5822 137.647 33.55 133.145 47.9225 133.145C62.1123 133.145 73.9594 137.533 76.7908 143.379C77.2121 144.249 77.4381 145.15 77.4381 146.076C77.4381 146.247 77.4235 146.416 77.4085 146.586Z" fill="white"/>
<path d="M75.3745 142.67C71.0527 138.244 60.395 135.11 47.9225 135.11C35.1824 135.11 24.3278 138.378 20.1931 142.956C19.1643 144.094 18.5582 145.315 18.436 146.586C19.0489 153.49 32.012 159.006 47.922 159.006C63.832 159.006 76.7951 153.49 77.408 146.586C77.2761 145.208 76.5658 143.89 75.3745 142.67Z" fill="#DEDEDE"/>
<path d="M51.4065 137.973H56.0585L57.4349 136.779H40.9305L38.9582 137.973H42.8137C47.8744 137.973 48.7675 139.377 48.7675 139.377H40.3347L38.1781 140.771H49.31C49.3745 143.809 41.1099 143.683 41.1099 143.683H38.4748L38.0259 145.469L50.5997 156.19H56.4522L56.3615 155.591L43.0784 144.981C52.9584 144.981 53.2042 140.77 53.2042 140.77H56.6742L58.1355 139.377H52.8687C52.6506 138.441 51.4065 137.973 51.4065 137.973Z" fill="white"/>
<path d="M38.857 140.77H38.1772V141.208H39.1101H49.251C49.2888 141.069 49.3125 140.924 49.3091 140.77H38.857Z" fill="#A1A1A1"/>
<path d="M42.813 137.973H39.6828H38.958V138.411H40.7999H42.8134C45.9901 138.411 47.5232 138.964 48.2257 139.376H48.7673C48.7673 139.376 47.8742 137.973 42.813 137.973Z" fill="#A1A1A1"/>
<path d="M51.4067 137.972C51.4067 137.972 51.7956 138.118 52.1767 138.411H56.0588L57.4352 137.217V136.777L56.0588 137.971H51.4067V137.972Z" fill="#A1A1A1"/>
<path d="M57.6739 139.814L56.6732 140.768H53.2033C53.2033 140.768 52.9574 144.979 43.0774 144.979L43.618 145.411C52.9604 145.259 53.2033 141.208 53.2033 141.208H56.6732L58.1345 139.814V139.375L57.6739 139.814Z" fill="#A1A1A1"/>
<path d="M50.5985 156.189L38.1158 145.544L38.0251 145.467V145.906L50.5985 156.627H56.451V156.189H56.3845H50.5985Z" fill="#A1A1A1"/>
<path d="M10.4683 146.035V154.289C10.4683 158.356 14.6001 161.681 21.2894 164.732V157.893C14.6001 154.842 10.4683 150.656 10.4683 146.035Z" fill="#B3B3B3"/>
<path d="M32.3477 161.386V168.224C36.7025 169.127 41.5043 169.667 46.5656 169.757V162.918C41.5043 162.828 36.703 162.289 32.3477 161.386Z" fill="#ADADAD"/>
<path d="M21.2893 157.894V164.732C24.4563 166.177 28.1987 167.364 32.348 168.224V161.385C28.1983 160.525 24.4563 159.338 21.2893 157.894Z" fill="#9C9C9C"/>
<path d="M49.5938 162.918V169.757C54.6555 169.667 59.4568 169.127 63.8117 168.224V161.386C59.4568 162.289 54.6555 162.828 49.5938 162.918Z" fill="#ADADAD"/>
<path d="M74.8706 157.894V164.732C81.5599 161.681 85.6917 158.356 85.6917 154.29V146.036C85.6917 150.657 81.5599 154.843 74.8706 157.894Z" fill="#B3B3B3"/>
<path d="M48.0796 162.936C47.572 162.936 47.0687 162.928 46.5654 162.919V169.758C47.0682 169.766 47.5715 169.775 48.0796 169.775C48.5872 169.775 49.0905 169.767 49.5937 169.758V162.919C49.091 162.928 48.5877 162.936 48.0796 162.936Z" fill="#9C9C9C"/>
<path d="M63.8115 161.385V168.224C67.9608 167.364 71.7028 166.177 74.8702 164.732V157.894C71.7032 159.338 67.9608 160.525 63.8115 161.385Z" fill="#9C9C9C"/>
<path d="M78.9541 134.942C76.1227 129.095 64.2756 124.708 50.0858 124.708C35.7128 124.708 23.7455 129.21 21.1143 135.169C20.7613 135.969 20.5703 136.794 20.5703 137.638C20.5703 137.809 20.5849 137.979 20.5999 138.149C20.7221 136.878 21.3281 135.657 22.3569 134.518C26.4912 129.94 37.3457 126.673 50.0863 126.673C62.5588 126.673 73.217 129.807 77.5384 134.233C78.7296 135.453 79.4399 136.771 79.5723 138.149C79.5873 137.979 79.6019 137.809 79.6019 137.638C79.6014 136.714 79.3755 135.812 78.9541 134.942Z" fill="#A1A1A1"/>
<path d="M50.243 120.699C29.4705 120.699 12.6311 128.266 12.6311 137.599C12.6311 146.932 29.4705 154.498 50.243 154.498C71.0154 154.498 87.8548 146.932 87.8548 137.599C87.8548 128.265 71.0154 120.699 50.243 120.699ZM79.5718 138.149C78.959 145.053 65.9959 150.568 50.0859 150.568C34.1759 150.568 21.2128 145.053 20.5999 138.149C20.5849 137.979 20.5703 137.809 20.5703 137.638C20.5703 136.793 20.7614 135.969 21.1143 135.169C23.7455 129.21 35.7133 124.708 50.0859 124.708C64.2757 124.708 76.1227 129.095 78.9541 134.942C79.3755 135.812 79.6014 136.713 79.6014 137.638C79.6014 137.809 79.5869 137.979 79.5718 138.149Z" fill="white"/>
<path d="M77.5379 134.234C73.216 129.807 62.5583 126.674 50.0858 126.674C37.3457 126.674 26.4911 129.942 22.3564 134.519C21.3276 135.658 20.7215 136.879 20.5994 138.149C21.2122 145.054 34.1753 150.569 50.0853 150.569C65.9953 150.569 78.9584 145.054 79.5713 138.149C79.4394 136.771 78.7291 135.454 77.5379 134.234Z" fill="#DEDEDE"/>
<path d="M53.57 129.535H58.2216L59.598 128.341H43.0936L41.1213 129.535H44.9763C50.0375 129.535 50.9301 130.939 50.9301 130.939H42.4973L40.3407 132.332H51.4726C51.5371 135.371 43.2725 135.245 43.2725 135.245H40.6374L40.1885 137.031L52.7623 147.752H58.6148L58.5241 147.152L45.241 136.542C55.121 136.542 55.3668 132.332 55.3668 132.332H58.8368L60.2981 130.938H55.0313C54.8141 130.003 53.57 129.535 53.57 129.535Z" fill="white"/>
<path d="M41.0198 132.331H40.3401V132.77H41.2729H51.4138C51.4516 132.631 51.4754 132.486 51.472 132.331H41.0198Z" fill="#A1A1A1"/>
<path d="M44.976 129.534H41.8459H41.1206V129.973H42.9625H44.9756C48.1522 129.973 49.6853 130.526 50.3878 130.938H50.9294C50.9294 130.938 50.0373 129.534 44.976 129.534Z" fill="#A1A1A1"/>
<path d="M53.5698 129.534C53.5698 129.534 53.9587 129.68 54.3397 129.973H58.2218L59.5983 128.779V128.34L58.2218 129.534H53.5698V129.534Z" fill="#A1A1A1"/>
<path d="M59.8373 131.377L58.8361 132.331H55.3661C55.3661 132.331 55.1203 136.542 45.2402 136.542L45.7808 136.974C55.1232 136.822 55.3661 132.771 55.3661 132.771H58.8361L60.2974 131.377V130.938L59.8373 131.377Z" fill="#A1A1A1"/>
<path d="M52.7618 147.751L40.2791 137.107L40.188 137.029V137.469L52.7618 148.19H58.6143V147.751H58.5479H52.7618Z" fill="#A1A1A1"/>
<path d="M12.6316 137.598V145.851C12.6316 149.918 16.7634 153.243 23.4527 156.294V149.455C16.7634 146.405 12.6316 142.219 12.6316 137.598Z" fill="#B3B3B3"/>
<path d="M34.511 152.947V159.786C38.8658 160.689 43.6676 161.228 48.7294 161.319V154.48C43.6676 154.39 38.8663 153.85 34.511 152.947Z" fill="#ADADAD"/>
<path d="M23.4526 149.456V156.295C26.6196 157.739 30.3621 158.926 34.5113 159.787V152.948C30.3616 152.088 26.6196 150.9 23.4526 149.456Z" fill="#9C9C9C"/>
<path d="M51.7571 154.48V161.319C56.8188 161.228 61.6201 160.689 65.975 159.786V152.947C61.6201 153.85 56.8183 154.39 51.7571 154.48Z" fill="#ADADAD"/>
<path d="M77.0339 149.456V156.294C83.7233 153.243 87.8551 149.918 87.8551 145.852V137.598C87.8551 142.219 83.7233 146.405 77.0339 149.456Z" fill="#B3B3B3"/>
<path d="M50.2429 154.497C49.7353 154.497 49.232 154.489 48.7288 154.48V161.319C49.2315 161.328 49.7348 161.337 50.2429 161.337C50.751 161.337 51.2538 161.328 51.7571 161.319V154.48C51.2543 154.489 50.751 154.497 50.2429 154.497Z" fill="#9C9C9C"/>
<path d="M65.9749 152.948V159.787C70.1241 158.926 73.8661 157.739 77.0336 156.295V149.456C73.8666 150.9 70.1241 152.088 65.9749 152.948Z" fill="#9C9C9C"/>
<path d="M76.7908 125.39C73.9593 119.544 62.1123 115.156 47.9225 115.156C33.5495 115.156 21.5822 119.658 18.951 125.618C18.598 126.417 18.407 127.242 18.407 128.086C18.407 128.258 18.4215 128.427 18.4366 128.597C18.5587 127.326 19.1648 126.105 20.1936 124.966C24.3278 120.389 35.1824 117.121 47.923 117.121C60.3955 117.121 71.0532 120.254 75.3751 124.681C76.5663 125.901 77.2766 127.219 77.409 128.597C77.424 128.427 77.4385 128.258 77.4385 128.086C77.4381 127.162 77.2121 126.26 76.7908 125.39Z" fill="#A1A1A1"/>
<path d="M48.0796 111.148C27.3072 111.148 10.4678 118.715 10.4678 128.048C10.4678 137.382 27.3072 144.948 48.0796 144.948C68.8521 144.948 85.6915 137.381 85.6915 128.048C85.6915 118.714 68.8521 111.148 48.0796 111.148ZM77.4085 128.598C76.7957 135.502 63.8325 141.017 47.9225 141.017C32.0126 141.017 19.0494 135.502 18.4366 128.598C18.4216 128.428 18.407 128.258 18.407 128.087C18.407 127.243 18.598 126.418 18.951 125.618C21.5822 119.659 33.55 115.157 47.9225 115.157C62.1123 115.157 73.9594 119.544 76.7908 125.391C77.2121 126.261 77.4381 127.162 77.4381 128.087C77.4381 128.258 77.4235 128.429 77.4085 128.598Z" fill="white"/>
<path d="M75.3745 124.682C71.0527 120.256 60.395 117.122 47.9225 117.122C35.1824 117.122 24.3278 120.389 20.1931 124.967C19.1643 126.106 18.5582 127.327 18.436 128.598C19.0489 135.502 32.012 141.017 47.922 141.017C63.832 141.017 76.7951 135.502 77.408 128.598C77.2761 127.22 76.5658 125.902 75.3745 124.682Z" fill="#DEDEDE"/>
<path d="M51.4062 119.984H56.0582L57.4347 118.79H40.9303L38.958 119.984H42.8134C47.8742 119.984 48.7672 121.388 48.7672 121.388H40.3344L38.1779 122.781H49.3098C49.3743 125.82 41.1097 125.694 41.1097 125.694H38.4746L38.0256 127.48L50.5994 138.201H56.4519L56.3613 137.601L43.0781 126.992C52.9582 126.992 53.204 122.781 53.204 122.781H56.674L58.1353 121.387H52.8685C52.6503 120.452 51.4062 119.984 51.4062 119.984Z" fill="white"/>
<path d="M38.857 122.78H38.1772V123.22H39.1101H49.251C49.2888 123.08 49.3125 122.935 49.3091 122.78H38.857Z" fill="#A1A1A1"/>
<path d="M42.813 119.983H39.6828H38.958V120.422H40.7999H42.8134C45.9901 120.422 47.5232 120.975 48.2257 121.387H48.7673C48.7673 121.387 47.8742 119.983 42.813 119.983Z" fill="#A1A1A1"/>
<path d="M51.4067 119.984C51.4067 119.984 51.7956 120.13 52.1767 120.422H56.0588L57.4352 119.228V118.789L56.0588 119.983H51.4067V119.984Z" fill="#A1A1A1"/>
<path d="M57.6739 121.826L56.6732 122.78H53.2033C53.2033 122.78 52.9574 126.991 43.0774 126.991L43.618 127.423C52.9604 127.27 53.2033 123.219 53.2033 123.219H56.6732L58.1345 121.826V121.387L57.6739 121.826Z" fill="#A1A1A1"/>
<path d="M50.5985 138.199L38.1158 127.555L38.0251 127.478V127.917L50.5985 138.638H56.451V138.199H56.3845H50.5985Z" fill="#A1A1A1"/>
<path d="M10.4683 128.048V136.301C10.4683 140.369 14.6001 143.694 21.2894 146.744V139.906C14.6001 136.855 10.4683 132.669 10.4683 128.048Z" fill="#B3B3B3"/>
<path d="M32.3477 143.397V150.236C36.7025 151.139 41.5043 151.679 46.5656 151.769V144.93C41.5043 144.84 36.703 144.3 32.3477 143.397Z" fill="#ADADAD"/>
<path d="M21.2893 139.905V146.744C24.4563 148.188 28.1987 149.376 32.348 150.236V143.397C28.1983 142.537 24.4563 141.35 21.2893 139.905Z" fill="#9C9C9C"/>
<path d="M49.5938 144.93V151.769C54.6555 151.679 59.4568 151.139 63.8117 150.236V143.397C59.4568 144.3 54.6555 144.84 49.5938 144.93Z" fill="#ADADAD"/>
<path d="M74.8706 139.906V146.744C81.5599 143.693 85.6917 140.368 85.6917 136.301V128.048C85.6917 132.668 81.5599 136.854 74.8706 139.906Z" fill="#B3B3B3"/>
<path d="M48.0796 144.948C47.572 144.948 47.0687 144.939 46.5654 144.931V151.769C47.0682 151.778 47.5715 151.787 48.0796 151.787C48.5872 151.787 49.0905 151.779 49.5937 151.769V144.931C49.091 144.939 48.5877 144.948 48.0796 144.948Z" fill="#9C9C9C"/>
<path d="M63.8115 143.397V150.236C67.9608 149.376 71.7028 148.188 74.8702 146.744V139.905C71.7032 141.35 67.9608 142.537 63.8115 143.397Z" fill="#9C9C9C"/>
<path d="M71.106 117.616C68.2745 111.769 56.4275 107.382 42.2377 107.382C27.8647 107.382 15.8974 111.884 13.2662 117.843C12.9132 118.643 12.7222 119.467 12.7222 120.312C12.7222 120.483 12.7367 120.653 12.7517 120.823C12.8739 119.552 13.48 118.331 14.5088 117.192C18.643 112.614 29.4976 109.347 42.2382 109.347C54.7107 109.347 65.3689 112.48 69.6903 116.907C70.8815 118.127 71.5918 119.444 71.7241 120.823C71.7392 120.653 71.7537 120.483 71.7537 120.312C71.7527 119.387 71.5273 118.486 71.106 117.616Z" fill="#A1A1A1"/>
<path d="M42.3948 103.373C21.6224 103.373 4.78296 110.939 4.78296 120.273C4.78296 129.606 21.6224 137.172 42.3948 137.172C63.1672 137.172 80.0067 129.606 80.0067 120.273C80.0062 110.939 63.1672 103.373 42.3948 103.373ZM71.7237 120.823C71.1109 127.727 58.1477 133.243 42.2377 133.243C26.3277 133.243 13.3646 127.727 12.7518 120.823C12.7367 120.653 12.7222 120.483 12.7222 120.312C12.7222 119.468 12.9132 118.643 13.2662 117.844C15.8974 111.884 27.8652 107.382 42.2377 107.382C56.4275 107.382 68.2745 111.769 71.106 117.616C71.5273 118.486 71.7533 119.387 71.7533 120.312C71.7528 120.483 71.7387 120.653 71.7237 120.823Z" fill="white"/>
<path d="M69.6895 116.909C65.3676 112.482 54.7099 109.349 42.2374 109.349C29.4973 109.349 18.6427 112.616 14.508 117.194C13.4792 118.333 12.8732 119.554 12.751 120.824C13.3638 127.728 26.3269 133.244 42.2369 133.244C58.1469 133.244 71.1101 127.728 71.7229 120.824C71.591 119.446 70.8802 118.129 69.6895 116.909Z" fill="#DEDEDE"/>
<path d="M45.7214 112.209H50.3729L51.7494 111.015H35.245L33.2727 112.209H37.1276C42.1884 112.209 43.0814 113.612 43.0814 113.612H34.6487L32.4921 115.006H43.624C43.6885 118.045 35.4239 117.919 35.4239 117.919H32.7888L32.3398 119.704L44.9137 130.426H50.7661L50.6755 129.826L37.3924 119.216C47.2724 119.216 47.5182 115.005 47.5182 115.005H50.9882L52.4495 113.612H47.1827C46.966 112.677 45.7214 112.209 45.7214 112.209Z" fill="white"/>
<path d="M33.1714 115.006H32.4917V115.445H33.4245H43.5654C43.6032 115.306 43.627 115.161 43.6236 115.006H33.1714Z" fill="#A1A1A1"/>
<path d="M37.1281 112.209H33.998H33.2732V112.648H35.1151H37.1281C40.3048 112.648 41.8384 113.2 42.5404 113.612H43.082C43.082 113.612 42.1889 112.209 37.1281 112.209Z" fill="#A1A1A1"/>
<path d="M45.7212 112.208C45.7212 112.208 46.11 112.355 46.4911 112.647H50.3732L51.7497 111.453V111.014L50.3732 112.208L45.7212 112.208Z" fill="#A1A1A1"/>
<path d="M51.9894 114.052L50.9887 115.006H47.5187C47.5187 115.006 47.2729 119.217 37.3928 119.217L37.9334 119.649C47.2753 119.496 47.5187 115.445 47.5187 115.445H50.9887L52.45 114.052V113.612L51.9894 114.052Z" fill="#A1A1A1"/>
<path d="M44.9137 130.425L32.4305 119.782L32.3398 119.704V120.143L44.9137 130.865H50.7661V130.425H50.6997H44.9137Z" fill="#A1A1A1"/>
<path d="M4.78296 120.272V128.526C4.78296 132.593 8.91476 135.918 15.6041 138.969V132.13C8.91476 129.08 4.78296 124.893 4.78296 120.272Z" fill="#B3B3B3"/>
<path d="M26.6626 135.622V142.461C31.0174 143.363 35.8193 143.903 40.881 143.993V137.155C35.8188 137.064 31.0174 136.524 26.6626 135.622Z" fill="#ADADAD"/>
<path d="M15.6042 132.13V138.969C18.7712 140.413 22.5137 141.6 26.6629 142.46V135.622C22.5137 134.762 18.7712 133.575 15.6042 132.13Z" fill="#9C9C9C"/>
<path d="M43.9084 137.155V143.993C48.9702 143.903 53.7715 143.363 58.1263 142.461V135.622C53.7715 136.524 48.9702 137.064 43.9084 137.155Z" fill="#ADADAD"/>
<path d="M69.1855 132.13V138.969C75.8749 135.918 80.0067 132.593 80.0067 128.526V120.272C80.0062 124.893 75.8744 129.08 69.1855 132.13Z" fill="#B3B3B3"/>
<path d="M42.3945 137.172C41.8869 137.172 41.3836 137.164 40.8804 137.155V143.994C41.3831 144.003 41.8864 144.011 42.3945 144.011C42.9021 144.011 43.4054 144.003 43.9087 143.994V137.155C43.4054 137.164 42.9021 137.172 42.3945 137.172Z" fill="#9C9C9C"/>
<path d="M58.127 135.623V142.461C62.2762 141.601 66.0182 140.414 69.1856 138.97V132.131C66.0182 133.575 62.2762 134.763 58.127 135.623Z" fill="#9C9C9C"/>
<path d="M85.18 109.149C82.3485 103.302 70.5015 98.915 56.3117 98.915C41.9386 98.915 29.9714 103.417 27.3401 109.376C26.9872 110.176 26.7966 111.001 26.7966 111.845C26.7966 112.016 26.8112 112.186 26.8262 112.356C26.9484 111.085 27.5544 109.864 28.5833 108.725C32.7175 104.147 43.5721 100.88 56.3127 100.88C68.7851 100.88 79.4434 104.013 83.7652 108.44C84.9565 109.66 85.6667 110.978 85.7991 112.356C85.8141 112.186 85.8287 112.016 85.8287 111.845C85.8272 110.921 85.6013 110.019 85.18 109.149Z" fill="#A1A1A1"/>
<path d="M56.4688 94.9062C35.6963 94.9062 18.8569 102.473 18.8569 111.806C18.8569 121.139 35.6963 128.705 56.4688 128.705C77.2412 128.705 94.0807 121.139 94.0807 111.806C94.0807 102.473 77.2412 94.9062 56.4688 94.9062ZM85.7977 112.356C85.1848 119.26 72.2217 124.775 56.3117 124.775C40.4017 124.775 27.4386 119.26 26.8257 112.356C26.8107 112.186 26.7962 112.016 26.7962 111.845C26.7962 111 26.9872 110.176 27.3397 109.376C29.9709 103.417 41.9387 98.9149 56.3112 98.9149C70.501 98.9149 82.348 103.302 85.1795 109.149C85.6008 110.019 85.8267 110.92 85.8267 111.845C85.8272 112.016 85.8127 112.186 85.7977 112.356Z" fill="white"/>
<path d="M83.7642 108.441C79.4423 104.014 68.7846 100.881 56.3116 100.881C43.5715 100.881 32.717 104.148 28.5822 108.726C27.5539 109.865 26.9474 111.086 26.8252 112.357C27.438 119.261 40.4012 124.776 56.3112 124.776C72.2211 124.776 85.1843 119.261 85.7971 112.357C85.6652 110.979 84.9549 109.661 83.7642 108.441Z" fill="#DEDEDE"/>
<path d="M59.7956 103.742H64.4472L65.8236 102.548H49.3192L47.3469 103.742H51.2023C56.2631 103.742 57.1561 105.146 57.1561 105.146H48.7229L46.5663 106.539H57.6982C57.7627 109.578 49.4981 109.452 49.4981 109.452H46.863L46.4141 111.238L58.9879 121.959H64.8404L64.7497 121.359L51.4666 110.749C61.3466 110.749 61.5924 106.539 61.5924 106.539H65.0624L66.5237 105.145H61.2569C61.0397 104.21 59.7956 103.742 59.7956 103.742Z" fill="white"/>
<path d="M47.2462 106.539H46.5664V106.978H47.4992H57.6401C57.6779 106.839 57.7017 106.694 57.6983 106.539H47.2462Z" fill="#A1A1A1"/>
<path d="M51.2026 103.743H48.0725H47.3472V104.182H49.1891H51.2026C54.3793 104.182 55.9123 104.735 56.6149 105.147H57.1564C57.1564 105.147 56.2634 103.743 51.2026 103.743Z" fill="#A1A1A1"/>
<path d="M59.7959 103.743C59.7959 103.743 60.1847 103.889 60.5658 104.182H64.4479L65.8244 102.988V102.549L64.4479 103.743H59.7959V103.743Z" fill="#A1A1A1"/>
<path d="M66.0631 105.585L65.0619 106.539H61.5919C61.5919 106.539 61.3461 110.75 51.4661 110.75L52.0067 111.182C61.3485 111.03 61.5919 106.979 61.5919 106.979H65.0619L66.5232 105.585V105.146L66.0631 105.585Z" fill="#A1A1A1"/>
<path d="M58.9874 121.959L46.5047 111.315L46.4141 111.237V111.677L58.9874 122.398H64.8399V121.959H64.7739H58.9874Z" fill="#A1A1A1"/>
<path d="M18.8574 111.807V120.06C18.8574 124.127 22.9892 127.452 29.6785 130.503V123.664C22.9892 120.614 18.8574 116.428 18.8574 111.807Z" fill="#B3B3B3"/>
<path d="M40.7368 127.157V133.996C45.0916 134.899 49.8935 135.438 54.9547 135.528V128.69C49.8935 128.6 45.0921 128.06 40.7368 127.157Z" fill="#ADADAD"/>
<path d="M29.6787 123.665V130.504C32.8457 131.948 36.5882 133.135 40.7374 133.995V127.157C36.5877 126.297 32.8457 125.109 29.6787 123.665Z" fill="#9C9C9C"/>
<path d="M57.9829 128.69V135.528C63.0446 135.438 67.846 134.899 72.2008 133.996V127.157C67.846 128.06 63.0446 128.6 57.9829 128.69Z" fill="#ADADAD"/>
<path d="M83.2593 123.665V130.504C89.9486 127.453 94.0804 124.128 94.0804 120.061V111.808C94.0804 116.428 89.9486 120.614 83.2593 123.665Z" fill="#B3B3B3"/>
<path d="M56.4687 128.707C55.9611 128.707 55.4579 128.699 54.9546 128.689V135.528C55.4574 135.537 55.9606 135.546 56.4687 135.546C56.9764 135.546 57.4796 135.537 57.9829 135.528V128.689C57.4801 128.698 56.9768 128.707 56.4687 128.707Z" fill="#9C9C9C"/>
<path d="M72.2014 127.157V133.995C76.3507 133.135 80.0926 131.948 83.2601 130.504V123.665C80.0926 125.109 76.3502 126.297 72.2014 127.157Z" fill="#9C9C9C"/>
<path d="M92.523 100.71C89.6915 94.8629 77.8445 90.4756 63.6547 90.4756C49.2817 90.4756 37.3144 94.9773 34.6832 100.937C34.3302 101.736 34.1392 102.561 34.1392 103.406C34.1392 103.577 34.1537 103.747 34.1687 103.916C34.2909 102.646 34.897 101.425 35.9258 100.286C40.06 95.708 50.9146 92.4406 63.6552 92.4406C76.1277 92.4406 86.7854 95.5737 91.1072 100.001C92.2985 101.221 93.0088 102.538 93.1411 103.916C93.1562 103.747 93.1707 103.577 93.1707 103.406C93.1702 102.481 92.9443 101.579 92.523 100.71Z" fill="#A1A1A1"/>
<path d="M63.8116 86.4668C43.0391 86.4668 26.1997 94.0332 26.1997 103.366C26.1997 112.7 43.0391 120.266 63.8116 120.266C84.584 120.266 101.423 112.699 101.423 103.366C101.423 94.0327 84.584 86.4668 63.8116 86.4668ZM93.1404 103.916C92.5276 110.82 79.5645 116.336 63.6545 116.336C47.7445 116.336 34.7814 110.82 34.1685 103.916C34.1535 103.746 34.1389 103.577 34.1389 103.406C34.1389 102.561 34.33 101.736 34.6829 100.937C37.3142 94.9772 49.2819 90.4754 63.6545 90.4754C77.8443 90.4754 89.6913 94.8628 92.5228 100.709C92.9441 101.579 93.17 102.481 93.17 103.406C93.17 103.577 93.1555 103.746 93.1404 103.916Z" fill="white"/>
<path d="M91.1067 100.001C86.7849 95.5739 76.1271 92.4404 63.6547 92.4404C50.9145 92.4404 40.06 95.7078 35.9253 100.286C34.8964 101.424 34.2904 102.645 34.1682 103.916C34.781 110.82 47.7442 116.336 63.6542 116.336C79.5642 116.336 92.5273 110.82 93.1401 103.916C93.0083 102.538 92.298 101.22 91.1067 100.001Z" fill="#DEDEDE"/>
<path d="M67.1386 95.3035H71.7907L73.1671 94.1094H56.6627L54.6904 95.3035H58.5454C63.6066 95.3035 64.4992 96.7071 64.4992 96.7071H56.0664L53.9098 98.1006H65.0417C65.1062 101.14 56.8416 101.013 56.8416 101.013H54.2065L53.7576 102.799L66.3314 113.52H72.1839L72.0932 112.921L58.8101 102.311C68.6901 102.311 68.9359 98.1001 68.9359 98.1001H72.4059L73.8672 96.7067H68.6009C68.3832 95.7719 67.1386 95.3035 67.1386 95.3035Z" fill="white"/>
<path d="M54.5889 98.1006H53.9092V98.5399H54.842H64.9829C65.0207 98.4007 65.0445 98.2557 65.0411 98.1006H54.5889Z" fill="#A1A1A1"/>
<path d="M58.5449 95.3027H55.4148H54.6895V95.742H56.5314H58.5444C61.7211 95.742 63.2546 96.2947 63.9567 96.7064H64.4982C64.4982 96.7064 63.6061 95.3027 58.5449 95.3027Z" fill="#A1A1A1"/>
<path d="M67.1384 95.3035C67.1384 95.3035 67.5273 95.4499 67.9083 95.7428H71.7905L73.1669 94.5486V94.1094L71.7905 95.3035H67.1384Z" fill="#A1A1A1"/>
<path d="M73.4061 97.1458L72.4049 98.1H68.9349C68.9349 98.1 68.6891 102.311 58.8091 102.311L59.3497 102.743C68.692 102.59 68.9349 98.5392 68.9349 98.5392H72.4049L73.8662 97.1458V96.707L73.4061 97.1458Z" fill="#A1A1A1"/>
<path d="M66.3304 113.52L53.8477 102.876L53.7571 102.799V103.238L66.3304 113.959H72.1829V113.52H72.1165H66.3304Z" fill="#A1A1A1"/>
<path d="M26.2004 103.368V111.622C26.2004 115.689 30.3322 119.014 37.0216 122.065V115.226C30.3322 112.175 26.2004 107.989 26.2004 103.368Z" fill="#B3B3B3"/>
<path d="M48.0796 118.719V125.557C52.4344 126.46 57.2363 127 62.2975 127.09V120.251C57.2363 120.161 52.4349 119.621 48.0796 118.719Z" fill="#ADADAD"/>
<path d="M37.0215 115.226V122.064C40.1885 123.509 43.9309 124.696 48.0802 125.556V118.718C43.9304 117.858 40.1885 116.67 37.0215 115.226Z" fill="#9C9C9C"/>
<path d="M65.3259 120.251V127.09C70.3876 127 75.189 126.46 79.5443 125.557V118.719C75.189 119.621 70.3876 120.161 65.3259 120.251Z" fill="#ADADAD"/>
<path d="M90.6023 115.226V122.065C97.2916 119.013 101.423 115.688 101.423 111.622V103.368C101.423 107.989 97.2916 112.175 90.6023 115.226Z" fill="#B3B3B3"/>
<path d="M63.8118 120.267C63.3041 120.267 62.8009 120.259 62.2976 120.25V127.089C62.8004 127.097 63.3037 127.106 63.8118 127.106C64.3199 127.106 64.8226 127.098 65.3259 127.089V120.25C64.8231 120.259 64.3199 120.267 63.8118 120.267Z" fill="#9C9C9C"/>
<path d="M79.5437 118.717V125.556C83.693 124.696 87.4349 123.509 90.6024 122.064V115.226C87.4354 116.67 83.6934 117.857 79.5437 118.717Z" fill="#9C9C9C"/>
<path d="M83.1314 91.1598C80.2999 85.3131 68.4529 80.9258 54.2631 80.9258C39.89 80.9258 27.9228 85.4275 25.2916 91.3871C24.9386 92.1866 24.7476 93.0114 24.7476 93.856C24.7476 94.0271 24.7621 94.1968 24.7771 94.3665C24.8993 93.0957 25.5054 91.8749 26.5342 90.736C30.6684 86.1582 41.523 82.8908 54.2636 82.8908C66.7361 82.8908 77.3943 86.0239 81.7156 90.4509C82.9069 91.6708 83.6172 92.9881 83.7495 94.3665C83.7646 94.1968 83.7791 94.0271 83.7791 93.856C83.7786 92.9314 83.5527 92.0296 83.1314 91.1598Z" fill="#A1A1A1"/>
<path d="M54.4207 76.918C33.6483 76.918 16.8088 84.4844 16.8088 93.8175C16.8088 103.151 33.6483 110.717 54.4207 110.717C75.1931 110.717 92.0326 103.151 92.0326 93.8175C92.0326 84.4844 75.1926 76.918 54.4207 76.918ZM83.7496 94.3673C83.1367 101.271 70.1736 106.787 54.2636 106.787C38.3536 106.787 25.3905 101.271 24.7776 94.3673C24.7626 94.1976 24.7481 94.0279 24.7481 93.8568C24.7481 93.0122 24.9391 92.1875 25.2921 91.388C27.9233 85.4283 39.891 80.9266 54.2636 80.9266C68.4534 80.9266 80.3004 85.3139 83.1319 91.1606C83.5532 92.0304 83.7791 92.9317 83.7791 93.8568C83.7787 94.0279 83.7646 94.1976 83.7496 94.3673Z" fill="white"/>
<path d="M81.7158 90.4517C77.394 86.0246 66.7363 82.8916 54.2638 82.8916C41.5237 82.8916 30.6691 86.1589 26.5344 90.7368C25.5056 91.8757 24.8995 93.0965 24.7773 94.3673C25.3902 101.271 38.3533 106.787 54.2633 106.787C70.1733 106.787 83.1364 101.271 83.7493 94.3673C83.6169 92.9893 82.9066 91.6715 81.7158 90.4517Z" fill="#DEDEDE"/>
<path d="M57.747 85.7547H62.3991L63.7755 84.5605H47.2711L45.2988 85.7547H49.1542C54.215 85.7547 55.1081 87.1583 55.1081 87.1583H46.6753L44.5187 88.5517H55.6506C55.7151 91.5907 47.4505 91.4646 47.4505 91.4646H44.8154L44.3665 93.2503L56.9403 103.972H62.7928L62.7021 103.372L49.419 92.7621C59.299 92.7621 59.5448 88.5512 59.5448 88.5512H63.0148L64.4761 87.1578H59.2093C58.9916 86.2226 57.747 85.7547 57.747 85.7547Z" fill="white"/>
<path d="M45.1978 88.5508H44.5181V88.9896H45.4509H55.5918C55.6296 88.8504 55.6534 88.7054 55.65 88.5508H45.1978Z" fill="#A1A1A1"/>
<path d="M49.154 85.7539H46.0239H45.2986V86.1927H47.1405H49.154C52.3307 86.1927 53.8637 86.7454 54.5663 87.157H55.1078C55.1078 87.157 54.2148 85.7539 49.154 85.7539Z" fill="#A1A1A1"/>
<path d="M57.7473 85.7547C57.7473 85.7547 58.1362 85.9011 58.5172 86.1935H62.3993L63.7758 84.9993V84.5605L62.3993 85.7547H57.7473Z" fill="#A1A1A1"/>
<path d="M64.0145 87.597L63.0133 88.5512H59.5433C59.5433 88.5512 59.2975 92.762 49.4175 92.762L49.9581 93.194C59.3004 93.0417 59.5433 88.9904 59.5433 88.9904H63.0133L64.4746 87.597V87.1582L64.0145 87.597Z" fill="#A1A1A1"/>
<path d="M56.9388 103.971L44.4561 93.3266L44.3655 93.249V93.6883L56.9388 104.41H62.7913V103.971H62.7254H56.9388Z" fill="#A1A1A1"/>
<path d="M16.8088 93.8174V102.071C16.8088 106.138 20.9406 109.463 27.63 112.514V105.676C20.9406 102.624 16.8088 98.4384 16.8088 93.8174Z" fill="#B3B3B3"/>
<path d="M38.6887 109.168V116.007C43.0435 116.909 47.8454 117.449 52.9066 117.539V110.701C47.8449 110.61 43.0435 110.071 38.6887 109.168Z" fill="#ADADAD"/>
<path d="M27.6299 105.675V112.513C30.7969 113.958 34.5393 115.145 38.6886 116.005V109.167C34.5388 108.307 30.7969 107.119 27.6299 105.675Z" fill="#9C9C9C"/>
<path d="M55.9346 110.701V117.539C60.9963 117.449 65.7977 116.909 70.1525 116.007V109.168C65.7977 110.071 60.9963 110.61 55.9346 110.701Z" fill="#ADADAD"/>
<path d="M81.2107 105.675V112.514C87.9 109.463 92.0318 106.138 92.0318 102.071V93.8174C92.0318 98.4379 87.9 102.624 81.2107 105.675Z" fill="#B3B3B3"/>
<path d="M54.4209 110.717C53.9133 110.717 53.41 110.709 52.9067 110.7V117.539C53.4095 117.548 53.9128 117.556 54.4209 117.556C54.929 117.556 55.4318 117.548 55.935 117.539V110.7C55.4318 110.709 54.9285 110.717 54.4209 110.717Z" fill="#9C9C9C"/>
<path d="M70.1526 109.167V116.005C74.3018 115.145 78.0438 113.958 81.2113 112.513V105.675C78.0438 107.119 74.3018 108.307 70.1526 109.167Z" fill="#9C9C9C"/>
<path opacity="0.4" d="M54.4207 76.918C47.0531 76.918 40.1858 77.8736 34.3838 79.5186C34.0415 80.0748 33.7724 80.6629 33.6008 81.2888C33.304 82.3714 33.2963 83.5011 33.5339 84.655C35.001 91.7865 46.1784 99.8736 61.0732 103.957C63.2525 104.555 65.4067 105.038 67.5128 105.41C71.8473 106.178 75.9718 106.474 79.6837 106.338C87.269 103.246 92.033 98.7823 92.033 93.818C92.0321 84.4839 75.1927 76.918 54.4207 76.918Z" fill="#E0E0E0"/>
<path d="M94.5417 71.9493C93.3567 65.562 83.0917 58.1983 69.4066 54.4461C55.5451 50.6455 42.8132 51.8227 38.6999 56.8747C38.1481 57.5525 37.7462 58.2972 37.5227 59.1117C37.4776 59.2771 37.4466 59.4443 37.416 59.6121C37.8698 58.4184 38.777 57.4017 40.0705 56.575C45.268 53.2534 56.6006 52.9722 68.8874 56.3409C80.9162 59.6387 90.3662 65.4786 93.3635 70.8904C94.1897 72.3818 94.5262 73.8402 94.2896 75.2045C94.3487 75.045 94.4078 74.885 94.4529 74.7197C94.6973 73.8285 94.7177 72.8996 94.5417 71.9493Z" fill="#A1A1A1"/>
<path d="M70.6183 50.6223C50.5853 45.1301 32.3447 47.9746 29.8768 56.9757C27.409 65.9767 41.6482 77.7263 61.6813 83.219C81.7143 88.7118 99.955 85.8672 102.423 76.8657C104.891 67.8642 90.6514 56.1146 70.6183 50.6223ZM94.2891 75.2061C91.8727 81.7025 77.9122 83.5938 62.5685 79.3874C47.2248 75.1804 36.1817 66.4339 37.4156 59.6132C37.4461 59.4454 37.4767 59.2782 37.5223 59.1128C37.7458 58.2983 38.1477 57.5531 38.6994 56.8758C42.8128 51.8238 55.5447 50.6466 69.4062 54.4472C83.0913 58.1994 93.3563 65.5627 94.5412 71.9504C94.7177 72.9007 94.6969 73.8296 94.4525 74.7217C94.4074 74.8861 94.3488 75.0461 94.2891 75.2061Z" fill="white"/>
<path d="M93.3631 70.8913C90.3659 65.4795 80.9159 59.6397 68.887 56.3418C56.6002 52.9731 45.2681 53.2543 40.0701 56.576C38.7771 57.4021 37.8699 58.4193 37.4157 59.613C36.1813 66.4337 47.2244 75.1802 62.5686 79.3871C77.9123 83.5941 91.8723 81.7022 94.2892 75.2059C94.5263 73.8415 94.1893 72.3832 93.3631 70.8913Z" fill="#DEDEDE"/>
<path d="M71.49 60.0224L75.9762 61.2525L77.6193 60.4646L61.7021 56.1006L59.4839 56.7309L63.2017 57.7505C68.0825 59.0886 68.5722 60.6779 68.5722 60.6779L60.4395 58.4482L57.9911 59.2215L68.7264 62.1649C67.9851 65.1133 60.0478 62.8064 60.0478 62.8064L57.5063 62.1097L56.6016 63.713L65.8925 77.3777L71.5365 78.9253L71.6078 78.3232L61.6027 64.579C71.1312 67.1913 72.4815 63.1952 72.4815 63.1952L75.8279 64.113L77.6058 63.156L72.5266 61.7635C72.5663 60.803 71.49 60.0224 71.49 60.0224Z" fill="white"/>
<path d="M58.6476 59.4015L57.9921 59.2217L57.8757 59.6449L58.7751 59.8917L68.5548 62.5729C68.628 62.4488 68.6891 62.3154 68.7269 62.1646L58.6476 59.4015Z" fill="#A1A1A1"/>
<path d="M63.2025 57.7501L60.1839 56.9225L59.4848 56.7305L59.3689 57.1537L61.1453 57.641L63.0871 58.1733C66.1508 59.0131 67.4832 59.9517 68.0519 60.5345L68.5741 60.6775C68.5731 60.678 68.0829 59.0882 63.2025 57.7501Z" fill="#A1A1A1"/>
<path d="M71.49 60.0215C71.49 60.0215 71.8265 60.2658 72.1164 60.6484L75.8603 61.6748L77.5035 60.8869L77.6193 60.4637L75.9762 61.2515L71.49 60.0215Z" fill="#A1A1A1"/>
<path d="M77.0476 63.4559L75.8302 64.1114L72.4838 63.1941C72.4838 63.1941 71.1335 67.1901 61.605 64.5773L62.0123 65.1368C71.0623 67.4602 72.3679 63.6173 72.3679 63.6173L75.7143 64.5346L77.4922 63.5776L77.6081 63.1543L77.0476 63.4559Z" fill="#A1A1A1"/>
<path d="M65.8939 77.3786L56.6698 63.8128L56.6029 63.7139L56.4866 64.1371L65.778 77.8018L71.422 79.3494L71.5384 78.9257L71.4744 78.9082L65.8939 77.3786Z" fill="#A1A1A1"/>
<path d="M29.8767 56.9736L27.6945 64.9332C26.6191 68.8556 29.7245 73.1551 35.369 77.8658L37.177 71.2706C31.5325 66.5599 28.6545 61.4303 29.8767 56.9736Z" fill="#B3B3B3"/>
<path d="M46.9188 77.5625L45.1108 84.1578C49.072 86.18 53.5601 87.9701 58.4177 89.3955L60.2257 82.8002C55.3681 81.3748 50.8799 79.5848 46.9188 77.5625Z" fill="#ADADAD"/>
<path d="M37.1771 71.2715L35.3691 77.8668C38.0416 80.097 41.3365 82.2318 45.111 84.1585L46.919 77.5632C43.1445 75.6365 39.8495 73.5017 37.1771 71.2715Z" fill="#9C9C9C"/>
<path d="M63.1461 83.6006L61.3381 90.1959C66.2432 91.4472 71.017 92.1963 75.4557 92.477L77.2636 85.8818C72.8245 85.601 68.0512 84.852 63.1461 83.6006Z" fill="#ADADAD"/>
<path d="M88.8517 85.4386L87.0437 92.0339C94.3017 90.8601 99.1656 88.7462 100.241 84.8239L102.423 76.8643C101.201 81.3209 96.1092 84.2653 88.8517 85.4386Z" fill="#B3B3B3"/>
<path d="M61.6812 83.2177C61.1915 83.0834 60.7081 82.9424 60.2257 82.8008L58.4177 89.396C58.9001 89.5376 59.3835 89.6787 59.8732 89.813C60.3629 89.9473 60.8506 90.0724 61.3379 90.1965L63.1459 83.6012C62.6586 83.4771 62.1709 83.352 61.6812 83.2177Z" fill="#9C9C9C"/>
<path d="M77.263 85.8821L75.4551 92.4774C79.6838 92.745 83.6072 92.5894 87.0432 92.0337L88.8512 85.4385C85.4151 85.9946 81.4923 86.1502 77.263 85.8821Z" fill="#9C9C9C"/>
<path d="M68.4791 8.52821C64.0225 3.802 51.4045 3.17462 37.8698 7.43635C24.1605 11.7529 14.0971 19.6407 13.3772 26.1157C13.2807 26.9841 13.3461 27.8282 13.5997 28.634C13.6511 28.7974 13.7161 28.9549 13.781 29.112C13.5158 27.8631 13.7272 26.5167 14.3662 25.1213C16.9349 19.5132 26.3073 13.1366 38.4593 9.31074C50.3563 5.56487 61.463 5.35251 66.915 8.27706C68.4175 9.08286 69.491 10.1262 70.0311 11.4014C69.9942 11.2351 69.9574 11.0688 69.906 10.9054C69.6286 10.0234 69.1423 9.23171 68.4791 8.52821Z" fill="#A1A1A1"/>
<path d="M36.8163 3.56571C17.0028 9.80414 3.21305 22.0783 6.01639 30.9809C8.81925 39.8835 27.1539 42.043 46.9673 35.8046C66.7808 29.5662 80.5705 17.292 77.7672 8.38938C74.9639 -0.513232 56.6297 -2.67319 36.8163 3.56571ZM70.0316 11.4017C71.5205 18.171 60.8119 27.3252 45.6365 32.1033C30.461 36.8814 16.4399 35.5137 13.7816 29.1124C13.7161 28.9548 13.6516 28.7977 13.6002 28.6343C13.3467 27.8285 13.2807 26.9849 13.3777 26.116C14.0977 19.641 24.1605 11.7532 37.8703 7.43667C51.4051 3.17493 64.023 3.80183 68.4796 8.52852C69.1429 9.23154 69.6287 10.0238 69.9065 10.9057C69.9579 11.0691 69.9948 11.2354 70.0316 11.4017Z" fill="white"/>
<path d="M66.9156 8.27791C61.4636 5.35337 50.3569 5.56572 38.46 9.31159C26.308 13.1379 16.9356 19.5145 14.3669 25.1222C13.7279 26.5175 13.5165 27.8639 13.7817 29.1129C16.4401 35.5142 30.4611 36.882 45.6366 32.1039C60.812 27.3258 71.5202 18.1715 70.0317 11.4022C69.4916 10.1271 68.4182 9.08372 66.9156 8.27791Z" fill="#DEDEDE"/>
<path d="M42.6425 10.9947L47.0797 9.59738L48.0339 8.04492L32.2912 13.0014L30.7683 14.7328L34.4453 13.575C39.2724 12.055 40.5456 13.1255 40.5456 13.1255L32.5021 15.6579L30.8633 17.6345L41.4813 14.2916C42.4554 17.171 34.5345 19.5327 34.5345 19.5327L32.0211 20.324L32.1293 22.162L47.3425 28.6123L52.925 26.8547L52.6583 26.3098L36.8021 20.179C46.2264 17.2118 45.1961 13.1217 45.1961 13.1217L48.5061 12.0798L49.4816 10.312L44.4582 11.8936C43.9705 11.0669 42.6425 10.9947 42.6425 10.9947Z" fill="white"/>
<path d="M31.5125 17.4323L30.8643 17.6364L30.9961 18.0553L31.8858 17.7751L41.5584 14.7293C41.553 14.5853 41.5317 14.4404 41.4817 14.293L31.5125 17.4323Z" fill="#A1A1A1"/>
<path d="M34.4458 13.575L31.4602 14.5151L30.7688 14.7328L30.9007 15.1517L32.6577 14.5985L34.5782 13.9939C37.6079 13.0397 39.237 13.1066 40.0302 13.2884L40.5465 13.126C40.5465 13.126 39.2734 12.0555 34.4458 13.575Z" fill="#A1A1A1"/>
<path d="M42.6426 10.9957C42.6426 10.9957 43.0576 11.0189 43.509 11.1833L47.2117 10.0173L48.1659 8.4648L48.034 8.0459L47.0798 9.59835L42.6426 10.9957Z" fill="#A1A1A1"/>
<path d="M49.1741 10.8706L48.506 12.0812L45.196 13.1231C45.196 13.1231 46.2263 17.2132 36.802 20.1804L37.4473 20.4301C46.3126 17.4789 45.3279 13.542 45.3279 13.542L48.6379 12.5001L49.6134 10.7324L49.4815 10.3135L49.1741 10.8706Z" fill="#A1A1A1"/>
<path d="M47.3429 28.6144L32.2397 22.2106L32.1296 22.1641L32.2615 22.583L47.4748 29.0333L53.0572 27.2757L52.9253 26.8568L52.8618 26.8767L47.3429 28.6144Z" fill="#A1A1A1"/>
<path d="M6.01611 30.9814L8.49461 38.8538C9.71592 42.733 14.6559 44.6641 21.9523 45.5649L19.8985 39.0419C12.6022 38.1411 7.40421 35.3891 6.01611 30.9814Z" fill="#B3B3B3"/>
<path d="M31.4956 39.0523L33.5494 45.5753C37.9745 45.1283 42.7167 44.2013 47.5714 42.7672L45.5176 36.2441C40.6625 37.6783 35.9207 38.6053 31.4956 39.0523Z" fill="#ADADAD"/>
<path d="M19.8987 39.041L21.9525 45.564C25.4074 45.9907 29.3332 45.9994 33.5493 45.5737L31.4955 39.0507C27.2794 39.4764 23.3532 39.4677 19.8987 39.041Z" fill="#9C9C9C"/>
<path d="M48.4058 35.3333L50.4595 41.8563C55.2604 40.2501 59.6783 38.2933 63.5609 36.1246L61.5071 29.6016C57.6245 31.7707 53.2066 33.7275 48.4058 35.3333Z" fill="#ADADAD"/>
<path d="M71.0066 22.9489L73.0604 29.4719C78.5245 24.5527 81.467 20.1407 80.2457 16.261L77.7672 8.38867C79.1548 12.7963 76.4707 18.0302 71.0066 22.9489Z" fill="#B3B3B3"/>
<path d="M46.9668 35.8052C46.4824 35.958 46 36.101 45.5176 36.2435L47.5714 42.7666C48.0538 42.624 48.5362 42.481 49.0205 42.3283C49.5049 42.1756 49.9825 42.0165 50.4595 41.857L48.4058 35.334C47.9287 35.494 47.4511 35.653 46.9668 35.8052Z" fill="#9C9C9C"/>
<path d="M61.5071 29.6022L63.5609 36.1252C67.2602 34.0588 70.4732 31.8024 73.0603 29.4732L71.0065 22.9502C68.4194 25.2794 65.2064 27.5358 61.5071 29.6022Z" fill="#9C9C9C"/>
<path opacity="0.4" d="M70.6181 50.6204C50.5851 45.1281 32.3445 47.9727 29.8766 56.9737C29.4476 58.5393 29.5343 60.1892 30.0585 61.8735C32.2713 62.3811 34.8264 62.6396 37.6234 62.6332C42.4378 62.6226 47.9631 61.8313 53.6711 60.1867C59.1139 58.6183 63.9991 56.4802 67.9806 54.072C69.5612 53.1159 71.0016 52.1181 72.2738 51.0951C71.7255 50.9326 71.1752 50.7731 70.6181 50.6204Z" fill="#E0E0E0"/>
</svg>
