<svg width="308" height="308" viewBox="0 0 308 308" fill="none" xmlns="http://www.w3.org/2000/svg">
<path d="M112.247 14.7139L115.138 19.9979L120.421 22.8876L115.138 25.7772L112.247 31.0613L109.358 25.7772L104.074 22.8876L109.358 19.9979L112.247 14.7139Z" fill="#F5F5F5"/>
<path d="M232.768 157.864L234.936 161.827L238.898 163.994L234.936 166.162L232.768 170.124L230.601 166.162L226.637 163.994L230.601 161.827L232.768 157.864Z" fill="#EBEBEB"/>
<path d="M238.898 138.297L239.876 140.085L241.664 141.063L239.876 142.041L238.898 143.829L237.921 142.041L236.132 141.063L237.921 140.085L238.898 138.297Z" fill="#E0E0E0"/>
<path d="M91.6078 16.7012L92.5853 18.4894L94.373 19.467L92.5853 20.4452L91.6078 22.2329L90.6296 20.4452L88.8413 19.467L90.6296 18.4894L91.6078 16.7012Z" fill="#E0E0E0"/>
<path d="M42.5859 182.803C44.7905 181.845 46.3379 179.538 46.3157 176.844C46.2843 173.315 43.577 170.476 40.2672 170.504C36.9593 170.531 34.3019 173.415 34.3327 176.944C34.3567 179.663 35.9743 181.956 38.2277 182.86C29.0258 184.368 29.5741 194.383 29.5741 194.383L51.3774 194.202C51.3774 194.202 51.7433 184.065 42.5859 182.803Z" fill="#E0E0E0"/>
<path d="M251.72 248.826C251.411 247.258 249.864 246.03 248.266 246.088C246.683 246.146 245.242 247.458 245.026 249.025C244.797 247.46 243.345 246.16 241.761 246.117C240.163 246.074 238.627 247.314 238.332 248.885C238.118 250.029 238.51 251.22 239.154 252.19C239.798 253.159 240.678 253.945 241.548 254.719C242.766 255.803 243.892 256.823 245.11 257.907C246.319 256.812 247.347 255.783 248.555 254.688C249.418 253.906 250.291 253.113 250.926 252.138C251.562 251.162 251.944 249.968 251.72 248.826Z" fill="#EBEBEB"/>
<path d="M265.92 118.981L268.256 118.517L271.946 110.401L271.021 105.737C271.021 105.737 274.588 104.799 275.374 110.99C276.16 117.181 276.312 115.535 276.312 115.535C276.312 115.535 283.985 114.043 284.755 114.584C285.314 114.975 287.034 122.55 287.933 126.665C288.386 128.737 287.494 130.924 285.658 131.798C285.397 131.923 285.127 132.019 284.855 132.073C282.942 132.453 272.862 132.835 272.862 132.835L268.827 133.635L265.92 118.981Z" fill="#E0E0E0"/>
<path d="M258.978 119.027L263.583 134.721L267.585 133.928L264.48 118.271L258.978 119.027Z" fill="#E0E0E0"/>
<path d="M289.809 289.103C289.809 289.192 228.721 289.263 153.382 289.263C78.0171 289.263 16.9419 289.191 16.9419 289.103C16.9419 289.014 78.0171 288.943 153.382 288.943C228.721 288.943 289.809 289.014 289.809 289.103Z" fill="#263238"/>
<path d="M202.214 289.548L117.276 289.498C107.06 289.492 98.7824 281.207 98.7849 270.992L98.8268 58.0504C98.8286 47.8291 107.118 39.5457 117.339 39.5513L202.278 39.6012C212.494 39.6073 220.771 47.8913 220.769 58.107L220.727 271.05C220.726 281.271 212.436 289.554 202.214 289.548Z" fill="#263238"/>
<path d="M202.188 47.1328L185.72 47.1235C183.511 47.1223 181.72 48.9931 181.721 51.3012L181.719 54.2882C181.719 56.597 179.928 58.4678 177.72 58.4666L145.621 58.4475C143.412 58.4462 141.622 56.5736 141.623 54.2648L141.623 51.2778C141.623 48.9691 139.833 47.0964 137.625 47.0952L131.833 47.0915L117.42 47.0835C110.261 47.0798 104.456 52.8807 104.454 60.0392L104.413 267.886C104.412 275.042 110.209 280.843 117.363 280.847L202.132 280.897C209.29 280.901 215.096 275.1 215.098 267.942L215.139 60.094C215.139 52.9386 209.343 47.1371 202.188 47.1328Z" fill="white"/>
<path d="M203.428 64.0187C203.429 64.0741 201.287 64.1376 198.645 64.1591C196.003 64.1807 193.861 64.1536 193.861 64.0975C193.86 64.0421 196.001 63.9793 198.644 63.9571C201.285 63.9355 203.428 63.9626 203.428 64.0187Z" fill="#263238"/>
<path d="M203.448 66.4665C203.449 66.5219 201.307 66.5853 198.666 66.6069C196.023 66.6285 193.881 66.6014 193.881 66.5453C193.88 66.4899 196.022 66.427 198.664 66.4049C201.306 66.3833 203.448 66.4104 203.448 66.4665Z" fill="#263238"/>
<path d="M203.468 68.9141C203.469 68.9696 201.327 69.033 198.686 69.0546C196.043 69.0761 193.901 69.049 193.901 68.993C193.901 68.9375 196.042 68.8747 198.685 68.8525C201.326 68.831 203.468 68.8587 203.468 68.9141Z" fill="#263238"/>
<path d="M113.356 71.3019C113.361 71.297 113.446 71.292 113.606 71.2853C113.804 71.2785 114.033 71.2711 114.304 71.2625C114.962 71.2471 115.822 71.2261 116.878 71.2009L116.807 71.2736C116.797 70.7025 116.787 70.0791 116.776 69.4071C116.78 69.0603 116.747 68.7326 116.781 68.3322C116.85 67.9324 117.206 67.5794 117.644 67.5388C118.059 67.5307 118.425 67.5117 118.874 67.5326C119.338 67.5893 119.733 68.0353 119.719 68.5268C119.729 69.3972 119.739 70.3064 119.75 71.2495L119.63 71.1319C120.673 71.1214 121.759 71.1103 122.878 71.0986L122.755 71.2243C122.743 69.9165 122.731 68.5638 122.718 67.1778C122.715 66.8322 122.712 66.4885 122.71 66.1472C122.708 65.8294 122.515 65.6168 122.253 65.3797C121.773 64.906 121.299 64.439 120.833 63.9801C120.368 63.5212 119.911 63.0703 119.464 62.6286C119.24 62.4081 119.019 62.1894 118.801 61.9732C118.573 61.7533 118.393 61.526 118.129 61.4718C117.873 61.4028 117.59 61.4576 117.384 61.6141C117.187 61.7804 116.977 62.0157 116.779 62.2085C116.38 62.612 115.991 63.0044 115.614 63.3838C114.881 64.1452 114.118 64.8407 113.563 65.498C113.329 65.8614 113.416 66.3055 113.399 66.7102C113.399 67.1125 113.398 67.4944 113.397 67.8548C113.393 68.5564 113.389 69.1712 113.386 69.6978C113.38 70.1691 113.376 70.5578 113.373 70.8769C113.367 71.1491 113.362 71.2957 113.356 71.3019C113.35 71.3081 113.342 71.1738 113.334 70.9114C113.325 70.5978 113.314 70.2147 113.301 69.7508C113.289 69.2198 113.275 68.6001 113.259 67.8923C113.252 67.5252 113.245 67.1359 113.237 66.7256C113.234 66.518 113.231 66.3049 113.228 66.0868C113.226 65.8565 113.285 65.6181 113.407 65.4074C114.007 64.6713 114.724 64.0195 115.463 63.236C115.837 62.8528 116.223 62.458 116.619 62.0514C116.827 61.8469 116.998 61.6436 117.246 61.4305C117.506 61.2309 117.862 61.1595 118.188 61.2451C118.533 61.3215 118.758 61.6048 118.967 61.8026C119.187 62.0176 119.409 62.2356 119.634 62.4555C120.083 62.896 120.541 63.345 121.008 63.8027C121.474 64.261 121.949 64.7267 122.43 65.1992C122.544 65.3199 122.681 65.4222 122.793 65.5922C122.898 65.7542 122.958 65.9452 122.963 66.1398C122.966 66.4829 122.969 66.8279 122.972 67.1753C122.983 68.5613 122.993 69.9141 123.003 71.2218L123.004 71.3469L122.88 71.3475C121.76 71.3549 120.675 71.3617 119.632 71.3684L119.513 71.369L119.513 71.2508C119.508 70.3077 119.503 69.3985 119.498 68.5281C119.512 68.1357 119.207 67.7895 118.842 67.7396C118.469 67.7199 118.028 67.7328 117.665 67.7359C117.315 67.7648 117.024 68.0451 116.964 68.3673C116.933 68.6938 116.957 69.0744 116.95 69.4052C116.95 70.0779 116.951 70.7013 116.951 71.2723V71.3456L116.879 71.345C115.806 71.3376 114.931 71.3315 114.262 71.3265C113.997 71.3222 113.773 71.3179 113.58 71.3148C113.428 71.3105 113.351 71.3068 113.356 71.3019Z" fill="#263238"/>
<path d="M169.388 233.714C169.388 233.736 169.071 233.757 168.498 233.776C167.864 233.79 167.049 233.806 166.07 233.827C164.021 233.856 161.19 233.874 158.063 233.874C154.935 233.874 152.104 233.856 150.054 233.827C149.076 233.807 148.261 233.79 147.627 233.776C147.055 233.757 146.737 233.735 146.737 233.714C146.737 233.692 147.054 233.671 147.627 233.652C148.261 233.639 149.076 233.621 150.054 233.601C152.104 233.572 154.935 233.554 158.063 233.554C161.19 233.554 164.021 233.572 166.07 233.601C167.049 233.621 167.864 233.638 168.498 233.652C169.07 233.671 169.388 233.692 169.388 233.714Z" fill="#455A64"/>
<path d="M204.987 239.286C204.987 239.375 191.946 239.446 175.864 239.446C159.775 239.446 146.738 239.374 146.738 239.286C146.738 239.197 159.775 239.126 175.864 239.126C191.947 239.126 204.987 239.197 204.987 239.286Z" fill="#455A64"/>
<path d="M186.784 244.528C186.784 244.617 177.819 244.688 166.762 244.688C155.701 244.688 146.738 244.616 146.738 244.528C146.738 244.44 155.701 244.368 166.762 244.368C177.819 244.368 186.784 244.44 186.784 244.528Z" fill="#455A64"/>
<path d="M206.138 254.732L204.328 252.917L202.605 254.635L202.613 249.439L206.146 249.445L206.138 254.732ZM204.329 252.691L204.386 252.747L205.979 254.345L205.986 249.604L202.773 249.599L202.766 254.249L204.329 252.691Z" fill="#263238"/>
<path d="M157.947 254.056L157.309 253.772C157 253.939 156.73 254.021 156.482 254.023C155.504 254.031 154.702 253.241 154.694 252.264C154.686 251.286 155.475 250.484 156.454 250.476C157.432 250.468 158.234 251.257 158.242 252.235C158.246 252.67 158.088 253.089 157.8 253.418L157.947 254.056ZM156.455 250.597C155.544 250.604 154.808 251.352 154.816 252.263C154.823 253.174 155.57 253.909 156.481 253.902C156.715 253.9 156.975 253.817 157.277 253.651L157.304 253.636L157.774 253.846L157.668 253.384L157.689 253.36C157.971 253.051 158.124 252.652 158.12 252.237C158.113 251.325 157.366 250.59 156.455 250.597Z" fill="#263238"/>
<path d="M162.053 253.782L161.322 251.996L159.949 250.745L163.279 250.719L162.053 253.782ZM160.26 250.864L161.429 251.937L162.052 253.459L163.098 250.841L160.26 250.864Z" fill="#263238"/>
<path d="M163.21 250.734L161.395 251.916L161.461 252.017L163.277 250.836L163.21 250.734Z" fill="#263238"/>
<path d="M152.709 251.118C152.613 250.642 152.143 250.272 151.658 250.291C151.178 250.31 150.742 250.71 150.678 251.186C150.607 250.711 150.164 250.319 149.684 250.307C149.199 250.296 148.734 250.674 148.646 251.151C148.582 251.499 148.703 251.86 148.9 252.153C149.096 252.447 149.364 252.684 149.628 252.919C149.999 253.246 150.342 253.554 150.713 253.882C151.078 253.548 151.389 253.235 151.755 252.901C152.016 252.663 152.28 252.421 152.471 252.125C152.663 251.827 152.778 251.464 152.709 251.118Z" fill="#0E4680"/>
<path d="M209.848 259.329C209.848 259.329 209.84 259.129 209.837 258.749C209.834 258.363 209.831 257.801 209.826 257.064C209.819 255.577 209.811 253.392 209.8 250.56C209.786 244.898 209.766 236.662 209.742 226.33L209.847 226.436C186.146 226.449 150.767 226.469 111.339 226.491H111.333L111.493 226.331C111.491 237.799 111.489 248.923 111.488 259.329L111.333 259.174C139.691 259.203 164.298 259.228 181.823 259.246C190.593 259.265 197.589 259.279 202.402 259.29C204.805 259.298 206.66 259.305 207.923 259.31C208.549 259.314 209.026 259.318 209.355 259.32C209.678 259.322 209.848 259.329 209.848 259.329C209.848 259.329 209.691 259.335 209.375 259.338C209.05 259.341 208.579 259.344 207.962 259.348C206.707 259.353 204.862 259.359 202.473 259.368C197.669 259.378 190.685 259.393 181.931 259.412C164.378 259.43 139.734 259.455 111.333 259.484H111.178V259.329C111.176 248.923 111.174 237.798 111.173 226.33V226.17H111.333H111.339C150.768 226.192 186.146 226.211 209.847 226.225H209.953V226.331C209.928 236.689 209.909 244.947 209.895 250.624C209.884 253.445 209.875 255.623 209.869 257.104C209.864 257.834 209.861 258.389 209.858 258.771C209.855 259.143 209.848 259.329 209.848 259.329Z" fill="#263238"/>
<path d="M115.436 231.845L115.312 253.662L142.601 253.817L142.725 232.001L115.436 231.845Z" fill="#EBEBEB"/>
<path d="M142.718 231.998C142.715 232.002 142.669 232.004 142.581 232.006C142.481 232.008 142.355 232.01 142.194 232.012C141.84 232.014 141.343 232.017 140.704 232.021C139.392 232.022 137.5 232.024 135.109 232.027C130.31 232.017 123.509 232.003 115.429 231.987L115.573 231.844C115.541 238.34 115.504 245.782 115.466 253.658C115.499 253.696 115.167 253.354 115.311 253.499H115.318H115.333H115.363L115.422 253.499L115.54 253.5L115.777 253.501L116.248 253.504L117.189 253.509C117.815 253.513 118.438 253.517 119.057 253.52C120.296 253.528 121.522 253.535 122.733 253.542C125.156 253.558 127.521 253.573 129.813 253.588C134.397 253.621 138.693 253.652 142.594 253.68L142.459 253.813C142.525 247.262 142.58 241.827 142.618 238.012C142.643 236.114 142.664 234.62 142.678 233.582C142.687 233.081 142.695 232.691 142.7 232.409C142.708 232.143 142.718 231.998 142.718 231.998C142.718 231.998 142.727 232.124 142.73 232.382C142.732 232.657 142.735 233.04 142.739 233.529C142.741 234.56 142.744 236.044 142.748 237.929C142.743 241.765 142.736 247.229 142.727 253.815V253.948L142.594 253.947C138.694 253.931 134.397 253.913 129.813 253.894C127.521 253.883 125.156 253.871 122.733 253.859C121.521 253.853 120.296 253.846 119.057 253.839C118.437 253.836 117.814 253.833 117.189 253.829L116.248 253.823L115.777 253.821L115.54 253.82L115.422 253.819H115.363H115.333H115.318H115.311C115.451 253.963 115.111 253.624 115.146 253.655C115.198 245.779 115.246 238.337 115.288 231.841L115.288 231.697L115.432 231.699C123.549 231.774 130.383 231.838 135.205 231.883C137.582 231.912 139.462 231.936 140.767 231.952C141.394 231.963 141.881 231.971 142.228 231.978C142.382 231.982 142.503 231.986 142.599 231.988C142.68 231.992 142.721 231.995 142.718 231.998Z" fill="#263238"/>
<path d="M116.369 233.224L116.26 252.293L141.631 252.438L141.74 233.369L116.369 233.224Z" fill="#E0E0E0"/>
<path d="M116.255 252.291L125.183 240.488L130.63 247.936L134.376 243.992L141.625 252.436L116.255 252.291Z" fill="#F5F5F5"/>
<path d="M133.011 239.08C133.005 240.184 132.106 241.073 131.002 241.067C129.899 241.061 129.009 240.162 129.016 239.058C129.022 237.955 129.921 237.066 131.024 237.072C132.128 237.078 133.017 237.977 133.011 239.08Z" fill="#F5F5F5"/>
<path d="M161.445 90.4728C161.445 90.4839 161.345 90.495 161.154 90.5054C160.926 90.5135 160.65 90.5233 160.319 90.5356C159.541 90.5486 158.504 90.5658 157.246 90.5868C154.65 90.6157 151.065 90.6336 147.106 90.6336C143.145 90.6336 139.56 90.6157 136.965 90.5868C135.707 90.5658 134.669 90.5486 133.892 90.5356C133.56 90.5239 133.285 90.5135 133.057 90.5054C132.866 90.495 132.765 90.4839 132.765 90.4728C132.765 90.4617 132.866 90.4506 133.057 90.4401C133.285 90.4321 133.56 90.4223 133.892 90.41C134.669 90.397 135.707 90.3798 136.965 90.3588C139.56 90.3299 143.145 90.312 147.106 90.312C151.066 90.312 154.65 90.3299 157.246 90.3588C158.504 90.3798 159.542 90.397 160.319 90.41C160.65 90.4217 160.926 90.4315 161.154 90.4401C161.345 90.4512 161.445 90.4617 161.445 90.4728Z" fill="#263238"/>
<path d="M201.76 211.074L199.07 208.377L196.51 210.931L196.521 203.209L201.771 203.217L201.76 211.074ZM199.071 208.041L199.156 208.125L201.524 210.501L201.535 203.454L196.76 203.447L196.749 210.358L199.071 208.041Z" fill="#263238"/>
<path d="M133.471 210.262L132.214 209.701C131.606 210.03 131.074 210.192 130.586 210.196C128.661 210.212 127.082 208.658 127.067 206.733C127.051 204.808 128.605 203.229 130.53 203.214C132.455 203.199 134.034 204.752 134.05 206.677C134.056 207.535 133.748 208.358 133.18 209.006L133.471 210.262ZM130.532 203.452C128.738 203.467 127.291 204.938 127.306 206.731C127.32 208.524 128.791 209.971 130.585 209.957C131.045 209.953 131.557 209.791 132.151 209.463L132.203 209.434L133.13 209.848L132.92 208.937L132.962 208.89C133.516 208.282 133.818 207.496 133.811 206.678C133.796 204.885 132.326 203.438 130.532 203.452Z" fill="#263238"/>
<path d="M141.553 209.723L140.112 206.206L137.41 203.744L143.963 203.691L141.553 209.723ZM138.022 203.978L140.323 206.09L141.551 209.085L143.609 203.933L138.022 203.978Z" fill="#263238"/>
<path d="M143.822 203.694L140.249 206.018L140.379 206.219L143.952 203.894L143.822 203.694Z" fill="#263238"/>
<path d="M123.159 204.478C122.971 203.542 122.044 202.812 121.09 202.851C120.145 202.888 119.286 203.675 119.161 204.612C119.022 203.677 118.151 202.904 117.205 202.881C116.251 202.859 115.335 203.603 115.163 204.542C115.037 205.226 115.274 205.937 115.661 206.515C116.048 207.092 116.575 207.56 117.096 208.02C117.826 208.665 118.5 209.271 119.23 209.917C119.95 209.26 120.562 208.643 121.281 207.987C121.795 207.518 122.314 207.042 122.692 206.458C123.07 205.874 123.295 205.16 123.159 204.478Z" fill="#0E4680"/>
<path d="M122.561 94.9179C125.016 94.9179 127.006 92.9278 127.006 90.4729C127.006 88.0179 125.016 86.0278 122.561 86.0278C120.106 86.0278 118.116 88.0179 118.116 90.4729C118.116 92.9278 120.106 94.9179 122.561 94.9179Z" fill="#EBEBEB"/>
<path d="M200.081 185.573C200.081 185.661 181.441 185.733 158.452 185.733C135.456 185.733 116.82 185.661 116.82 185.573C116.82 185.485 135.456 185.413 158.452 185.413C181.441 185.412 200.081 185.484 200.081 185.573Z" fill="#455A64"/>
<path d="M200.081 178.639C200.081 178.728 181.441 178.799 158.452 178.799C135.456 178.799 116.82 178.727 116.82 178.639C116.82 178.551 135.456 178.479 158.452 178.479C181.441 178.479 200.081 178.55 200.081 178.639Z" fill="#455A64"/>
<path d="M162.14 192.598C162.14 192.687 151.994 192.758 139.481 192.758C126.964 192.758 116.82 192.686 116.82 192.598C116.82 192.51 126.964 192.438 139.481 192.438C151.994 192.438 162.14 192.51 162.14 192.598Z" fill="#455A64"/>
<path d="M156.547 268.139C156.543 269.13 155.748 269.929 154.771 269.925C153.794 269.92 153.005 269.112 153.01 268.122C153.014 267.131 153.809 266.331 154.786 266.335C155.763 266.34 156.552 267.147 156.547 268.139Z" fill="#263238"/>
<path d="M162.028 268.164C162.024 269.154 161.229 269.954 160.252 269.95C159.275 269.946 158.486 269.139 158.491 268.147C158.494 267.157 159.29 266.357 160.267 266.361C161.244 266.365 162.033 267.172 162.028 268.164Z" fill="#263238"/>
<path d="M167.51 268.189C167.506 269.179 166.71 269.98 165.733 269.975C164.756 269.971 163.968 269.164 163.972 268.172C163.976 267.181 164.772 266.381 165.748 266.386C166.725 266.39 167.514 267.197 167.51 268.189Z" fill="#263238"/>
<path d="M210.439 99.2705H111.924V159.518H210.439V99.2705Z" fill="#E0E0E0"/>
<path d="M121.018 159.528L149.248 121.744L166.749 145.374L178.61 132.735L201.874 159.505L121.018 159.528Z" fill="#F5F5F5"/>
<path d="M174.167 117.109C174.168 120.625 171.318 123.477 167.802 123.477C164.286 123.479 161.435 120.629 161.434 117.113C161.433 113.597 164.282 110.746 167.799 110.745C171.315 110.743 174.166 113.593 174.167 117.109Z" fill="#F5F5F5"/>
<path d="M210.173 215.509C210.172 214.221 210.113 159.795 210.028 79.2256L210.173 79.371C180.465 79.3753 146.976 79.3808 111.67 79.3858H111.659L111.819 79.2256C111.808 130.192 111.797 177.361 111.789 215.509L111.658 215.379C171.399 215.458 209.098 215.508 210.173 215.509C209.099 215.511 171.399 215.561 111.659 215.64H111.528V215.509C111.519 177.361 111.51 130.193 111.498 79.2256V79.0654H111.658H111.669C146.976 79.071 180.464 79.0759 210.172 79.0802H210.318V79.2256C210.288 119.55 210.263 153.636 210.246 177.645C210.229 189.633 210.215 199.104 210.207 205.583C210.199 208.813 210.193 211.297 210.19 212.976C210.186 213.81 210.183 214.443 210.181 214.873C210.179 215.298 210.173 215.509 210.173 215.509Z" fill="#263238"/>
<path d="M163.882 232.415L166.062 225.092C166.442 223.504 166.947 221.631 167.626 219.493C168.237 217.572 169.804 215.553 171.234 214.1C173.458 211.838 174.516 211.822 176.011 210.621C176.148 210.534 176.3 210.408 176.428 210.339C176.737 210.172 176.964 209.95 177.155 209.711C178.443 208.317 177.206 206.159 174.589 206.364C172.619 206.519 169.406 207.083 164.181 212.473C164.116 212.555 164.047 212.623 163.983 212.707C161.242 216.271 158.666 206.096 158.202 202.309C157.9 199.851 155.242 198.341 152.837 199.231L140.11 205.183C139.059 204.813 137.811 204.876 136.394 205.309C134.52 206.002 133.48 207.928 133.969 209.798L139.131 230.404L123.97 280.85H156.648L163.882 232.415Z" fill="#FFBE9D"/>
<path d="M188.986 186.084L178.885 205.878L173.835 204.475L148.446 225.127C146.285 226.884 143.118 226.603 141.302 224.492L131.635 213.26C131.635 213.26 151.127 204.863 154.732 197.913C158.337 190.963 154.171 189.386 154.171 189.386L163.344 178.962L188.986 186.084Z" fill="#0E4680"/>
<path d="M175.885 145.649C175.885 145.649 161.098 142.379 140.291 122.369C119.484 102.36 109.706 75.7885 107.159 75.9185C104.612 76.0478 93.4914 70.8845 72.3405 116.895C51.1895 162.904 59.5209 173.589 63.73 173.503C67.9391 173.416 96.5178 165.452 114.368 167.481C132.219 169.51 155.163 178.813 155.163 178.813L175.885 145.649Z" fill="#0E4680"/>
<path d="M207.296 170.728L202.252 180.319L199.992 184.615C196.893 190.509 189.723 192.944 183.675 190.159L151.982 179.116L170.44 136.979L202.103 153.854C208.181 157.092 210.502 164.632 207.296 170.728Z" fill="#0E4680"/>
<g opacity="0.4">
<path d="M207.296 170.728L202.252 180.319L199.992 184.615C196.893 190.509 189.723 192.944 183.675 190.159L151.982 179.116L170.44 136.979L202.103 153.854C208.181 157.092 210.502 164.632 207.296 170.728Z" fill="black"/>
</g>
<path d="M74.0485 117.733C62.7918 142.657 58.1059 164.867 63.5827 167.34C69.0589 169.814 82.6239 151.613 93.8807 126.689C105.137 101.766 109.823 79.5562 104.347 77.0829C98.8703 74.6097 85.3059 92.8088 74.0485 117.733Z" fill="#0E4680"/>
<g opacity="0.5">
<path d="M74.0485 117.733C62.7918 142.657 58.1059 164.867 63.5827 167.34C69.0589 169.814 82.6239 151.613 93.8807 126.689C105.137 101.766 109.823 79.5562 104.347 77.0829C98.8703 74.6097 85.3059 92.8088 74.0485 117.733Z" fill="black"/>
</g>
<path d="M210.016 184.586L201.426 181.888L206.742 171.781L213.184 175.785L210.016 184.586Z" fill="#0E4680"/>
<g opacity="0.6">
<path d="M206.742 171.781L201.426 181.888L203.191 182.443L207.513 172.26L206.742 171.781Z" fill="black"/>
</g>
<path d="M200.823 174.113C200.697 174.39 196.41 172.724 191.249 170.391C186.083 168.057 182.001 165.941 182.127 165.663C182.252 165.386 186.538 167.052 191.702 169.385C196.865 171.719 200.948 173.835 200.823 174.113Z" fill="#0E4680"/>
<path d="M203.465 168.093C203.329 168.367 199.45 166.732 194.799 164.442C190.147 162.151 186.486 160.073 186.621 159.799C186.756 159.526 190.633 161.161 195.287 163.452C199.937 165.742 203.599 167.82 203.465 168.093Z" fill="#0E4680"/>
<path d="M197.491 180.427C197.445 180.573 196.425 180.338 194.797 179.835C193.984 179.584 193.02 179.266 191.954 178.897C190.895 178.513 189.796 177.957 188.618 177.423C183.918 175.242 180.33 173.106 180.447 172.853C180.586 172.554 184.422 174.261 189.078 176.421C190.246 176.95 191.329 177.533 192.35 177.96C193.376 178.374 194.295 178.761 195.063 179.102C196.599 179.784 197.535 180.281 197.491 180.427Z" fill="#0E4680"/>
<path d="M96.9982 112.19C96.9982 112.19 84.1466 104.221 77.115 121.584C70.0839 138.947 83.6051 141.802 83.6051 141.802C89.1387 133.221 93.6336 123.388 96.9982 112.19Z" fill="#0E4680"/>
<g opacity="0.5">
<path d="M110.666 91.4967C110.741 91.5096 110.558 92.6886 110.163 94.8138C109.756 96.9354 109.182 100.015 108.357 103.797C107.814 105.659 107.22 107.693 106.583 109.873C106.261 110.966 105.927 112.094 105.585 113.257C105.412 113.84 105.237 114.429 105.06 115.027C104.868 115.62 104.618 116.201 104.394 116.801C103.468 119.19 102.497 121.695 101.491 124.293C101.238 124.942 100.983 125.597 100.726 126.257C100.476 126.92 100.123 127.544 99.8227 128.198C99.1944 129.493 98.5575 130.807 97.9125 132.137C97.2657 133.466 96.6263 134.779 95.9962 136.074C95.6684 136.714 95.3949 137.378 95.029 137.986C94.6687 138.596 94.3114 139.202 93.9572 139.802C92.5379 142.199 91.1679 144.512 89.862 146.717C89.5282 147.264 89.2263 147.82 88.8783 148.338C88.5173 148.848 88.1613 149.351 87.8095 149.847C87.1067 150.837 86.4235 151.799 85.7632 152.729C84.4412 154.579 83.208 156.305 82.0789 157.885C79.6216 160.863 77.5605 163.211 76.1449 164.841C74.7207 166.465 73.9052 167.339 73.8466 167.291C73.7881 167.243 74.4916 166.275 75.8135 164.568C77.1847 162.829 79.1104 160.388 81.4752 157.39C82.5624 155.798 83.7488 154.058 85.0215 152.194C85.6609 151.262 86.3225 150.298 87.0038 149.307C87.3451 148.812 87.6912 148.309 88.0424 147.8C88.3805 147.282 88.675 146.724 89.0002 146.178C90.2797 143.977 91.6219 141.669 93.0129 139.277C93.3621 138.679 93.7133 138.077 94.0687 137.469C94.4303 136.864 94.6989 136.205 95.0229 135.567C95.6463 134.281 96.2795 132.976 96.9195 131.655C97.5614 130.335 98.1959 129.031 98.8211 127.746C99.1211 127.098 99.4747 126.479 99.7248 125.821C99.9829 125.167 100.239 124.518 100.494 123.875C101.514 121.304 102.499 118.822 103.437 116.457C103.665 115.864 103.921 115.288 104.119 114.702C104.303 114.111 104.484 113.527 104.663 112.951C105.022 111.802 105.37 110.684 105.708 109.605C106.387 107.45 107.021 105.439 107.602 103.599C108.495 99.894 109.222 96.8781 109.74 94.7295C110.266 92.6369 110.592 91.4838 110.666 91.4967Z" fill="black"/>
</g>
<g opacity="0.4">
<path d="M134.715 211.88C135.887 214.009 137.083 216.17 138.819 217.871C140.553 219.572 142.936 220.777 145.354 220.533C147.771 220.29 150.062 218.282 150.088 215.852C151.248 216.724 153.026 216.251 153.988 215.164C154.949 214.077 155.261 212.565 155.376 211.118C156.952 212.048 159.144 211.31 160.195 209.814C161.247 208.317 161.312 206.3 160.802 204.542C160.293 202.786 159.275 201.227 158.273 199.696C159.486 199.794 160.771 199.879 161.857 199.329C162.943 198.779 163.675 197.343 163.042 196.303C162.671 195.693 161.957 195.39 161.276 195.177C159.374 194.582 158.04 194.105 156.06 194.335C155.6 194.339 156.852 199.556 144.427 206.69C137.092 210.904 134.715 211.88 134.715 211.88Z" fill="black"/>
</g>
<path d="M162.694 219.418C162.686 219.475 161.858 219.317 160.517 219.352C159.184 219.382 157.321 219.675 155.481 220.558C153.64 221.44 152.245 222.71 151.386 223.73C150.518 224.753 150.124 225.497 150.074 225.467C150.056 225.458 150.136 225.263 150.318 224.928C150.498 224.593 150.791 224.125 151.211 223.587C152.039 222.51 153.448 221.176 155.342 220.268C157.235 219.36 159.158 219.097 160.515 219.126C161.198 219.136 161.747 219.2 162.121 219.27C162.495 219.337 162.697 219.398 162.694 219.418Z" fill="#EB996E"/>
<path d="M135.525 208.572C137.526 210.494 138.895 212.616 140.994 214.552C141.949 215.432 143.43 217.099 144.709 217.321C145.988 217.543 146.807 217.373 147.313 216.178C147.722 215.21 146.987 213.887 146.478 213.089C145.141 210.991 143.862 209.352 142.86 207.72C142.391 206.957 142.999 206.799 143.22 207.152C144.183 208.151 145.621 209.016 146.483 210.104C147.664 211.593 147.879 213.564 150.97 212.94C151.379 212.858 151.787 212.717 152.118 212.464C153.282 211.573 153.331 210.024 152.841 208.784C152.457 207.812 151.783 206.987 151.12 206.18C152.435 207.666 153.872 209.23 155.964 209.399C157.18 209.497 158.402 208.931 158.893 207.813C159.513 206.408 158.625 205.049 157.734 203.95C156.155 202.002 154.394 200.203 152.48 198.583C151.768 197.98 150.86 197.642 149.926 197.636C148.844 197.629 147.489 197.832 146.821 198.774C145.607 200.482 145.981 201.993 145.981 201.993C145.981 201.993 143.267 200.617 141.086 202.057C138.906 203.496 138.366 205.97 138.366 205.97L135.525 208.572Z" fill="#FFBE9D"/>
<path d="M149.967 197.04C149.127 196.194 148.931 194.647 149.583 193.37C150.044 192.465 150.627 191.586 151.217 191.387C153.799 190.516 165.078 192.467 164.975 194.971C164.869 197.541 164.049 198.673 157.927 197.789C156.85 197.633 155.16 197.421 155.16 197.421L153.683 199.639L149.967 197.04Z" fill="#FFBE9D"/>
<path d="M151.987 207.522C151.898 207.577 151.039 205.826 149.286 204.256C147.552 202.665 145.725 201.981 145.771 201.887C145.784 201.852 146.255 201.973 146.965 202.308C147.674 202.64 148.61 203.212 149.502 204.018C150.391 204.826 151.051 205.701 151.452 206.375C151.854 207.049 152.021 207.506 151.987 207.522Z" fill="#EB996E"/>
<path d="M153.885 199.83C153.829 199.882 153.085 199.275 152.069 198.653C151.564 198.342 151.095 198.081 150.745 197.924C150.396 197.76 150.165 197.715 150.167 197.667C150.164 197.626 150.431 197.592 150.823 197.711C151.215 197.822 151.719 198.061 152.238 198.38C153.279 199.017 153.96 199.762 153.885 199.83Z" fill="#EB996E"/>
<path d="M155.779 197.503C155.771 197.57 154.79 197.599 153.606 197.258C153.019 197.078 152.523 196.795 152.216 196.53C151.906 196.266 151.777 196.046 151.808 196.02C151.867 195.965 152.568 196.631 153.7 196.952C154.82 197.276 155.795 197.396 155.779 197.503Z" fill="#EB996E"/>
<path d="M144.816 210.622C144.78 210.647 144.38 210.139 143.787 209.285C143.182 208.451 142.411 207.207 141.154 206.292C139.897 205.376 138.417 205.159 137.425 205.304C136.413 205.445 135.885 205.863 135.854 205.804C135.843 205.79 135.961 205.675 136.213 205.519C136.463 205.36 136.865 205.185 137.388 205.081C138.425 204.868 140.007 205.06 141.341 206.032C142.669 207.003 143.418 208.296 143.976 209.16C144.521 210.046 144.852 210.596 144.816 210.622Z" fill="#EB996E"/>
<path d="M153.445 235.57C153.455 235.658 151.39 235.955 148.835 236.233C146.279 236.51 144.199 236.664 144.19 236.576C144.18 236.488 146.244 236.191 148.801 235.913C151.356 235.636 153.436 235.482 153.445 235.57Z" fill="#EB996E"/>
<path d="M250.485 30.7041L251.18 31.9755L252.451 32.6704L251.18 33.3665L250.485 34.6373L249.79 33.3665L248.518 32.6704L249.79 31.9755L250.485 30.7041Z" fill="#0E4680"/>
<path d="M265.025 62.2246L265.721 63.496L266.992 64.1915L265.721 64.887L265.025 66.1584L264.33 64.887L263.058 64.1915L264.33 63.496L265.025 62.2246Z" fill="#0E4680"/>
<path d="M31.9721 146.32L32.6676 147.592L33.939 148.288L32.6676 148.983L31.9721 150.254L31.2773 148.983L30.0059 148.288L31.2773 147.592L31.9721 146.32Z" fill="#0E4680"/>
<path d="M231.408 38.5386L233.014 41.4744L235.95 43.0803L233.014 44.6863L231.408 47.6227L229.802 44.6863L226.866 43.0803L229.802 41.4744L231.408 38.5386Z" fill="#0E4680"/>
<path d="M45.0055 126.34L46.6078 129.27L49.5375 130.872L46.6078 132.474L45.0055 135.404L43.4033 132.474L40.4736 130.872L43.4033 129.27L45.0055 126.34Z" fill="#0E4680"/>
<path d="M268.981 196.236L270.583 199.166L273.513 200.768L270.583 202.371L268.981 205.301L267.379 202.371L264.449 200.768L267.379 199.166L268.981 196.236Z" fill="#0E4680"/>
</svg>
