<svg width="18" height="18" viewBox="0 0 18 18" fill="none" xmlns="http://www.w3.org/2000/svg">
<path d="M9 18C7.47273 18 6.06818 17.6523 4.78636 16.9568C3.50455 16.2614 2.45455 15.3341 1.63636 14.175V16.3636H0V11.4545H4.90909V13.0909H2.88409C3.53864 14.0727 4.40114 14.8636 5.47159 15.4636C6.54205 16.0636 7.71818 16.3636 9 16.3636C10.0227 16.3636 10.9807 16.1693 11.8739 15.7807C12.767 15.392 13.5443 14.867 14.2057 14.2057C14.867 13.5443 15.392 12.767 15.7807 11.8739C16.1693 10.9807 16.3636 10.0227 16.3636 9H18C18 10.2409 17.7648 11.4068 17.2943 12.4977C16.8239 13.5886 16.1795 14.5432 15.3614 15.3614C14.5432 16.1795 13.5886 16.8239 12.4977 17.2943C11.4068 17.7648 10.2409 18 9 18ZM0 9C0 7.75909 0.235227 6.59318 0.705682 5.50227C1.17614 4.41136 1.82045 3.45682 2.63864 2.63864C3.45682 1.82045 4.41136 1.17614 5.50227 0.705682C6.59318 0.235227 7.75909 0 9 0C10.5273 0 11.9318 0.347727 13.2136 1.04318C14.4955 1.73864 15.5455 2.66591 16.3636 3.825V1.63636H18V6.54545H13.0909V4.90909H15.1159C14.4614 3.92727 13.5989 3.13636 12.5284 2.53636C11.458 1.93636 10.2818 1.63636 9 1.63636C7.97727 1.63636 7.01932 1.83068 6.12614 2.21932C5.23295 2.60795 4.45568 3.13295 3.79432 3.79432C3.13295 4.45568 2.60795 5.23295 2.21932 6.12614C1.83068 7.01932 1.63636 7.97727 1.63636 9H0Z" fill="#484C52"/>
</svg>
