<svg width="201" height="133" viewBox="0 0 201 133" fill="none" xmlns="http://www.w3.org/2000/svg">
<path d="M45.9164 15.8184C47.2306 18.7981 45.8772 22.2776 42.8935 23.59C39.9098 24.9025 36.4257 23.5509 35.1114 20.5711C33.7973 17.5915 35.1507 14.1119 38.1343 12.7995C41.1181 11.487 44.6022 12.8386 45.9164 15.8184Z" fill="#D4DEFF"/>
<path d="M42.0098 22.5241L41.5566 21.4965C40.9611 21.7463 40.2691 21.8321 39.8003 21.7345L39.7441 20.9452C40.2186 21.0281 40.8337 20.9883 41.4042 20.7374C42.1276 20.4192 42.4327 19.7868 42.1769 19.2069C41.9301 18.6473 41.3802 18.4762 40.4916 18.5025C39.2728 18.5526 38.4245 18.3669 38.0341 17.4817C37.6616 16.6372 37.98 15.7317 38.85 15.1669L38.3968 14.1392L39.0284 13.8613L39.4637 14.8483C40.084 14.5998 40.5735 14.5788 40.9452 14.6218L40.9867 15.4054C40.7189 15.3774 40.2025 15.3372 39.5505 15.6241C38.7659 15.9692 38.6769 16.5672 38.8564 16.9742C39.0897 17.5032 39.5834 17.6019 40.6314 17.5784C41.8692 17.5441 42.6324 17.8402 43.0318 18.7458C43.3863 19.5496 43.158 20.549 42.1849 21.1835L42.6515 22.2418L42.0098 22.5241Z" fill="white"/>
<path d="M23.4256 48.9468L18.4453 43.3609C18.4453 43.3609 20.2771 39.44 25.6553 39.3007C28.989 39.2146 31.9337 35.8584 31.9337 35.8584L36.9403 41.4738C36.9403 41.4738 33.7007 46.076 29.8881 46.1104C25.8559 46.1468 23.4256 48.9468 23.4256 48.9468Z" fill="#D4DEFF"/>
<path d="M30.5418 41.2354C31.0641 42.6742 30.1248 44.3339 28.444 44.9423C26.7632 45.5508 24.9772 44.8777 24.4549 43.4389C23.9327 42.0001 24.8719 40.3405 26.5527 39.732C28.2336 39.1234 30.0196 39.7966 30.5418 41.2354Z" fill="#E3EAFF"/>
<path d="M179.163 55.3057L176.755 48.2236C176.755 48.2236 172.436 47.8802 169.662 52.4833C167.942 55.3366 163.566 56.2387 163.566 56.2387L165.986 63.3582C165.986 63.3582 171.593 62.8147 173.504 59.5198C175.525 56.0354 179.163 55.3057 179.163 55.3057Z" fill="#D4DEFF"/>
<path d="M168.936 57.6822C169.932 58.8457 171.841 58.8487 173.2 57.6889C174.559 56.5291 174.854 54.6455 173.859 53.482C172.863 52.3185 170.954 52.3155 169.595 53.4754C168.236 54.6352 167.941 56.5186 168.936 57.6822Z" fill="#E3EAFF"/>
<path d="M201.006 133H0.994444C0.445174 133 0 132.591 0 132.087V131.913C0 131.409 0.445256 131 0.994444 131H201.006C201.555 131 202 131.409 202 131.913V132.087C202 132.591 201.555 133 201.006 133Z" fill="#95A6DB"/>
<path d="M110.949 60.4371C111.881 63.5988 110.071 66.9165 106.905 67.8475C103.739 68.7784 100.416 66.97 99.4844 63.8083C98.5522 60.6465 100.363 57.3288 103.529 56.3979C106.695 55.4669 110.017 57.2754 110.949 60.4371Z" fill="white"/>
<path d="M106.156 66.6632L105.834 65.5728C105.204 65.7463 104.498 65.7428 104.04 65.5841L104.087 64.7845C104.552 64.9292 105.175 64.9691 105.78 64.791C106.548 64.5653 106.936 63.9701 106.755 63.3547C106.58 62.7609 106.05 62.5177 105.154 62.4291C103.924 62.3215 103.097 62.0251 102.82 61.0859C102.556 60.1898 102.993 59.322 103.94 58.8676L103.618 57.7773L104.289 57.5801L104.597 58.6274C105.252 58.4582 105.747 58.5007 106.114 58.592L106.054 59.384C105.789 59.3212 105.275 59.2141 104.584 59.4175C103.751 59.6622 103.584 60.251 103.711 60.683C103.877 61.2444 104.36 61.4074 105.415 61.5195C106.662 61.6455 107.39 62.0416 107.673 63.0025C107.924 63.8555 107.565 64.8292 106.506 65.3401L106.837 66.4629L106.156 66.6632Z" fill="#E3EAFF"/>
<path d="M97.5505 74.5508L90.3364 79.658L67.6506 95.7184L65.3018 97.3813L67.0897 99.9219L77.0096 114.019L94.3564 101.713L103.188 95.4483L103.292 95.3753L104.186 83.9809L97.5505 74.5508Z" fill="#3F964F"/>
<path d="M102.845 88.03L98.3539 81.6476C96.8053 82.7345 94.6674 82.3619 93.5787 80.8154L72.5486 95.7715C73.6371 97.3183 73.2639 99.4539 71.7148 100.541L76.2065 106.923C77.7554 105.837 79.8931 106.209 80.9817 107.755L102.012 92.7993C100.923 91.2525 101.296 89.1172 102.845 88.03Z" fill="#4EAD60"/>
<path d="M92.8818 90.5788C91.0749 88.011 87.5256 87.3923 84.9544 89.1969C82.3831 91.0015 81.7636 94.546 83.5706 97.1137C85.3776 99.6816 88.9269 100.3 91.4981 98.4957C94.0694 96.6911 94.6889 93.1466 92.8818 90.5788Z" fill="#3F964F"/>
<path d="M104.187 83.9814L97.7642 90.1147L103.188 95.4489L103.279 95.5388L103.292 95.3759L104.187 83.9814Z" fill="#3F964F"/>
<path opacity="0.2" d="M100.922 97.0387L97.7642 90.1143L103.188 95.4485L100.922 97.0387Z" fill="#193F1E"/>
<path opacity="0.2" d="M104.187 83.9819L97.7642 90.1152L103.746 83.3564L104.187 83.9819Z" fill="#193F1E"/>
<path opacity="0.2" d="M90.3364 79.6582L67.6505 95.7185L67.0896 99.9221L77.0095 114.019L94.3563 101.713L93.4705 98.3615C93.1358 97.0951 90.8879 96.5354 88.0409 96.8565L90.3364 79.6582Z" fill="#193F1E"/>
<path d="M70.2208 68.074L63.9397 115.141L84.1226 117.827L90.4037 70.7603L70.2208 68.074Z" fill="#3F964F"/>
<path d="M83.7366 73.3256L75.9939 72.2949C75.7438 74.1687 74.0199 75.4854 72.1436 75.236L67.6724 108.73C69.549 108.98 70.8677 110.702 70.6175 112.576L78.3603 113.606C78.6107 111.733 80.3343 110.416 82.2106 110.665L86.6818 77.1712C84.8053 76.9214 83.4865 75.1998 83.7366 73.3256Z" fill="#4EAD60"/>
<path d="M78.2995 87.5212C75.1843 87.1065 72.3225 89.2923 71.9072 92.4032C71.492 95.5143 73.6807 98.3724 76.7959 98.787C79.911 99.2017 82.7729 97.0158 83.1881 93.9049C83.6033 90.7939 81.4146 87.9358 78.2995 87.5212Z" fill="#3F964F"/>
<path d="M84.4163 98.4863L65.0229 103.598L70.2191 123.26L89.6125 118.148L85.9557 104.311C89.8301 103.275 92.6204 101.151 92.1976 99.5511C91.7747 97.9512 88.2982 97.4785 84.4163 98.4867V98.4863Z" fill="#3F964F"/>
<path d="M70.3702 105.304L74.0264 119.138L95.8259 113.392L92.1697 99.5576L70.3702 105.304Z" fill="#4EAD60"/>
<path d="M80.5459 104.773C77.8318 105.488 76.2122 108.265 76.9286 110.976C77.645 113.687 80.4259 115.304 83.1401 114.588C85.8543 113.873 87.4737 111.096 86.7574 108.385C86.041 105.675 83.2601 104.057 80.5459 104.773Z" fill="#3F964F"/>
<path opacity="0.2" d="M84.4162 98.4864L82.4297 99.0099L87.6258 118.672L96.6239 116.3L92.1975 99.5511C91.7746 97.9512 88.2981 97.4785 84.4162 98.4867L84.4162 98.4864Z" fill="#193F1E"/>
<path d="M92.1975 99.5508C92.6203 101.151 89.83 103.275 85.9556 104.311L91.1519 123.973L91.1525 123.973C95.0265 122.937 97.8165 120.812 97.3936 119.212L92.1975 99.5508Z" fill="#3F964F"/>
<path d="M93.1354 103.099C93.3224 103.806 92.8445 104.598 91.9681 105.212C92.2278 106.304 91.6232 107.395 90.5975 107.665L90.5925 107.666L93.2197 117.607L93.2246 117.606C94.1666 117.358 95.1414 117.886 95.5373 118.808C96.4265 118.191 96.9131 117.393 96.7246 116.68L93.1354 103.099Z" fill="#4EAD60"/>
<path d="M69.1287 130.713L40.5974 130.731C36.0973 130.734 32.447 127.093 32.4441 122.599L32.3999 52.8724C32.3971 48.3782 36.0428 44.7328 40.543 44.7299L69.0743 44.7119C73.5744 44.709 77.2248 48.3499 77.2276 52.8441L77.2718 122.571C77.2747 127.065 73.6289 130.71 69.1287 130.713Z" fill="#2C2858"/>
<path d="M69.4233 129.32L40.3023 129.338C37.1378 129.34 34.5709 126.78 34.5689 123.619L34.5237 52.3653C34.5217 49.2051 37.0854 46.6414 40.25 46.6395L69.371 46.6211C72.5355 46.6191 75.1024 49.1794 75.1044 52.3397L75.1495 123.594C75.1516 126.754 72.5878 129.318 69.4233 129.32Z" fill="#95A6DB"/>
<path d="M32.1363 67.5283C31.4342 67.5283 30.865 66.9599 30.865 66.2587V59.6759C30.865 58.9746 31.4342 58.4062 32.1363 58.4062C32.8385 58.4062 33.4077 58.9747 33.4077 59.6759V66.2587C33.4076 66.9599 32.8384 67.5283 32.1363 67.5283Z" fill="#2C2858"/>
<path d="M77.4721 67.5283C76.7699 67.5283 76.2007 66.9599 76.2007 66.2587V59.6759C76.2007 58.9746 76.7699 58.4062 77.4721 58.4062C78.1742 58.4062 78.7434 58.9747 78.7434 59.6759V66.2587C78.7434 66.9599 78.1742 67.5283 77.4721 67.5283Z" fill="#2C2858"/>
<path d="M146.341 130.713L117.81 130.731C113.31 130.734 109.659 127.093 109.656 122.599L109.612 52.8724C109.609 48.3782 113.255 44.7328 117.755 44.7299L146.287 44.7119C150.787 44.709 154.437 48.3499 154.44 52.8441L154.484 122.571C154.487 127.065 150.841 130.71 146.341 130.713Z" fill="#2C2858"/>
<path d="M146.635 129.32L117.514 129.338C114.35 129.34 111.783 126.78 111.781 123.619L111.736 52.3653C111.734 49.2051 114.297 46.6414 117.462 46.6395L146.583 46.6211C149.747 46.6191 152.314 49.1794 152.316 52.3397L152.361 123.594C152.363 126.754 149.8 129.318 146.635 129.32Z" fill="#95A6DB"/>
<path d="M109.348 67.5283C108.646 67.5283 108.077 66.9599 108.077 66.2587V59.6759C108.077 58.9746 108.646 58.4062 109.348 58.4062C110.05 58.4062 110.62 58.9747 110.62 59.6759V66.2587C110.62 66.9599 110.05 67.5283 109.348 67.5283Z" fill="#2C2858"/>
<path d="M154.684 67.5283C153.982 67.5283 153.413 66.9599 153.413 66.2587V59.6759C153.413 58.9746 153.982 58.4062 154.684 58.4062C155.386 58.4062 155.956 58.9747 155.956 59.6759V66.2587C155.956 66.9599 155.386 67.5283 154.684 67.5283Z" fill="#2C2858"/>
<path d="M109.348 77.2657C108.646 77.2657 108.077 76.6972 108.077 75.996V69.4131C108.077 68.7119 108.646 68.1436 109.348 68.1436C110.05 68.1436 110.62 68.712 110.62 69.4131V75.996C110.62 76.6972 110.05 77.2657 109.348 77.2657Z" fill="#2C2858"/>
<path d="M19.0249 126.283C18.0663 130.303 14.6397 128.092 15.3563 130.633C15.4092 130.82 15.5874 130.946 15.7821 130.953L17.7941 131.03C17.9882 131.037 18.1796 130.982 18.3399 130.872C19.4014 130.146 20.1216 129.124 22.4143 129C22.3968 128.023 22.4413 126.627 22.1179 126.128L19.0249 126.283Z" fill="#0E6A41"/>
<path d="M24.3273 98.0723C24.3273 98.0723 18.4756 106.985 17.6678 109.758C16.8599 112.53 18.5498 117.228 18.2441 126.695C20.0731 127.17 22.5117 126.762 22.5117 126.762C22.5117 126.762 23.9793 114.887 22.253 112.082C24.8396 108.141 31.3369 99.5352 31.3369 99.5352L24.3273 98.0723Z" fill="#201D40"/>
<path d="M27.5725 127.577C26.0835 129.601 22.3671 128.404 22.5161 131.121C28.1492 131.031 30.4909 131.044 30.4909 131.044C30.4774 130.419 30.3516 128.939 30.216 128.36L27.5725 127.577Z" fill="#0E6A41"/>
<path d="M25.8271 96.2695C25.8271 96.2695 23.9612 110.811 24.392 113.666C24.8227 116.521 26.1572 118.756 26.2041 128.228C28.0494 128.634 30.8694 128.999 30.8694 128.999C30.8694 128.999 32.0585 117.574 29.6127 114.429C30.3059 109.767 33.6092 98.0415 33.6092 98.0415L25.8271 96.2695Z" fill="#2C2858"/>
<path d="M16.2677 89.8685L13.9929 87.321C13.9433 87.266 13.8732 87.2341 13.7991 87.2328L11.926 87.2217C11.8727 87.2207 11.7075 87.5165 11.7433 87.5561L13.3479 88.9801C13.3553 88.9882 13.3647 88.9942 13.3754 88.9974L16.1272 90.017C16.1862 90.035 16.309 89.9143 16.2677 89.8685Z" fill="#C4204A"/>
<path d="M16.0939 90.0391L13.9267 87.6374C13.8772 87.5824 13.807 87.5505 13.7329 87.5492L11.8019 87.5147C11.7485 87.5136 11.7198 87.5768 11.7557 87.6163L13.2816 89.2964C13.2891 89.3046 13.2985 89.3106 13.3091 89.3138L16.031 90.1381C16.09 90.1559 16.1353 90.0849 16.0939 90.0391Z" fill="#E62552"/>
<path d="M20.376 92.23L18.8088 91.4627C18.8088 91.4627 17.2628 89.9002 17.0332 89.551C16.6892 89.3772 16.0386 88.9396 15.8924 88.9229C15.746 88.9062 15.4464 88.9513 15.4464 88.9513L16.1721 89.7757C16.1721 89.7757 15.8274 89.844 15.3877 89.5651C14.948 89.2861 14.1712 88.5381 13.7908 88.6832C13.6559 88.8023 13.6559 88.8023 13.6559 88.8023C13.6559 88.8023 13.4157 88.5462 13.1892 88.6413C12.9627 88.7366 13.4131 89.8645 14.6911 91.06C14.7758 91.3792 15.1969 91.9386 15.1969 91.9386L17.7811 92.8451L20.376 92.23Z" fill="#F37A50"/>
<path d="M13.5738 87.9994C13.6656 88.0911 13.7976 88.1079 13.8685 88.037C13.9395 87.9662 13.9226 87.8342 13.8308 87.7427C13.739 87.6509 13.6071 87.6341 13.5361 87.705C13.4651 87.7759 13.482 87.9076 13.5738 87.9994Z" fill="#C4204A"/>
<path d="M27.6745 80.7204C27.2094 81.3223 30.852 81.9769 31.3402 80.7259C31.8285 79.475 30.99 76.0342 30.99 76.0342L27.6689 76.7382C27.6689 76.7382 28.2797 79.9369 27.6745 80.7204Z" fill="#F37A50"/>
<path d="M31.716 73.2258C31.9956 75.8869 30.5258 78.2219 28.433 78.4412C26.3402 78.6606 24.4171 76.6811 24.1374 74.0201C23.8578 71.359 25.3276 69.024 27.4204 68.8047C29.5132 68.5854 31.4365 70.5648 31.716 73.2258Z" fill="#F37A50"/>
<path d="M25.3741 74.8035C25.3 75.0094 25.0729 75.1164 24.8667 75.0424C24.6606 74.9687 24.5534 74.7418 24.6274 74.5359C24.7015 74.3299 24.9286 74.223 25.1348 74.2968C25.3409 74.3707 25.4481 74.5976 25.3741 74.8035Z" fill="black"/>
<path d="M27.9752 74.2359C27.8951 74.4587 27.6492 74.5746 27.426 74.4945C27.2028 74.4146 27.0869 74.1689 27.167 73.9461C27.2471 73.7233 27.493 73.6075 27.7162 73.6874C27.9393 73.7674 28.0554 74.013 27.9752 74.2359Z" fill="black"/>
<path d="M26.1311 74.7207C26.0471 75.3443 25.9302 76.1118 25.9302 76.1118C25.9302 76.1118 26.3406 76.544 27.0212 76.2451C26.6808 76.2563 26.3101 76.1917 26.254 75.7574C26.198 75.3229 26.1311 74.7207 26.1311 74.7207Z" fill="#DE623C"/>
<path d="M25.2575 73.8995C25.2129 73.9261 25.1559 73.9294 25.1069 73.903C25.102 73.9006 24.9368 73.8163 24.782 73.8753C24.6728 73.9169 24.5855 74.024 24.5224 74.1935C24.4931 74.2722 24.4055 74.3123 24.3267 74.283C24.248 74.2539 24.2078 74.1663 24.2371 74.0877C24.3328 73.8306 24.4809 73.6631 24.6776 73.5899C24.9655 73.4825 25.2405 73.6296 25.252 73.636C25.3258 73.6762 25.3528 73.7685 25.3126 73.8422C25.2992 73.8667 25.2798 73.886 25.2575 73.8995Z" fill="#020205"/>
<path d="M27.2362 73.4656C27.2871 73.4761 27.342 73.4604 27.3796 73.4194C27.3833 73.4154 27.5116 73.2816 27.6772 73.2864C27.794 73.2898 27.9118 73.3622 28.0272 73.5015C28.0808 73.5664 28.1767 73.5753 28.2415 73.5218C28.3062 73.4683 28.3153 73.3724 28.2617 73.3079C28.0867 73.0966 27.8916 72.9871 27.6817 72.9826C27.3745 72.9758 27.1634 73.2051 27.1545 73.2149C27.0982 73.2771 27.103 73.3733 27.1653 73.4296C27.1861 73.4483 27.2107 73.4603 27.2362 73.4656Z" fill="#020205"/>
<path d="M30.9383 74.9167C29.5596 73.764 29.9403 72.0029 29.9403 72.0029C29.2717 72.0467 29.0844 72.3321 29.0844 72.3321C28.5468 71.7155 28.6777 71.135 28.6777 71.135C27.2287 70.9774 26.8045 72.001 25.6985 72.6049C24.184 73.432 22.009 73.3249 21.2888 71.4003C21.1845 71.1217 21.4495 70.852 21.7316 70.9473C21.9932 71.0359 22.3199 71.0764 22.6835 70.9677C22.6835 70.9677 22.2409 70.6766 22.0809 70.1523C21.9926 69.8631 22.2925 69.6136 22.5675 69.7399C22.9798 69.9292 23.6761 70.0256 24.7339 69.5175C25.4379 69.1794 26.8154 67.5367 27.9352 67.4838C28.8507 67.4407 29.7347 67.9908 30.3135 68.9631C30.3135 68.9631 32.4976 68.6113 33.3405 70.8892C34.1686 73.1271 31.0644 76.5843 31.0644 76.5843C31.0644 76.5843 31.3027 75.2709 30.9383 74.9167Z" fill="#020205"/>
<path d="M26.2998 77.2632C26.2135 77.2075 26.2349 77.0763 26.3348 77.0519C26.5886 76.9899 27.0053 76.879 27.3888 76.7355C27.7723 76.5919 28.1593 76.402 28.3914 76.282C28.4827 76.2348 28.5852 76.3196 28.5568 76.4182C28.4697 76.7217 28.2406 77.2188 27.6528 77.4387C27.0649 77.6587 26.5653 77.4347 26.2998 77.2632Z" fill="white"/>
<path d="M29.9567 73.3485C29.5082 73.7905 29.4382 74.4458 29.8003 74.8123C30.1624 75.1789 30.8195 75.1178 31.268 74.6758C31.7166 74.234 31.7865 73.5786 31.4243 73.212C31.0623 72.8456 30.4052 72.9067 29.9567 73.3485Z" fill="#F37A50"/>
<path d="M30.3923 74.6235C30.3727 74.6164 30.3545 74.605 30.3392 74.5891C30.1199 74.3594 30.0685 74.0785 30.202 73.8374C30.3388 73.5906 30.6302 73.4507 30.8951 73.5047C30.9696 73.52 31.0177 73.5927 31.0024 73.667C30.9872 73.7414 30.9144 73.7895 30.8398 73.7743C30.6947 73.7447 30.5205 73.8308 30.4431 73.9706C30.3688 74.1047 30.4027 74.2569 30.5385 74.3991C30.591 74.454 30.5889 74.5411 30.5339 74.5936C30.495 74.6307 30.4398 74.6406 30.3923 74.6235Z" fill="#DE623C"/>
<path d="M23.626 99.1396C26.2239 99.669 30.8949 100.583 33.3652 99.6212C34.3001 98.2808 34.5369 90.7012 34.5369 90.7012C34.8073 82.8995 33.8705 81.7419 31.7577 79.1279C30.8712 79.5347 28.652 79.8815 27.6764 79.8892C27.6764 79.8892 25.4657 82.9543 25.0344 85.1801C24.5971 87.4371 24.5476 91.4497 24.507 93.7482C24.4618 96.3007 23.9568 97.5317 23.626 99.1396Z" fill="#3F964F"/>
<path d="M32.0656 81.4963C33.5853 84.4505 33.2411 87.7222 28.8226 94.1631C25.7282 93.8935 25.1213 91.3178 25.1213 91.3178C25.1213 91.3178 25.9716 88.12 27.076 84.0973C28.1804 80.0747 31.4006 80.2033 32.0656 81.4963Z" fill="#0E6A41"/>
<path d="M18.5565 90.7021L25.1821 91.2302C25.1821 91.2302 28.0235 90.7126 28.8226 94.164C27.4004 95.2697 23.7295 95.6846 17.7083 93.4521C18.3453 92.5859 18.5565 90.7021 18.5565 90.7021Z" fill="#0E6A41"/>
<path d="M27.6965 79.6707L27.6335 81.4504L32.1161 79.5734L31.5733 78.1338L27.6965 79.6707Z" fill="white"/>
<path d="M61.1523 36.5494C59.6875 39.8903 55.7879 41.4128 52.4425 39.9499C49.0971 38.487 47.5725 34.5926 49.0374 31.2516C50.5023 27.9107 54.4018 26.3882 57.7472 27.8511C61.0926 29.314 62.6172 33.2083 61.1523 36.5494Z" fill="#FABA23"/>
<path d="M60.0707 36.0767C58.7654 39.1371 54.8665 40.2798 52.1057 38.4306C50.3501 37.2882 49.3962 35.16 49.7252 33.0746C50.2386 29.5575 54.0996 27.4971 57.2736 28.9318C59.975 30.0867 61.2926 33.3415 60.0707 36.0767Z" fill="#FAD332"/>
<path d="M54.723 38.4611L54.7198 37.3382C54.0741 37.3289 53.4056 37.1307 53.0151 36.8538L53.2802 36.1081C53.6818 36.3738 54.2613 36.5835 54.8847 36.5816C55.6751 36.5795 56.2082 36.1221 56.2065 35.4884C56.2047 34.8769 55.7695 34.5001 54.9448 34.1689C53.808 33.7273 53.1051 33.2179 53.1024 32.2507C53.0998 31.3278 53.7547 30.6256 54.7785 30.4559L54.7754 29.333L55.4656 29.3311L55.4686 30.4095C56.1367 30.4298 56.5936 30.6065 56.917 30.7945L56.6407 31.5291C56.4065 31.3963 55.9494 31.153 55.237 31.1551C54.3798 31.1575 54.0583 31.6698 54.0596 32.1144C54.0612 32.6927 54.4739 32.9806 55.4436 33.378C56.5916 33.8418 57.1721 34.4183 57.1749 35.4078C57.1774 36.2861 56.5674 37.1106 55.4213 37.3028L55.4245 38.4591L54.723 38.4611Z" fill="#FABA23"/>
<path d="M73.0146 17.3921C71.5497 20.7331 67.6503 22.2556 64.3048 20.7927C60.9593 19.3298 59.4348 15.4355 60.8997 12.0944C62.3645 8.75339 66.2641 7.23098 69.6095 8.69386C72.955 10.1568 74.4795 14.0512 73.0146 17.3921Z" fill="#FABA23"/>
<path d="M71.933 16.9195C70.6277 19.9799 66.7287 21.1226 63.968 19.2734C62.2124 18.131 61.2585 16.0027 61.5875 13.9173C62.1009 10.4002 65.9619 8.33987 69.1359 9.77465C71.8373 10.9294 73.1548 14.1842 71.933 16.9195Z" fill="#FAD332"/>
<path d="M66.5853 19.3038L66.5822 18.1809C65.9364 18.1716 65.2679 17.9734 64.8774 17.6966L65.1425 16.9508C65.5441 17.2166 66.1236 17.4262 66.747 17.4244C67.5375 17.4223 68.0705 16.9649 68.0688 16.3311C68.0671 15.7196 67.6318 15.3429 66.8071 15.0116C65.6703 14.5701 64.9674 14.0606 64.9647 13.0934C64.9621 12.1706 65.617 11.4683 66.6407 11.2987L66.6376 10.1757L67.3278 10.1738L67.3309 11.2523C67.9989 11.2727 68.4558 11.4493 68.7792 11.6374L68.503 12.3719C68.2688 12.2392 67.8117 11.9959 67.0992 11.9979C66.2419 12.0003 65.9205 12.5126 65.9218 12.9573C65.9235 13.5354 66.3361 13.8233 67.3058 14.2209C68.4538 14.6846 69.0343 15.2612 69.0372 16.2506C69.0396 17.1289 68.4296 17.9534 67.2834 18.1456L67.2867 19.3019L66.5853 19.3038Z" fill="#FABA23"/>
<path d="M123.492 17.3921C122.028 20.7331 118.128 22.2556 114.783 20.7927C111.437 19.3298 109.913 15.4355 111.377 12.0944C112.842 8.75339 116.742 7.23098 120.087 8.69386C123.433 10.1568 124.957 14.0512 123.492 17.3921Z" fill="#FABA23"/>
<path d="M122.411 16.9195C121.105 19.9799 117.206 21.1226 114.446 19.2734C112.69 18.131 111.736 16.0027 112.065 13.9173C112.578 10.4002 116.439 8.33987 119.614 9.77465C122.315 10.9294 123.632 14.1842 122.411 16.9195Z" fill="#FAD332"/>
<path d="M117.063 19.3038L117.06 18.1809C116.414 18.1716 115.745 17.9734 115.355 17.6966L115.62 16.9508C116.022 17.2166 116.601 17.4262 117.225 17.4244C118.015 17.4223 118.548 16.9649 118.546 16.3311C118.545 15.7196 118.109 15.3429 117.285 15.0116C116.148 14.5701 115.445 14.0606 115.442 13.0934C115.44 12.1706 116.095 11.4683 117.118 11.2987L117.115 10.1757L117.805 10.1738L117.808 11.2523C118.476 11.2727 118.933 11.4493 119.257 11.6374L118.98 12.3719C118.746 12.2392 118.289 11.9959 117.577 11.9979C116.719 12.0003 116.398 12.5126 116.399 12.9573C116.401 13.5354 116.814 13.8233 117.783 14.2209C118.931 14.6846 119.512 15.2612 119.515 16.2506C119.517 17.1289 118.907 17.9534 117.761 18.1456L117.764 19.3019L117.063 19.3038Z" fill="#FABA23"/>
<path d="M136.968 36.5494C135.504 39.8903 131.604 41.4128 128.259 39.9499C124.913 38.487 123.389 34.5926 124.854 31.2516C126.318 27.9107 130.218 26.3882 133.563 27.8511C136.909 29.314 138.433 33.2083 136.968 36.5494Z" fill="#FABA23"/>
<path d="M135.887 36.0767C134.582 39.1371 130.683 40.2798 127.922 38.4306C126.166 37.2882 125.212 35.16 125.541 33.0746C126.055 29.5575 129.916 27.4971 133.09 28.9318C135.791 30.0867 137.109 33.3415 135.887 36.0767Z" fill="#FAD332"/>
<path d="M130.539 38.4611L130.536 37.3382C129.89 37.3289 129.222 37.1307 128.831 36.8538L129.096 36.1081C129.498 36.3738 130.077 36.5835 130.701 36.5816C131.491 36.5795 132.024 36.1221 132.022 35.4884C132.021 34.8769 131.585 34.5001 130.761 34.1689C129.624 33.7273 128.921 33.2179 128.918 32.2507C128.916 31.3278 129.571 30.6256 130.594 30.4559L130.591 29.333L131.281 29.3311L131.284 30.4095C131.953 30.4298 132.41 30.6065 132.733 30.7945L132.457 31.5291C132.222 31.3963 131.765 31.153 131.053 31.1551C130.196 31.1575 129.874 31.6698 129.875 32.1144C129.877 32.6927 130.29 32.9806 131.259 33.378C132.407 33.8418 132.988 34.4183 132.991 35.4078C132.993 36.2861 132.383 37.1106 131.237 37.3028L131.24 38.4591L130.539 38.4611Z" fill="#FABA23"/>
<path d="M100.207 9.25436C98.7422 12.5953 94.8427 14.1179 91.4972 12.6549C88.1517 11.192 86.6272 7.2977 88.0921 3.95673C89.5569 0.61569 93.4564 -0.906712 96.8019 0.556167C100.147 2.01912 101.672 5.91339 100.207 9.25436Z" fill="#FABA23"/>
<path d="M99.1254 8.78084C97.8201 11.8412 93.9211 12.984 91.1604 11.1347C89.4048 9.99231 88.4509 7.86403 88.7799 5.77862C89.2933 2.26161 93.1542 0.201186 96.3284 1.63597C99.0297 2.79073 100.347 6.04553 99.1254 8.78084Z" fill="#FAD332"/>
<path d="M93.7776 11.1662L93.7745 10.0433C93.1287 10.034 92.4603 9.83576 92.0698 9.55893L92.3349 8.81322C92.7365 9.07898 93.316 9.28861 93.9394 9.2868C94.7298 9.28463 95.2629 8.82727 95.2612 8.19352C95.2594 7.58207 94.8242 7.20523 93.9994 6.87402C92.8626 6.43244 92.1597 5.92302 92.1571 4.95566C92.1544 4.03291 92.8093 3.33065 93.8331 3.16099L93.8299 2.03809L94.5202 2.03613L94.5233 3.11457C95.1913 3.13499 95.6483 3.31154 95.9716 3.49966L95.6954 4.23422C95.4612 4.10148 95.0041 3.85818 94.2916 3.86021C93.4343 3.86259 93.1129 4.37491 93.1142 4.81967C93.1158 5.39781 93.5286 5.68573 94.4982 6.08327C95.6462 6.547 96.2268 7.12348 96.2295 8.113C96.2321 8.99129 95.6221 9.81585 94.4759 10.008L94.4792 11.1643L93.7776 11.1662Z" fill="#FABA23"/>
<path d="M120.374 44.2274C120.054 44.2274 119.794 43.968 119.794 43.6481C119.794 43.1763 119.782 42.6991 119.758 42.2298C119.741 41.9103 119.988 41.6381 120.308 41.6218C120.627 41.6063 120.9 41.8513 120.916 42.1709C120.941 42.6597 120.954 43.1568 120.954 43.6482C120.954 43.968 120.694 44.2274 120.374 44.2274Z" fill="#95A6DB"/>
<path d="M120.035 39.8647C119.754 39.8647 119.507 39.6606 119.463 39.3749C119.315 38.4328 119.115 37.4883 118.87 36.5676C118.787 36.2585 118.971 35.9411 119.281 35.8586C119.591 35.7761 119.908 35.9601 119.991 36.2692C120.247 37.2289 120.455 38.2136 120.609 39.1957C120.658 39.5118 120.442 39.8081 120.125 39.8577C120.095 39.8624 120.065 39.8647 120.035 39.8647ZM64.6681 39.8402C64.638 39.8402 64.6077 39.838 64.5771 39.8331C64.2606 39.7833 64.0445 39.4868 64.0943 39.1707C64.2493 38.1882 64.4582 37.2038 64.7151 36.2446C64.7979 35.9356 65.1159 35.7522 65.4254 35.8349C65.7349 35.9176 65.9186 36.2352 65.8358 36.5442C65.5893 37.4641 65.389 38.4085 65.2404 39.3509C65.1954 39.6364 64.9487 39.8402 64.6681 39.8402ZM118.525 34.2091C118.292 34.2091 118.072 34.0676 117.983 33.8371C117.642 32.947 117.248 32.0649 116.814 31.2151C116.669 30.9301 116.782 30.5813 117.068 30.4359C117.353 30.2904 117.702 30.4037 117.848 30.6886C118.3 31.5746 118.71 32.4943 119.067 33.4222C119.181 33.7209 119.032 34.056 118.733 34.1705C118.665 34.1967 118.594 34.2091 118.525 34.2091ZM66.1823 34.1873C66.1132 34.1873 66.0428 34.1749 65.9743 34.1487C65.6753 34.0338 65.5261 33.6987 65.641 33.4001C65.9976 32.4737 66.4081 31.5551 66.8609 30.6699C67.0066 30.3849 67.356 30.2718 67.6413 30.4176C67.9266 30.5631 68.0397 30.9121 67.894 31.197C67.4596 32.0461 67.0659 32.9271 66.7238 33.8158C66.6352 34.0461 66.4155 34.1873 66.1823 34.1873ZM115.863 28.9937C115.673 28.9937 115.487 28.9008 115.376 28.7301C114.856 27.9314 114.288 27.1503 113.686 26.4086C113.484 26.16 113.523 25.7951 113.772 25.5938C114.021 25.3924 114.386 25.4308 114.588 25.6794C115.214 26.4523 115.807 27.2663 116.349 28.0987C116.523 28.3669 116.447 28.7257 116.179 28.9001C116.081 28.9633 115.971 28.9937 115.863 28.9937ZM68.8466 28.9777C68.738 28.9777 68.6283 28.9474 68.5306 28.8838C68.2621 28.7093 68.1861 28.3504 68.361 28.0823C68.9033 27.2503 69.4962 26.4372 70.1233 25.6651C70.3251 25.4166 70.6903 25.3785 70.9392 25.5802C71.1881 25.7817 71.2261 26.1465 71.0243 26.395C70.4226 27.1358 69.8536 27.9163 69.3332 28.7145C69.222 28.885 69.0362 28.9777 68.8466 28.9777ZM112.173 24.4454C112.025 24.4454 111.876 24.3888 111.763 24.2755C111.088 23.601 110.37 22.9544 109.629 22.3538C109.38 22.1522 109.342 21.7873 109.544 21.539C109.746 21.2906 110.111 21.2524 110.36 21.4542C111.132 22.08 111.88 22.7537 112.584 23.4566C112.81 23.6829 112.81 24.0496 112.583 24.2759C112.47 24.3888 112.322 24.4454 112.173 24.4454ZM72.5382 24.4329C72.3897 24.4329 72.2411 24.3763 72.1279 24.2631C71.9014 24.0368 71.9015 23.6701 72.1281 23.4439C72.832 22.7412 73.5807 22.0679 74.3535 21.4426C74.6024 21.2413 74.9676 21.2794 75.1694 21.5279C75.371 21.7765 75.3328 22.1414 75.0839 22.3428C74.3422 22.943 73.6237 23.5891 72.9482 24.2633C72.835 24.3764 72.6866 24.4329 72.5382 24.4329ZM107.622 20.7587C107.514 20.7587 107.404 20.7284 107.307 20.6647C106.506 20.1444 105.67 19.6607 104.821 19.2273C104.536 19.0817 104.423 18.7327 104.568 18.4479C104.714 18.1629 105.063 18.05 105.349 18.1957C106.234 18.6474 107.106 19.1516 107.94 19.6939C108.208 19.8685 108.284 20.2273 108.109 20.4955C107.998 20.6659 107.812 20.7587 107.622 20.7587ZM77.0926 20.7483C76.9028 20.7483 76.7169 20.6555 76.6058 20.4848C76.4311 20.2166 76.5073 19.8578 76.7758 19.6833C77.6107 19.1411 78.4832 18.6374 79.3692 18.186C79.6545 18.0407 80.0039 18.1537 80.1495 18.4388C80.2951 18.7238 80.1817 19.0727 79.8964 19.2181C79.0464 19.6511 78.2093 20.1344 77.4083 20.6546C77.3106 20.718 77.201 20.7483 77.0926 20.7483ZM102.407 18.0972C102.338 18.0972 102.267 18.0847 102.199 18.0584C101.308 17.7161 100.388 17.4176 99.4668 17.1712C99.1573 17.0884 98.9736 16.7708 99.0565 16.4617C99.1394 16.1528 99.4572 15.9692 99.7669 16.052C100.728 16.309 101.686 16.6201 102.615 16.977C102.914 17.0918 103.064 17.427 102.949 17.7256C102.86 17.9559 102.64 18.0972 102.407 18.0972ZM82.3138 18.0889C82.0806 18.0889 81.8607 17.9474 81.7722 17.7169C81.6574 17.4182 81.8069 17.0832 82.106 16.9686C83.0355 16.6124 83.9945 16.3019 84.9564 16.0456C85.2662 15.9628 85.5838 16.1468 85.6664 16.456C85.749 16.7651 85.565 17.0825 85.2555 17.165C84.3329 17.4109 83.413 17.7087 82.5216 18.0503C82.4533 18.0764 82.383 18.0889 82.3138 18.0889ZM96.7475 16.5833C96.7174 16.5833 96.6871 16.5809 96.6565 16.5761C95.7157 16.4281 94.7542 16.3279 93.7986 16.2783C93.4787 16.2616 93.2328 15.9891 93.2494 15.6696C93.266 15.3501 93.5396 15.1048 93.8588 15.1212C94.8545 15.1729 95.8564 15.2774 96.837 15.4316C97.1534 15.4814 97.3696 15.778 97.3197 16.094C97.2747 16.3795 97.028 16.5833 96.7475 16.5833ZM87.9757 16.5796C87.695 16.5796 87.4482 16.3756 87.4034 16.0899C87.3537 15.7738 87.5701 15.4774 87.8866 15.4278C88.867 15.2744 89.8691 15.1708 90.865 15.1199C91.1851 15.104 91.4575 15.3493 91.474 15.6688C91.4904 15.9884 91.2443 16.2607 90.9243 16.2769C89.9685 16.3258 89.0069 16.4252 88.0663 16.5725C88.0359 16.5772 88.0056 16.5796 87.9757 16.5796Z" fill="#95A6DB"/>
<path d="M64.3247 44.2276C64.0044 44.2276 63.7446 43.9682 63.7446 43.6483C63.7446 43.1571 63.7572 42.6601 63.7823 42.171C63.7986 41.8514 64.0701 41.6053 64.3911 41.6219C64.7111 41.6383 64.9572 41.9105 64.941 42.2299C64.917 42.6995 64.9049 43.1767 64.9049 43.6482C64.9048 43.9682 64.6451 44.2276 64.3247 44.2276Z" fill="#95A6DB"/>
<path d="M72.1768 44.2278C71.8564 44.2278 71.5967 43.9685 71.5967 43.6485C71.5967 43.1532 71.6144 42.6526 71.6494 42.1604C71.6721 41.8413 71.9498 41.6011 72.2691 41.6235C72.5886 41.6462 72.8293 41.9232 72.8066 42.2424C72.7736 42.7072 72.7568 43.1804 72.7568 43.6485C72.7568 43.9685 72.4972 44.2278 72.1768 44.2278Z" fill="#95A6DB"/>
<path d="M72.6362 39.9365C72.5954 39.9365 72.5541 39.9322 72.5126 39.9232C72.1995 39.8554 72.0008 39.547 72.0687 39.2342C72.2777 38.2726 72.5584 37.3177 72.9032 36.3962C73.0153 36.0965 73.3496 35.9444 73.6496 36.0563C73.9497 36.1683 74.1021 36.502 73.9899 36.8017C73.6646 37.6713 73.3997 38.5724 73.2025 39.4799C73.1435 39.7512 72.9032 39.9365 72.6362 39.9365ZM112.059 39.9211C111.793 39.9211 111.552 39.7361 111.493 39.465C111.295 38.5582 111.03 37.6579 110.704 36.789C110.592 36.4893 110.744 36.1556 111.044 36.0433C111.344 35.9312 111.679 36.0832 111.791 36.3828C112.136 37.3035 112.417 38.2576 112.627 39.2184C112.695 39.531 112.496 39.8397 112.183 39.9077C112.142 39.9168 112.1 39.9211 112.059 39.9211ZM74.6439 34.5653C74.5497 34.5653 74.4542 34.5424 74.3658 34.494C74.0849 34.3403 73.9818 33.9883 74.1357 33.7077C74.6082 32.8461 75.1476 32.0101 75.7391 31.2228C75.9314 30.9669 76.2949 30.9151 76.5512 31.1071C76.8074 31.299 76.8593 31.6622 76.6671 31.9181C76.1086 32.6615 75.5993 33.4508 75.1532 34.2642C75.0478 34.4564 74.849 34.5653 74.6439 34.5653ZM110.05 34.5555C109.845 34.5555 109.646 34.4467 109.54 34.2546C109.094 33.4419 108.585 32.6532 108.026 31.9106C107.834 31.6548 107.886 31.2916 108.142 31.0995C108.398 30.9073 108.762 30.959 108.954 31.2148C109.545 32.0014 110.085 32.8367 110.558 33.6976C110.712 33.9781 110.609 34.3303 110.328 34.4841C110.239 34.5325 110.144 34.5555 110.05 34.5555ZM78.0887 29.9795C77.9402 29.9795 77.7917 29.9229 77.6784 29.8097C77.452 29.5834 77.452 29.2167 77.6786 28.9904C78.3751 28.2952 79.1274 27.644 79.9145 27.0549C80.1708 26.863 80.5343 26.915 80.7266 27.171C80.9186 27.427 80.8666 27.7901 80.6103 27.982C79.867 28.5384 79.1565 29.1534 78.4987 29.8099C78.3856 29.923 78.2371 29.9795 78.0887 29.9795ZM106.604 29.973C106.455 29.973 106.307 29.9166 106.194 29.8037C105.536 29.1474 104.825 28.5325 104.081 27.9764C103.825 27.7847 103.773 27.4216 103.965 27.1655C104.157 26.9093 104.52 26.8574 104.777 27.0491C105.564 27.6379 106.317 28.2889 107.014 28.9839C107.24 29.2099 107.241 29.5768 107.014 29.8031C106.901 29.9163 106.752 29.973 106.604 29.973ZM82.6813 26.543C82.4761 26.543 82.2773 26.4341 82.1719 26.2415C82.0181 25.9609 82.1213 25.6089 82.4023 25.4553C83.2663 24.9832 84.1715 24.5698 85.0927 24.2263C85.3927 24.1145 85.727 24.2667 85.839 24.5665C85.9511 24.8662 85.7985 25.1999 85.4985 25.3118C84.629 25.6359 83.7746 26.0262 82.9592 26.4718C82.8709 26.52 82.7755 26.543 82.6813 26.543ZM102.008 26.5378C101.914 26.5378 101.819 26.5149 101.731 26.4668C100.914 26.0212 100.059 25.6312 99.1883 25.3072C98.8881 25.1957 98.7354 24.862 98.8472 24.5622C98.9591 24.2624 99.2929 24.1097 99.5933 24.2216C100.516 24.5647 101.422 24.9781 102.287 25.4501C102.568 25.6036 102.671 25.9554 102.518 26.2362C102.412 26.4287 102.213 26.5378 102.008 26.5378ZM88.0554 24.5397C87.7882 24.5397 87.5479 24.3544 87.4891 24.0831C87.4212 23.7704 87.62 23.462 87.933 23.3943C88.8929 23.1865 89.8786 23.0459 90.8626 22.9763C91.1818 22.9537 91.4596 23.1941 91.4822 23.5132C91.5048 23.8324 91.2641 24.1094 90.9446 24.132C90.0154 24.1977 89.0849 24.3305 88.1788 24.5266C88.1375 24.5355 88.0961 24.5397 88.0554 24.5397ZM96.6286 24.5366C96.588 24.5366 96.5468 24.5323 96.5055 24.5234C95.5994 24.3279 94.6688 24.1959 93.7396 24.1308C93.42 24.1085 93.1791 23.8317 93.2015 23.5124C93.2239 23.1934 93.5006 22.9528 93.8207 22.9751C94.8048 23.0438 95.7906 23.1838 96.7505 23.3909C97.0636 23.4584 97.2627 23.7666 97.195 24.0793C97.1363 24.351 96.8958 24.5366 96.6286 24.5366Z" fill="#95A6DB"/>
<path d="M112.522 44.2279C112.202 44.2279 111.942 43.9685 111.942 43.6486C111.942 43.1803 111.925 42.7072 111.892 42.2425C111.869 41.9234 112.11 41.6463 112.43 41.6236C112.75 41.6006 113.027 41.8413 113.049 42.1605C113.084 42.6524 113.102 43.1531 113.102 43.6486C113.102 43.9685 112.842 44.2279 112.522 44.2279Z" fill="#95A6DB"/>
<path d="M120.272 44.5662C120.269 44.5662 120.267 44.5661 120.264 44.5661C120.153 44.564 120.048 44.5102 119.981 44.4203L116.278 39.4477C116.159 39.2874 116.192 39.0608 116.353 38.9416C116.513 38.8224 116.74 38.8558 116.86 39.0159L120.283 43.6136L123.692 39.3874C123.818 39.2318 124.046 39.2074 124.201 39.3327C124.357 39.4579 124.382 39.6857 124.256 39.8412L120.554 44.4314C120.485 44.5167 120.381 44.5662 120.272 44.5662Z" fill="#95A6DB"/>
<path d="M72.1654 44.5662C72.1631 44.5662 72.1607 44.5662 72.1584 44.5662C72.0464 44.564 71.9416 44.5102 71.8748 44.4203L68.1721 39.4478C68.0528 39.2874 68.0862 39.0609 68.2467 38.9416C68.4072 38.8224 68.6342 38.8557 68.7535 39.016L72.1769 43.6136L75.5859 39.3874C75.7114 39.2319 75.9394 39.2073 76.0952 39.3327C76.251 39.458 76.2756 39.6857 76.15 39.8412L72.4474 44.4314C72.3787 44.5167 72.2749 44.5662 72.1654 44.5662Z" fill="#95A6DB"/>
<path d="M145.778 122.586V124.053C145.778 124.626 145.313 125.091 144.739 125.091H126.81C126.236 125.091 125.77 124.626 125.77 124.053V122.586C125.77 122.33 125.862 122.097 126.016 121.916C126.207 121.691 126.491 121.548 126.81 121.548H144.739C145.057 121.548 145.342 121.691 145.533 121.916C145.686 122.097 145.778 122.33 145.778 122.586Z" fill="#FAD332"/>
<path d="M127.285 121.548H126.764V125.091H127.285V121.548Z" fill="#FABA23"/>
<path d="M129.469 121.548H128.948V125.091H129.469V121.548Z" fill="#FABA23"/>
<path d="M131.653 121.548H131.132V125.091H131.653V121.548Z" fill="#FABA23"/>
<path d="M133.837 121.548H133.316V125.091H133.837V121.548Z" fill="#FABA23"/>
<path d="M136.02 121.548H135.5V125.091H136.02V121.548Z" fill="#FABA23"/>
<path d="M138.204 121.548H137.684V125.091H138.204V121.548Z" fill="#FABA23"/>
<path d="M140.388 121.548H139.868V125.091H140.388V121.548Z" fill="#FABA23"/>
<path d="M142.572 121.548H142.051V125.091H142.572V121.548Z" fill="#FABA23"/>
<path d="M144.756 121.548H144.235V125.091H144.756V121.548Z" fill="#FABA23"/>
<path d="M145.533 121.916H126.016C126.207 121.691 126.491 121.548 126.81 121.548H144.739C145.057 121.548 145.342 121.691 145.533 121.916Z" fill="#FABA23"/>
<path d="M145.533 124.723H126.016C126.207 124.948 126.491 125.091 126.81 125.091H144.739C145.057 125.091 145.342 124.948 145.533 124.723Z" fill="#FABA23"/>
<path d="M147.032 119.043V120.51C147.032 121.083 146.567 121.548 145.993 121.548H128.064C127.49 121.548 127.024 121.083 127.024 120.51V119.043C127.024 118.787 127.116 118.554 127.27 118.373C127.461 118.148 127.745 118.005 128.064 118.005H145.993C146.311 118.005 146.596 118.148 146.787 118.373C146.94 118.554 147.032 118.787 147.032 119.043Z" fill="#FAD332"/>
<path d="M128.539 118.005H128.018V121.548H128.539V118.005Z" fill="#FABA23"/>
<path d="M130.723 118.005H130.202V121.548H130.723V118.005Z" fill="#FABA23"/>
<path d="M132.907 118.005H132.386V121.548H132.907V118.005Z" fill="#FABA23"/>
<path d="M135.091 118.005H134.57V121.548H135.091V118.005Z" fill="#FABA23"/>
<path d="M137.275 118.005H136.754V121.548H137.275V118.005Z" fill="#FABA23"/>
<path d="M139.458 118.005H138.938V121.548H139.458V118.005Z" fill="#FABA23"/>
<path d="M141.642 118.005H141.121V121.548H141.642V118.005Z" fill="#FABA23"/>
<path d="M143.826 118.005H143.305V121.548H143.826V118.005Z" fill="#FABA23"/>
<path d="M146.01 118.005H145.489V121.548H146.01V118.005Z" fill="#FABA23"/>
<path d="M146.787 118.373H127.27C127.46 118.148 127.745 118.005 128.063 118.005H145.993C146.311 118.005 146.596 118.148 146.787 118.373Z" fill="#FABA23"/>
<path d="M146.787 121.18H127.27C127.46 121.405 127.745 121.548 128.063 121.548H145.993C146.311 121.548 146.596 121.405 146.787 121.18Z" fill="#FABA23"/>
<path d="M146.06 115.505V116.972C146.06 117.545 145.595 118.01 145.021 118.01H127.091C126.517 118.01 126.052 117.545 126.052 116.972V115.505C126.052 115.249 126.144 115.016 126.297 114.835C126.488 114.61 126.773 114.467 127.091 114.467H145.021C145.339 114.467 145.624 114.61 145.815 114.835C145.968 115.016 146.06 115.249 146.06 115.505Z" fill="#FAD332"/>
<path d="M127.566 114.467H127.045V118.01H127.566V114.467Z" fill="#FABA23"/>
<path d="M129.75 114.467H129.229V118.01H129.75V114.467Z" fill="#FABA23"/>
<path d="M131.934 114.467H131.414V118.01H131.934V114.467Z" fill="#FABA23"/>
<path d="M134.118 114.467H133.597V118.01H134.118V114.467Z" fill="#FABA23"/>
<path d="M136.302 114.467H135.781V118.01H136.302V114.467Z" fill="#FABA23"/>
<path d="M138.486 114.467H137.965V118.01H138.486V114.467Z" fill="#FABA23"/>
<path d="M140.67 114.467H140.149V118.01H140.67V114.467Z" fill="#FABA23"/>
<path d="M142.854 114.467H142.333V118.01H142.854V114.467Z" fill="#FABA23"/>
<path d="M145.038 114.467H144.517V118.01H145.038V114.467Z" fill="#FABA23"/>
<path d="M145.815 114.835H126.297C126.488 114.61 126.773 114.467 127.091 114.467H145.021C145.339 114.467 145.624 114.61 145.815 114.835Z" fill="#FABA23"/>
<path d="M145.815 117.643H126.297C126.488 117.868 126.773 118.011 127.091 118.011H145.021C145.339 118.011 145.624 117.868 145.815 117.643Z" fill="#FABA23"/>
<path d="M146.46 112.033V113.5C146.46 114.073 145.995 114.538 145.421 114.538H127.491C126.918 114.538 126.452 114.073 126.452 113.5V112.033C126.452 111.778 126.544 111.544 126.698 111.363C126.889 111.138 127.173 110.995 127.491 110.995H145.421C145.739 110.995 146.024 111.138 146.215 111.363C146.368 111.544 146.46 111.778 146.46 112.033Z" fill="#FAD332"/>
<path d="M127.967 110.995H127.446V114.538H127.967V110.995Z" fill="#FABA23"/>
<path d="M130.151 110.995H129.63V114.538H130.151V110.995Z" fill="#FABA23"/>
<path d="M132.334 110.995H131.814V114.538H132.334V110.995Z" fill="#FABA23"/>
<path d="M134.519 110.995H133.998V114.538H134.519V110.995Z" fill="#FABA23"/>
<path d="M136.702 110.995H136.182V114.538H136.702V110.995Z" fill="#FABA23"/>
<path d="M138.886 110.995H138.365V114.538H138.886V110.995Z" fill="#FABA23"/>
<path d="M141.07 110.995H140.549V114.538H141.07V110.995Z" fill="#FABA23"/>
<path d="M143.254 110.995H142.733V114.538H143.254V110.995Z" fill="#FABA23"/>
<path d="M145.438 110.995H144.917V114.538H145.438V110.995Z" fill="#FABA23"/>
<path d="M146.215 111.363H126.698C126.888 111.138 127.173 110.995 127.491 110.995H145.421C145.739 110.995 146.024 111.138 146.215 111.363Z" fill="#FABA23"/>
<path d="M146.215 114.17H126.698C126.888 114.395 127.173 114.538 127.491 114.538H145.421C145.739 114.538 146.024 114.395 146.215 114.17Z" fill="#FABA23"/>
<path d="M144.225 108.437V109.904C144.225 110.478 143.76 110.942 143.186 110.942H125.256C124.682 110.942 124.217 110.478 124.217 109.904V108.437C124.217 108.182 124.309 107.948 124.462 107.767C124.653 107.542 124.938 107.399 125.256 107.399H143.186C143.504 107.399 143.789 107.542 143.98 107.767C144.133 107.948 144.225 108.182 144.225 108.437Z" fill="#FAD332"/>
<path d="M125.732 107.399H125.211V110.942H125.732V107.399Z" fill="#FABA23"/>
<path d="M127.916 107.399H127.395V110.942H127.916V107.399Z" fill="#FABA23"/>
<path d="M130.099 107.399H129.579V110.942H130.099V107.399Z" fill="#FABA23"/>
<path d="M132.284 107.399H131.763V110.942H132.284V107.399Z" fill="#FABA23"/>
<path d="M134.467 107.399H133.947V110.942H134.467V107.399Z" fill="#FABA23"/>
<path d="M136.651 107.399H136.13V110.942H136.651V107.399Z" fill="#FABA23"/>
<path d="M138.835 107.399H138.314V110.942H138.835V107.399Z" fill="#FABA23"/>
<path d="M141.019 107.399H140.498V110.942H141.019V107.399Z" fill="#FABA23"/>
<path d="M143.203 107.399H142.682V110.942H143.203V107.399Z" fill="#FABA23"/>
<path d="M143.98 107.767H124.462C124.653 107.542 124.938 107.399 125.256 107.399H143.186C143.504 107.399 143.789 107.542 143.98 107.767Z" fill="#FABA23"/>
<path d="M143.98 110.573H124.462C124.653 110.798 124.938 110.941 125.256 110.941H143.186C143.504 110.941 143.789 110.798 143.98 110.573Z" fill="#FABA23"/>
<path d="M146.425 104.936V106.403C146.425 106.977 145.959 107.441 145.385 107.441H127.456C126.882 107.441 126.417 106.977 126.417 106.403V104.936C126.417 104.681 126.509 104.447 126.662 104.266C126.853 104.041 127.138 103.898 127.456 103.898H145.385C145.703 103.898 145.988 104.041 146.179 104.266C146.333 104.447 146.425 104.681 146.425 104.936Z" fill="#FAD332"/>
<path d="M127.931 103.898H127.41V107.441H127.931V103.898Z" fill="#FABA23"/>
<path d="M130.115 103.898H129.594V107.441H130.115V103.898Z" fill="#FABA23"/>
<path d="M132.299 103.898H131.778V107.441H132.299V103.898Z" fill="#FABA23"/>
<path d="M134.483 103.898H133.962V107.441H134.483V103.898Z" fill="#FABA23"/>
<path d="M136.667 103.898H136.146V107.441H136.667V103.898Z" fill="#FABA23"/>
<path d="M138.851 103.898H138.33V107.441H138.851V103.898Z" fill="#FABA23"/>
<path d="M141.034 103.898H140.514V107.441H141.034V103.898Z" fill="#FABA23"/>
<path d="M143.219 103.898H142.698V107.441H143.219V103.898Z" fill="#FABA23"/>
<path d="M145.402 103.898H144.882V107.441H145.402V103.898Z" fill="#FABA23"/>
<path d="M146.179 104.266H126.662C126.853 104.041 127.138 103.898 127.456 103.898H145.385C145.703 103.898 145.988 104.041 146.179 104.266Z" fill="#FABA23"/>
<path d="M146.179 107.072H126.662C126.853 107.297 127.138 107.44 127.456 107.44H145.385C145.703 107.44 145.988 107.297 146.179 107.072Z" fill="#FABA23"/>
<path d="M145.645 101.381V102.848C145.645 103.421 145.179 103.886 144.605 103.886H126.676C126.102 103.886 125.636 103.421 125.636 102.848V101.381C125.636 101.125 125.729 100.892 125.882 100.711C126.073 100.486 126.358 100.343 126.676 100.343H144.605C144.923 100.343 145.208 100.486 145.399 100.711C145.552 100.892 145.645 101.125 145.645 101.381Z" fill="#FAD332"/>
<path d="M127.151 100.344H126.63V103.887H127.151V100.344Z" fill="#FABA23"/>
<path d="M129.335 100.344H128.814V103.887H129.335V100.344Z" fill="#FABA23"/>
<path d="M131.519 100.344H130.998V103.887H131.519V100.344Z" fill="#FABA23"/>
<path d="M133.703 100.344H133.182V103.887H133.703V100.344Z" fill="#FABA23"/>
<path d="M135.886 100.344H135.366V103.887H135.886V100.344Z" fill="#FABA23"/>
<path d="M138.071 100.344H137.55V103.887H138.071V100.344Z" fill="#FABA23"/>
<path d="M140.255 100.344H139.734V103.887H140.255V100.344Z" fill="#FABA23"/>
<path d="M142.438 100.344H141.917V103.887H142.438V100.344Z" fill="#FABA23"/>
<path d="M144.622 100.344H144.101V103.887H144.622V100.344Z" fill="#FABA23"/>
<path d="M145.399 100.711H125.882C126.073 100.486 126.358 100.343 126.676 100.343H144.605C144.923 100.343 145.208 100.486 145.399 100.711Z" fill="#FABA23"/>
<path d="M145.399 103.519H125.882C126.073 103.744 126.358 103.887 126.676 103.887H144.605C144.923 103.887 145.208 103.744 145.399 103.519Z" fill="#FABA23"/>
<path d="M146.716 97.8582V99.3253C146.716 99.8984 146.251 100.363 145.677 100.363H127.747C127.173 100.363 126.708 99.8984 126.708 99.3253V97.8582C126.708 97.6028 126.8 97.3692 126.953 97.1882C127.144 96.9631 127.429 96.8203 127.747 96.8203H145.677C145.995 96.8203 146.28 96.9631 146.471 97.1882C146.624 97.3692 146.716 97.6028 146.716 97.8582Z" fill="#FAD332"/>
<path d="M128.222 96.8203H127.701V100.363H128.222V96.8203Z" fill="#FABA23"/>
<path d="M130.406 96.8203H129.885V100.363H130.406V96.8203Z" fill="#FABA23"/>
<path d="M132.59 96.8203H132.07V100.363H132.59V96.8203Z" fill="#FABA23"/>
<path d="M134.774 96.8203H134.253V100.363H134.774V96.8203Z" fill="#FABA23"/>
<path d="M136.958 96.8203H136.437V100.363H136.958V96.8203Z" fill="#FABA23"/>
<path d="M139.142 96.8203H138.621V100.363H139.142V96.8203Z" fill="#FABA23"/>
<path d="M141.326 96.8203H140.805V100.363H141.326V96.8203Z" fill="#FABA23"/>
<path d="M143.51 96.8203H142.989V100.363H143.51V96.8203Z" fill="#FABA23"/>
<path d="M145.694 96.8203H145.173V100.363H145.694V96.8203Z" fill="#FABA23"/>
<path d="M146.471 97.1882H126.953C127.144 96.9631 127.429 96.8203 127.747 96.8203H145.677C145.995 96.8203 146.28 96.9631 146.471 97.1882Z" fill="#FABA23"/>
<path d="M146.471 99.9961H126.953C127.144 100.221 127.429 100.364 127.747 100.364H145.677C145.995 100.364 146.28 100.221 146.471 99.9961Z" fill="#FABA23"/>
<path d="M129.516 124.715C135.128 122.866 138.177 116.824 136.326 111.219C134.475 105.615 128.425 102.569 122.813 104.418C117.201 106.266 114.152 112.308 116.002 117.913C117.853 123.518 123.903 126.563 129.516 124.715Z" fill="#FABA23"/>
<path d="M134.525 117.266C133.033 121.88 128.079 124.411 123.46 122.921C122.978 122.766 122.518 122.573 122.083 122.346C121.348 121.963 120.684 121.484 120.102 120.931C119.882 120.72 119.673 120.5 119.476 120.27C118.035 118.582 117.261 116.378 117.381 114.108C117.421 113.365 117.557 112.614 117.797 111.872C118.909 108.431 121.947 106.148 125.336 105.828C126.491 105.719 127.687 105.837 128.862 106.216C129.878 106.544 130.794 107.039 131.588 107.662C131.828 107.85 132.056 108.049 132.274 108.259C132.863 108.829 133.366 109.477 133.771 110.179C134.971 112.254 135.32 114.808 134.525 117.266Z" fill="#FAD332"/>
<path d="M131.588 107.662L119.476 120.27C118.035 118.582 117.261 116.378 117.381 114.108L125.336 105.828C126.491 105.719 127.687 105.837 128.862 106.216C129.878 106.544 130.794 107.039 131.588 107.662Z" fill="#FAEE6C"/>
<path d="M133.771 110.179L122.083 122.346C121.348 121.963 120.684 121.484 120.102 120.931L132.273 108.26C132.863 108.83 133.366 109.477 133.771 110.179Z" fill="#FAEE6C"/>
<path d="M126.75 106.226C125.712 106.117 125.522 106.22 125.056 107.139C125.172 106.115 125.069 105.925 124.142 105.447C125.18 105.556 125.37 105.454 125.836 104.534C125.727 105.571 125.829 105.761 126.75 106.226Z" fill="white"/>
<path d="M123.075 122.713C122.199 122.621 122.039 122.707 121.645 123.483C121.743 122.619 121.657 122.459 120.874 122.056C121.75 122.148 121.91 122.061 122.303 121.285C122.211 122.16 122.298 122.32 123.075 122.713Z" fill="white"/>
<path d="M133.096 79.0939C126.621 79.0939 121.352 73.8327 121.352 67.3658C121.352 60.8988 126.621 55.6377 133.096 55.6377C139.572 55.6377 144.84 60.8989 144.84 67.3658C144.84 73.8326 139.572 79.0939 133.096 79.0939ZM133.096 56.2169C126.94 56.2169 121.932 61.2182 121.932 67.3657C121.932 73.5132 126.94 78.5145 133.096 78.5145C139.252 78.5145 144.26 73.5132 144.26 67.3657C144.26 61.2182 139.252 56.2169 133.096 56.2169Z" fill="#E3EAFF"/>
<path d="M133.096 74.0215C132.235 74.0215 131.537 73.3244 131.537 72.4646V50.9455C131.537 50.0857 132.235 49.3887 133.096 49.3887C133.957 49.3887 134.655 50.0857 134.655 50.9455V72.4646C134.655 73.3244 133.957 74.0215 133.096 74.0215Z" fill="#E3EAFF"/>
<path d="M133.096 79.0939C126.621 79.0939 121.352 73.8327 121.352 67.3658C121.352 60.8988 126.621 55.6377 133.096 55.6377C139.572 55.6377 144.84 60.8989 144.84 67.3658C144.84 73.8326 139.572 79.0939 133.096 79.0939ZM133.096 56.2169C126.94 56.2169 121.932 61.2182 121.932 67.3657C121.932 73.5132 126.94 78.5145 133.096 78.5145C139.252 78.5145 144.26 73.5132 144.26 67.3657C144.26 61.2182 139.252 56.2169 133.096 56.2169Z" fill="#E3EAFF"/>
<path d="M133.096 74.0215C132.235 74.0215 131.537 73.3244 131.537 72.4646V50.9455C131.537 50.0857 132.235 49.3887 133.096 49.3887C133.957 49.3887 134.655 50.0857 134.655 50.9455V72.4646C134.655 73.3244 133.957 74.0215 133.096 74.0215Z" fill="#E3EAFF"/>
<path d="M133.203 75.2991C133.183 75.2991 133.163 75.2987 133.143 75.298C132.666 75.2794 132.224 75.0438 131.943 74.6586L125.469 66.3748C124.962 65.6798 125.116 64.7059 125.812 64.1998C126.508 63.6936 127.483 63.8468 127.99 64.5419L133.301 71.2313L138.278 64.4471C138.837 63.7933 139.821 63.7161 140.476 64.2747C141.13 64.8332 141.208 65.816 140.649 66.4697L134.389 74.7536C134.092 75.1004 133.658 75.2991 133.203 75.2991Z" fill="#E3EAFF"/>
<path d="M55.2706 77.9005C48.795 77.9005 43.5269 72.6394 43.5269 66.1724C43.5269 59.7055 48.7951 54.4443 55.2706 54.4443C61.7461 54.4443 67.0143 59.7055 67.0143 66.1724C67.0143 72.6393 61.7461 77.9005 55.2706 77.9005ZM55.2706 55.0236C49.1149 55.0236 44.1069 60.025 44.1069 66.1724C44.1069 72.32 49.1149 77.3212 55.2706 77.3212C61.4263 77.3212 66.4343 72.32 66.4343 66.1724C66.4343 60.025 61.4263 55.0236 55.2706 55.0236Z" fill="#E3EAFF"/>
<path d="M61.279 72.1752C64.5979 68.8607 64.598 63.4868 61.279 60.1723C57.9601 56.8579 52.5791 56.8579 49.2602 60.1724C45.9413 63.4869 45.9412 68.8607 49.2601 72.1752C52.579 75.4897 57.9601 75.4897 61.279 72.1752Z" fill="#E3EAFF"/>
<path d="M61.7077 69.7353C60.4597 72.0034 58.0451 73.5402 55.2709 73.5402C52.4961 73.5402 50.0815 72.0034 48.8335 69.7353C49.6225 68.333 50.8585 67.2147 52.3487 66.5725C51.7117 65.8724 51.3235 64.9431 51.3235 63.9226C51.3235 61.7457 53.0904 59.9805 55.2709 59.9805C57.4507 59.9805 59.2177 61.7457 59.2177 63.9226C59.2177 64.9431 58.8295 65.8724 58.1925 66.5725C59.6826 67.2147 60.9186 68.333 61.7077 69.7353Z" fill="#95A6DB"/>
<path d="M145.347 86.2821L140.419 83.6357C140.28 83.8937 140.141 84.1518 140.002 84.4098C139.801 84.7838 140.747 85.6828 142.115 86.4177C143.483 87.1525 144.756 87.4451 144.957 87.0709C144.976 87.0365 145.347 86.2821 145.347 86.2821Z" fill="#FABA23"/>
<path d="M145.352 86.3396C145.15 86.7137 143.878 86.4212 142.51 85.6863C141.141 84.9514 140.196 84.0525 140.397 83.6784C140.598 83.3043 141.871 83.5969 143.239 84.3316C144.607 85.0666 145.553 85.9656 145.352 86.3396Z" fill="#FAD332"/>
<path d="M123.451 96.2285L118.465 97.0374C118.507 97.2985 118.55 97.5595 118.592 97.8207C118.654 98.1992 119.826 98.3241 121.211 98.0995C122.596 97.8749 123.668 97.386 123.607 97.0074C123.601 96.9725 123.451 96.2285 123.451 96.2285Z" fill="#FABA23"/>
<path d="M123.486 96.2664C123.548 96.645 122.475 97.1339 121.09 97.3586C119.705 97.5833 118.533 97.4583 118.471 97.0798C118.41 96.7013 119.482 96.2123 120.867 95.9876C122.252 95.7631 123.424 95.8879 123.486 96.2664Z" fill="#FAD332"/>
<path d="M129.409 87.49L124.877 85.2607C124.76 85.498 124.643 85.7354 124.526 85.9727C124.356 86.3168 125.239 87.0975 126.497 87.7166C127.756 88.3357 128.914 88.5586 129.084 88.2145C129.099 88.1829 129.409 87.49 129.409 87.49Z" fill="#FABA23"/>
<path d="M129.416 87.5422C129.246 87.8862 128.088 87.6633 126.83 87.0443C125.571 86.4252 124.689 85.6444 124.858 85.3004C125.028 84.9563 126.186 85.1793 127.444 85.7983C128.703 86.4172 129.586 87.1981 129.416 87.5422Z" fill="#FAD332"/>
<path d="M122.653 79.082L117.433 79.9286C117.478 80.202 117.522 80.4752 117.567 80.7486C117.631 81.1448 118.858 81.2754 120.308 81.0404C121.757 80.8053 122.88 80.2934 122.816 79.8972C122.81 79.8607 122.653 79.082 122.653 79.082Z" fill="#FABA23"/>
<path d="M122.69 79.1216C122.754 79.5179 121.632 80.0296 120.182 80.2647C118.733 80.4998 117.505 80.3692 117.441 79.973C117.376 79.5767 118.499 79.0649 119.949 78.8298C121.398 78.5947 122.626 78.7252 122.69 79.1216Z" fill="#FAD332"/>
<path d="M70.823 96.592H39.1684C37.762 96.592 36.6218 95.4533 36.6218 94.0488V87.3625C36.6218 85.958 37.762 84.8193 39.1684 84.8193H70.823C72.2294 84.8193 73.3696 85.958 73.3696 87.3625V94.0488C73.3696 95.4534 72.2294 96.592 70.823 96.592Z" fill="#E3EAFF"/>
<path d="M48.0369 89.0489V92.3609C48.0369 93.2538 47.3126 93.9772 46.4185 93.9772H40.1465C39.8173 93.9772 39.5106 93.8787 39.2546 93.7093C38.8174 93.4203 38.5288 92.9243 38.5288 92.3609V89.0489C38.5288 88.1559 39.2532 87.4326 40.1465 87.4326H46.4185C46.7833 87.4326 47.1204 87.5535 47.3909 87.7577C47.7832 88.0518 48.0369 88.5209 48.0369 89.0489Z" fill="#FABA23"/>
<path d="M60.8212 92.0529H50.4136C49.6685 92.0529 49.0645 91.4497 49.0645 90.7056C49.0645 89.9615 49.6685 89.3584 50.4136 89.3584H60.8212C61.5663 89.3584 62.1703 89.9615 62.1703 90.7056C62.1703 91.4497 61.5663 92.0529 60.8212 92.0529Z" fill="#95A6DB"/>
<path d="M70.1137 92.0529H64.8984C64.1533 92.0529 63.5493 91.4497 63.5493 90.7056C63.5493 89.9615 64.1533 89.3584 64.8984 89.3584H70.1137C70.8588 89.3584 71.4628 89.9615 71.4628 90.7056C71.4628 91.4497 70.8589 92.0529 70.1137 92.0529Z" fill="#4EAD60"/>
<path d="M47.3909 87.7566L39.2546 93.7083C38.8174 93.4194 38.5288 92.9233 38.5288 92.36V89.0479C38.5288 88.155 39.2532 87.4316 40.1465 87.4316H46.4185C46.7833 87.4316 47.1204 87.5525 47.3909 87.7566Z" fill="#FAD332"/>
<path d="M45.9328 92.1141C45.9328 92.7143 45.4456 93.201 44.8446 93.201C44.2435 93.201 43.7563 92.7143 43.7563 92.1141C43.7563 91.5139 44.2435 91.0273 44.8446 91.0273C45.4456 91.0273 45.9328 91.5139 45.9328 92.1141Z" fill="#E62552"/>
<path d="M47.2251 92.1141C47.2251 92.7143 46.7379 93.201 46.1369 93.201C45.5358 93.201 45.0486 92.7143 45.0486 92.1141C45.0486 91.5139 45.5358 91.0273 46.1369 91.0273C46.7379 91.0273 47.2251 91.5139 47.2251 92.1141Z" fill="#95A6DB"/>
<path d="M162.485 77.2821C163.118 75.3041 162.963 73.3853 161.573 72.0936C160.165 70.7843 157.907 71.195 157.907 71.195C157.907 71.1949 156.327 70.1665 154.346 71.5132C152.366 72.8601 153.186 74.6602 152.243 75.7628C151.684 76.4158 149.718 76.1062 149.634 78.649C149.609 79.3826 150.338 80.0548 151.039 80.2727C152.272 80.6554 153.638 80.4058 153.946 81.0572C155.007 83.2965 159.082 83.3655 159.952 82.0326C160.222 81.6192 163.346 83.2942 163.754 80.1362C163.961 78.5358 161.92 79.0495 162.485 77.2821Z" fill="#020205"/>
<path d="M154.415 76.505C154.159 78.9398 155.503 81.0768 157.418 81.2779C159.333 81.4791 161.093 79.6685 161.35 77.2336C161.606 74.7987 160.262 72.6618 158.347 72.4606C156.432 72.2594 154.672 74.0702 154.415 76.505Z" fill="#F37A50"/>
<path d="M160.314 77.5314C160.336 77.7147 160.503 77.845 160.687 77.8225C160.87 77.8 161.001 77.6332 160.978 77.4499C160.956 77.2666 160.789 77.1362 160.605 77.1588C160.422 77.1813 160.291 77.3482 160.314 77.5314Z" fill="black"/>
<path d="M157.618 77.2665C157.642 77.4649 157.823 77.606 158.022 77.5816C158.22 77.5572 158.362 77.3766 158.337 77.1782C158.313 76.9799 158.132 76.8387 157.933 76.8631C157.735 76.8874 157.593 77.0681 157.618 77.2665Z" fill="black"/>
<path d="M157.34 76.8499C157.367 76.8465 157.394 76.8342 157.415 76.813C157.717 76.5044 158.205 76.5959 158.21 76.5969C158.278 76.6102 158.344 76.5661 158.358 76.498C158.371 76.4299 158.327 76.3638 158.259 76.3501C158.234 76.3449 157.633 76.2292 157.234 76.6371C157.186 76.6867 157.187 76.7665 157.236 76.815C157.265 76.8429 157.303 76.8545 157.34 76.8499Z" fill="#020205"/>
<path d="M161.164 77.3168C161.177 77.3152 161.191 77.3113 161.204 77.3051C161.266 77.2748 161.292 77.1995 161.262 77.1369C161.026 76.6512 160.527 76.6418 160.506 76.6416C160.436 76.6411 160.379 76.697 160.379 76.7666C160.378 76.8359 160.434 76.8926 160.503 76.8934C160.52 76.8937 160.869 76.9052 161.035 77.2468C161.059 77.2965 161.112 77.3232 161.164 77.3168Z" fill="#020205"/>
<path d="M159.868 78.1441C159.978 78.3832 160.065 78.6204 160.194 78.7827C160.237 78.8376 160.229 78.9178 160.176 78.9637C159.958 79.1531 159.499 79.2102 159.224 79.2273C159.184 79.2298 159.172 79.174 159.209 79.1591C159.525 79.033 159.684 78.9138 159.758 78.8438C159.795 78.8089 159.812 78.7587 159.805 78.7086C159.79 78.5935 159.762 78.3596 159.754 78.1711C159.751 78.1062 159.841 78.085 159.868 78.1441Z" fill="#DE623C"/>
<path d="M157.283 79.2459C157.257 79.1614 157.343 79.0868 157.423 79.126C157.625 79.2255 157.961 79.3829 158.294 79.5004C158.627 79.6179 158.987 79.7066 159.207 79.7559C159.294 79.7753 159.314 79.8879 159.241 79.9374C159.015 80.0895 158.588 80.2906 158.078 80.1105C157.568 79.9303 157.363 79.506 157.283 79.2459Z" fill="white"/>
<path d="M154.442 76.2906C156.649 76.7528 160.357 75.6498 160.988 74.6349C161.048 73.1693 159.112 71.7382 157.669 71.9176C156.226 72.097 154.138 74.3123 154.442 76.2906Z" fill="#020205"/>
<path d="M160.938 82.873C163.21 83.4392 167.092 88.7393 167.455 92.7133C166.209 92.971 164.785 91.9788 164.785 91.9788L161.699 87.5464L160.938 82.873Z" fill="#DE623C"/>
<path d="M163.135 128.34L164.351 123.555L161.333 123.14C161.229 125.403 161.06 127.631 161.075 128.234L163.135 128.34Z" fill="#F37A50"/>
<path d="M155.932 123.112H152.781C152.884 123.867 153.298 127.95 153.298 127.95C153.564 128.554 155.913 128.416 155.913 128.077C155.735 127.341 155.918 123.207 155.932 123.112Z" fill="#F37A50"/>
<path d="M161.085 124.983L164.193 125.441L166.349 112.57C165.905 107.686 161.599 97.2949 161.599 97.2949L156.746 98.9921L156.628 103.575L162.472 113.457C161.71 115.368 161.189 121.547 161.085 124.983Z" fill="#C4204A"/>
<path d="M158.683 97.6395C158.639 97.3377 158.624 97.2434 158.373 97.0926L153.712 95.7725L152.602 96.8662C151.552 100.676 152.203 105.975 153.031 110.18C151.818 113.82 152.293 121.324 152.781 124.85H156.095C156.288 122.493 156.227 118.12 156.242 116.008C156.671 114.311 157.085 112.5 157.455 110.595C157.929 108.163 158.521 105.805 158.683 103.599C158.831 101.506 158.876 99.2613 158.683 97.6395Z" fill="#E62552"/>
<path d="M152.804 82.292C151.709 83.0098 147.091 89.0103 149.635 93.9522C149.753 94.0175 151.792 90.5683 151.792 90.5683L154.198 85.8116L152.804 82.292Z" fill="#F37A50"/>
<path d="M155.123 79.1699L158.016 80.8109C158.016 80.8109 158.273 81.9808 158.401 82.3604C158.666 83.1438 157.652 83.4861 156.796 82.9985C155.939 82.5108 155.385 81.8585 155.385 81.8585L155.123 79.1699Z" fill="#F37A50"/>
<path d="M162.319 98.0552C162.319 98.0552 161.125 99.467 160.924 99.5728L159.854 98.4068L159.847 98.4268L159.593 99.0938L159.297 99.8731C159.049 99.8731 151.592 98.2054 151.592 98.2054C151.608 97.5341 152.24 95.3597 153.262 93.0449C153.014 91.0844 153.253 89.0463 153.175 87.9162C153.777 84.8845 153.348 83.7205 152.804 82.2921L154.696 81.7344L158.101 82.9336L158.354 82.1136C158.354 82.1136 160.489 82.6251 160.938 82.8728L161.745 86.2346L161.57 93.3772C161.57 93.3772 161.838 96.2531 162.319 98.0552Z" fill="#3F964F"/>
<path d="M155.354 81.3555L154.02 81.9213C154.161 83.5213 157.745 84.4774 157.745 84.4774L158.101 82.9331L155.354 81.3555Z" fill="#0E6A41"/>
<path d="M158.101 82.9334L159.157 84.1046C159.157 84.1046 160.069 83.1619 159.739 82.5793C159.409 81.9966 158.199 81.6035 158.199 81.6035L158.101 82.9334Z" fill="#0E6A41"/>
<path d="M162.401 128.262C162.716 127.435 163.391 127.343 163.391 127.343C164.703 129.09 167.924 128.018 167.817 130.381C162.919 130.351 160.883 130.381 160.883 130.381C160.89 129.838 160.986 128.55 161.099 128.046L161.355 128.091L162.401 128.262Z" fill="#2C2858"/>
<path d="M167.534 131.011H161.169C161.011 131.011 160.883 130.883 160.883 130.726V130.315H167.82V130.726C167.82 130.883 167.692 131.011 167.534 131.011Z" fill="#2C2858"/>
<path d="M159.847 98.4256L159.593 99.0927C159.363 97.5578 158.506 91.1344 158.99 89.3607C159.444 87.6949 158.876 85.9386 158.326 84.2403C158.193 83.8251 158.053 83.3961 157.934 82.9802L158.101 82.9324L158.268 82.8848C158.385 83.2951 158.523 83.7213 158.656 84.1339C159.221 85.8805 159.805 87.6867 159.324 89.4521C158.906 90.9828 159.546 96.2561 159.847 98.4256Z" fill="#0E6A41"/>
<path d="M156.474 130.405C156.474 130.405 156.081 128.94 156.046 128.752C156.007 128.538 155.891 128.032 155.868 127.772C155.862 127.708 155.187 127.296 154.671 127.297C153.973 127.298 153.337 127.702 153.324 127.778C153.241 128.267 153.239 128.842 153.105 129.318C153.006 129.672 152.736 130.498 152.736 130.498L156.474 130.405Z" fill="#2C2858"/>
<path d="M156.474 130.291C156.382 130.581 155.252 130.246 154.427 130.246C153.734 130.246 152.838 130.514 152.736 130.41C152.563 130.715 152.705 131.349 152.705 131.349C152.705 131.349 153.427 131.386 154.293 131.349C155.159 131.311 156.159 131.367 156.536 131.255C156.774 130.858 156.474 130.291 156.474 130.291Z" fill="#2C2858"/>
<path d="M157.921 89.0171C157.921 89.0171 151.954 94.9909 149.636 93.9528C148.871 92.9209 150.494 90.85 152.015 90.1562C153.529 89.4651 156.07 88.376 156.07 88.376L157.921 89.0171Z" fill="#F37A50"/>
<path d="M159.051 86.9882L161.531 85.0776C161.585 85.0365 161.653 85.0195 161.72 85.0308L163.409 85.3367C163.457 85.3448 163.556 85.6391 163.517 85.6686L161.831 86.6805C161.823 86.6866 161.814 86.6904 161.803 86.6915L159.153 87.1456C159.097 87.1518 159.006 87.0225 159.051 86.9882Z" fill="#F9CD2D"/>
<path d="M159.179 87.1699L161.537 85.3725C161.591 85.3314 161.659 85.3143 161.726 85.3257L163.471 85.6202C163.519 85.6283 163.534 85.6901 163.496 85.7196L161.837 86.9753C161.829 86.9815 161.82 86.9853 161.81 86.9864L159.219 87.2696C159.163 87.2758 159.134 87.2041 159.179 87.1699Z" fill="#F9F93A"/>
<path d="M156.005 88.4085L157.399 87.7117C157.399 87.7117 158.282 86.7516 158.558 86.4647C158.911 86.3622 159.598 86.0664 159.738 86.0764C159.878 86.0864 160.114 86.1691 160.114 86.1691L159.308 86.7992C159.308 86.7992 159.636 86.9508 160.098 86.7667C160.559 86.5825 161.418 86.0178 161.749 86.2205C161.854 86.3557 161.854 86.3557 161.854 86.3557C161.854 86.3557 162.145 86.1311 162.32 86.2869C162.861 86.7685 159.374 88.8434 159.374 88.8434L157.921 89.0172L156.005 88.4085Z" fill="#F37A50"/>
<path d="M161.793 85.759C161.695 85.8261 161.574 85.8191 161.522 85.7431C161.47 85.6673 161.507 85.5515 161.605 85.4845C161.704 85.4174 161.825 85.4245 161.877 85.5003C161.929 85.5761 161.892 85.6919 161.793 85.759Z" fill="#F9CD2D"/>
<path d="M167.455 92.7123C167.455 92.7123 164.362 96.2447 162.209 96.7438C162.081 96.036 161.963 95.4937 161.963 95.4937L164.898 91.6348L167.455 92.7123Z" fill="#DE623C"/>
<path d="M161.818 96.9388C161.828 96.9085 161.844 96.8817 161.862 96.8567C161.857 96.8552 161.852 96.8539 161.846 96.8523C161.541 96.7509 161.352 96.4914 161.425 96.2724C161.437 96.2365 161.456 96.2043 161.479 96.1754C161.317 96.05 161.236 95.8733 161.288 95.717C161.308 95.6549 161.348 95.6033 161.401 95.5627C161.231 95.448 161.144 95.2562 161.202 95.0811C161.275 94.8623 161.546 94.7549 161.807 94.8415C162.067 94.9279 162.22 95.1756 162.147 95.3944C162.128 95.4498 162.097 95.4981 162.057 95.5378C162.312 95.6552 162.46 95.8861 162.394 96.0839C162.382 96.1198 162.363 96.152 162.34 96.181C162.502 96.3064 162.584 96.4832 162.532 96.6394C162.512 96.697 162.477 96.7458 162.429 96.785C162.585 96.8801 162.667 97.0494 162.615 97.2033C162.554 97.3882 162.325 97.4788 162.105 97.4057C161.885 97.3328 161.756 97.1237 161.818 96.9388Z" fill="#DE623C"/>
<path d="M155.138 76.6521C155.497 77.212 155.417 77.9035 154.958 78.197C154.499 78.4905 153.836 78.2745 153.477 77.7149C153.118 77.1553 153.199 76.4636 153.658 76.1701C154.116 75.8767 154.779 76.0925 155.138 76.6521Z" fill="#F37A50"/>
<path d="M154.392 77.8666C154.414 77.8639 154.435 77.8562 154.455 77.8434C154.734 77.6578 154.853 77.3802 154.771 77.1008C154.688 76.8146 154.42 76.6026 154.135 76.5967C154.055 76.5951 153.988 76.6588 153.986 76.739C153.985 76.8193 154.048 76.8857 154.129 76.8874C154.285 76.8906 154.445 77.02 154.492 77.1818C154.537 77.3375 154.467 77.4864 154.294 77.6012C154.227 77.6457 154.208 77.7359 154.253 77.8027C154.284 77.8501 154.339 77.873 154.392 77.8666Z" fill="#DE623C"/>
<path d="M14.7112 99.69C16.1315 102.284 15.1773 105.536 12.58 106.955C9.9827 108.373 6.7258 107.42 5.30563 104.826C3.88539 102.233 4.83962 98.9799 7.4369 97.5616C10.0341 96.1432 13.291 97.0962 14.7112 99.69Z" fill="white"/>
<path d="M11.6975 106.058L11.2077 105.163C10.6885 105.435 10.069 105.567 9.63739 105.515L9.52536 104.805C9.961 104.843 10.5143 104.76 11.011 104.489C11.6407 104.145 11.8676 103.549 11.5912 103.044C11.3245 102.557 10.8136 102.445 10.0119 102.537C8.91331 102.677 8.13145 102.575 7.70952 101.804C7.30702 101.069 7.52476 100.225 8.26798 99.647L7.77818 98.7524L8.32809 98.4521L8.79853 99.3113C9.34039 99.0383 9.78161 98.9815 10.1212 98.9917L10.2196 99.6973C9.97514 99.6927 9.50484 99.6964 8.93717 100.006C8.25428 100.379 8.22013 100.927 8.41416 101.281C8.66635 101.742 9.12054 101.793 10.0668 101.691C11.184 101.564 11.8974 101.772 12.3289 102.561C12.7121 103.26 12.5832 104.182 11.7521 104.832L12.2565 105.753L11.6975 106.058Z" fill="#E3EAFF"/>
<path d="M183.42 83.3836C182.148 86.053 178.95 87.1872 176.277 85.917C173.604 84.6467 172.468 81.453 173.74 78.7835C175.012 76.1141 178.21 74.9798 180.883 76.2501C183.556 77.5203 184.692 80.7141 183.42 83.3836Z" fill="white"/>
<path d="M176.486 84.6789L176.925 83.7583C176.4 83.4976 175.93 83.0733 175.719 82.6936L176.23 82.187C176.454 82.562 176.846 82.9606 177.357 83.2035C178.005 83.5115 178.621 83.346 178.869 82.8264C179.108 82.325 178.9 81.8459 178.354 81.2515C177.597 80.4444 177.222 79.7518 177.6 78.9589C177.96 78.2023 178.773 77.884 179.677 78.1463L180.116 77.2256L180.682 77.4946L180.261 78.3788C180.8 78.6572 181.104 78.9809 181.295 79.2617L180.78 79.7549C180.641 79.5545 180.362 79.176 179.778 78.8985C179.075 78.5645 178.611 78.8579 178.437 79.2226C178.211 79.6966 178.436 80.0941 179.074 80.7997C179.831 81.6291 180.08 82.3288 179.694 83.14C179.35 83.8601 178.527 84.2961 177.513 84.0043L177.061 84.9523L176.486 84.6789Z" fill="#E3EAFF"/>
<path d="M166.43 29.0001C167.624 31.7056 166.395 34.8649 163.686 36.0565C160.977 37.2481 157.813 36.021 156.62 33.3156C155.427 30.61 156.655 27.4508 159.365 26.2592C162.074 25.0676 165.237 26.2947 166.43 29.0001Z" fill="#D4DEFF"/>
<path d="M162.883 35.088L162.472 34.1549C161.931 34.3817 161.303 34.4595 160.877 34.371L160.826 33.6543C161.257 33.7296 161.815 33.6937 162.333 33.4657C162.99 33.1768 163.267 32.6028 163.035 32.0762C162.811 31.5681 162.311 31.4127 161.505 31.4366C160.398 31.4821 159.628 31.3135 159.273 30.5098C158.935 29.743 159.224 28.9209 160.014 28.408L159.603 27.4749L160.176 27.2227L160.571 28.1188C161.135 27.8931 161.579 27.8741 161.917 27.9131L161.954 28.6246C161.711 28.5991 161.242 28.5627 160.65 28.8232C159.938 29.1365 159.857 29.6795 160.02 30.049C160.232 30.5294 160.68 30.6189 161.632 30.5976C162.756 30.5665 163.449 30.8353 163.811 31.6575C164.133 32.3874 163.926 33.2947 163.042 33.8709L163.466 34.8317L162.883 35.088Z" fill="white"/>
<path d="M0.0410156 62.2773L3.57939 55.6855C3.57939 55.6855 7.89601 56.0542 9.87733 61.0494C11.1055 64.1458 15.274 65.7523 15.274 65.7523L11.7167 72.3791C11.7167 72.3791 6.27522 70.9246 4.93111 67.3613C3.50964 63.5929 0.0410156 62.2773 0.0410156 62.2773Z" fill="#D4DEFF"/>
<path d="M9.73887 66.2976C8.56581 67.2824 6.68224 66.9727 5.53181 65.6059C4.38145 64.2392 4.3998 62.3328 5.57285 61.3482C6.74591 60.3634 8.62948 60.6731 9.77984 62.0398C10.9303 63.4066 10.9119 65.3129 9.73887 66.2976Z" fill="#E3EAFF"/>
<path d="M140.379 19.4887L135.398 13.9028C135.398 13.9028 137.23 9.98199 142.608 9.84274C145.942 9.75642 148.887 6.40039 148.887 6.40039L153.893 12.0158C153.893 12.0158 150.654 16.6179 146.841 16.6523C142.809 16.6888 140.379 19.4887 140.379 19.4887Z" fill="#D4DEFF"/>
<path d="M147.495 11.7774C148.017 13.2161 147.078 14.8757 145.397 15.4842C143.716 16.0927 141.931 15.4196 141.408 13.9809C140.886 12.542 141.825 10.8825 143.506 10.2739C145.187 9.66544 146.973 10.3386 147.495 11.7774Z" fill="#E3EAFF"/>
<path d="M173.093 103.237L173.906 97.1888C173.906 97.1888 177.31 96.2359 180.256 99.4859C182.082 101.5 185.728 101.535 185.728 101.535L184.91 107.616C184.91 107.616 180.336 108.061 178.287 105.723C176.12 103.25 173.093 103.237 173.093 103.237Z" fill="#D4DEFF"/>
<path d="M181.655 103.534C181.042 104.622 179.514 104.924 178.243 104.209C176.972 103.494 176.439 102.032 177.053 100.944C177.667 99.8565 179.195 99.5544 180.466 100.27C181.737 100.985 182.269 102.447 181.655 103.534Z" fill="#E3EAFF"/>
<path d="M94.8044 47.5361L93.9645 41.2897C93.9645 41.2897 90.4493 40.3057 87.4066 43.662C85.5206 45.7425 81.7556 45.7788 81.7556 45.7788L82.5999 52.0583C82.5999 52.0583 87.3243 52.5179 89.4401 50.1033C91.6778 47.5497 94.8044 47.5361 94.8044 47.5361Z" fill="#D4DEFF"/>
<path d="M85.9615 47.8445C86.5955 48.968 88.1734 49.28 89.4859 48.5414C90.7984 47.8027 91.3484 46.2931 90.7145 45.1696C90.0804 44.0461 88.5026 43.7342 87.1901 44.4728C85.8777 45.2115 85.3276 46.721 85.9615 47.8445Z" fill="#E3EAFF"/>
<path d="M70.823 110.856H39.1684C37.762 110.856 36.6218 109.717 36.6218 108.312V101.626C36.6218 100.222 37.762 99.083 39.1684 99.083H70.823C72.2294 99.083 73.3696 100.222 73.3696 101.626V108.312C73.3696 109.717 72.2294 110.856 70.823 110.856Z" fill="#E3EAFF"/>
<path d="M48.0369 103.313V106.626C48.0369 107.518 47.3126 108.242 46.4185 108.242H40.1465C39.8173 108.242 39.5106 108.143 39.2546 107.974C38.8174 107.685 38.5288 107.189 38.5288 106.626V103.313C38.5288 102.421 39.2532 101.697 40.1465 101.697H46.4185C46.7833 101.697 47.1204 101.818 47.3909 102.022C47.7832 102.316 48.0369 102.785 48.0369 103.313Z" fill="#D6224C"/>
<path d="M60.8212 106.317H50.4136C49.6685 106.317 49.0645 105.713 49.0645 104.969C49.0645 104.225 49.6685 103.622 50.4136 103.622H60.8212C61.5663 103.622 62.1703 104.225 62.1703 104.969C62.1703 105.713 61.5663 106.317 60.8212 106.317Z" fill="#95A6DB"/>
<path d="M70.1137 106.317H64.8984C64.1533 106.317 63.5493 105.713 63.5493 104.969C63.5493 104.225 64.1533 103.622 64.8984 103.622H70.1137C70.8588 103.622 71.4628 104.225 71.4628 104.969C71.4628 105.713 70.8589 106.317 70.1137 106.317Z" fill="#4EAD60"/>
<path d="M47.3909 102.022L39.2546 107.974C38.8174 107.685 38.5288 107.189 38.5288 106.626V103.313C38.5288 102.421 39.2532 101.697 40.1465 101.697H46.4185C46.7833 101.697 47.1204 101.818 47.3909 102.022Z" fill="#E62552"/>
<path d="M44.881 107.467C45.4818 107.449 45.9545 106.949 45.9368 106.349C45.9191 105.749 45.4178 105.277 44.817 105.294C44.2163 105.312 43.7436 105.813 43.7612 106.413C43.7789 107.012 44.2803 107.485 44.881 107.467Z" fill="#FAC832"/>
<path d="M47.2251 106.379C47.2251 106.979 46.7379 107.466 46.1369 107.466C45.5358 107.466 45.0486 106.979 45.0486 106.379C45.0486 105.779 45.5358 105.292 46.1369 105.292C46.7379 105.292 47.2251 105.779 47.2251 106.379Z" fill="#95A6DB"/>
<path d="M70.823 125.119H39.1684C37.762 125.119 36.6218 123.981 36.6218 122.576V115.89C36.6218 114.485 37.762 113.347 39.1684 113.347H70.823C72.2294 113.347 73.3696 114.485 73.3696 115.89V122.576C73.3696 123.981 72.2294 125.119 70.823 125.119Z" fill="#E3EAFF"/>
<path d="M48.0369 117.577V120.889C48.0369 121.782 47.3126 122.506 46.4185 122.506H40.1465C39.8173 122.506 39.5106 122.407 39.2546 122.238C38.8174 121.949 38.5288 121.453 38.5288 120.889V117.577C38.5288 116.684 39.2532 115.961 40.1465 115.961H46.4185C46.7833 115.961 47.1204 116.082 47.3909 116.286C47.7832 116.58 48.0369 117.049 48.0369 117.577Z" fill="#FABA23"/>
<path d="M60.8212 120.58H50.4136C49.6685 120.58 49.0645 119.977 49.0645 119.233C49.0645 118.489 49.6685 117.886 50.4136 117.886H60.8212C61.5663 117.886 62.1703 118.489 62.1703 119.233C62.1703 119.977 61.5663 120.58 60.8212 120.58Z" fill="#95A6DB"/>
<path d="M70.1137 120.58H64.8984C64.1533 120.58 63.5493 119.977 63.5493 119.233C63.5493 118.489 64.1533 117.886 64.8984 117.886H70.1137C70.8588 117.886 71.4628 118.489 71.4628 119.233C71.4628 119.977 70.8589 120.58 70.1137 120.58Z" fill="#4EAD60"/>
<path d="M47.3909 116.286L39.2546 122.238C38.8174 121.949 38.5288 121.453 38.5288 120.889V117.577C38.5288 116.684 39.2532 115.961 40.1465 115.961H46.4185C46.7833 115.961 47.1204 116.082 47.3909 116.286Z" fill="#FAD332"/>
<path d="M45.9328 120.643C45.9328 121.244 45.4456 121.73 44.8446 121.73C44.2435 121.73 43.7563 121.244 43.7563 120.643C43.7563 120.043 44.2435 119.557 44.8446 119.557C45.4456 119.557 45.9328 120.043 45.9328 120.643Z" fill="#E62552"/>
<path d="M47.2251 120.643C47.2251 121.244 46.7379 121.73 46.1369 121.73C45.5358 121.73 45.0486 121.244 45.0486 120.643C45.0486 120.043 45.5358 119.557 46.1369 119.557C46.7379 119.557 47.2251 120.043 47.2251 120.643Z" fill="#95A6DB"/>
</svg>
