<svg width="270" height="210" viewBox="0 0 270 210" fill="none" xmlns="http://www.w3.org/2000/svg">
<path d="M187.384 202.533C187.2 202.541 187.019 202.492 186.864 202.392C186.709 202.292 186.588 202.146 186.517 201.973C186.447 201.801 186.429 201.61 186.469 201.428C186.508 201.245 186.601 201.079 186.735 200.952L186.797 200.703C186.789 200.683 186.78 200.663 186.772 200.644C186.588 200.199 186.278 199.82 185.883 199.554C185.488 199.288 185.025 199.147 184.551 199.149C184.078 199.151 183.615 199.295 183.222 199.564C182.829 199.833 182.522 200.214 182.341 200.66C181.616 202.44 180.694 204.223 180.466 206.105C180.366 206.937 180.409 207.78 180.591 208.598C178.889 204.811 178.005 200.696 177.999 196.531C177.999 195.485 178.056 194.441 178.17 193.402C178.264 192.551 178.395 191.705 178.562 190.866C179.474 186.311 181.433 182.042 184.278 178.409C185.655 177.643 186.768 176.465 187.468 175.034C187.721 174.52 187.901 173.971 188 173.404C187.845 173.425 187.414 171.013 187.532 170.865C187.315 170.53 186.928 170.363 186.691 170.037C185.516 168.411 183.896 168.695 183.051 170.904C181.244 171.833 181.227 173.375 182.335 174.858C183.04 175.801 183.137 177.077 183.756 178.087C183.692 178.17 183.626 178.251 183.562 178.334C182.399 179.86 181.385 181.498 180.535 183.225C180.741 181.29 180.495 179.332 179.815 177.514C179.126 175.818 177.834 174.391 176.697 172.925C175.33 171.165 172.529 171.933 172.288 174.165C172.286 174.186 172.283 174.208 172.281 174.229C172.45 174.327 172.616 174.43 172.777 174.539C172.981 174.677 173.138 174.875 173.229 175.107C173.32 175.338 173.341 175.592 173.288 175.835C173.235 176.079 173.111 176.3 172.933 176.471C172.754 176.641 172.53 176.753 172.288 176.79L172.263 176.794C172.324 177.415 172.43 178.031 172.582 178.635C171.122 184.389 174.273 186.485 178.771 186.579C178.87 186.631 178.967 186.683 179.066 186.733C178.212 189.201 177.676 191.772 177.472 194.381C177.357 195.92 177.364 197.467 177.493 199.005L177.485 198.95C177.159 197.24 176.264 195.696 174.952 194.581C173.002 192.948 170.248 192.346 168.145 191.034C167.922 190.888 167.662 190.809 167.396 190.809C167.13 190.808 166.87 190.885 166.646 191.03C166.422 191.175 166.243 191.383 166.131 191.628C166.018 191.874 165.977 192.147 166.012 192.415C166.015 192.434 166.018 192.454 166.021 192.473C166.334 192.603 166.639 192.753 166.935 192.922C167.104 193.019 167.269 193.122 167.431 193.231C167.634 193.37 167.792 193.568 167.883 193.799C167.974 194.03 167.994 194.284 167.941 194.528C167.888 194.771 167.765 194.993 167.586 195.163C167.408 195.333 167.183 195.445 166.942 195.483L166.917 195.487C166.899 195.489 166.884 195.492 166.866 195.495C167.402 196.799 168.153 197.999 169.089 199.044C170.001 204.067 173.92 204.544 178.111 203.081H178.114C178.574 205.119 179.24 207.102 180.102 209H187.206C187.231 208.92 187.254 208.836 187.277 208.756C186.619 208.798 185.959 208.758 185.311 208.637C185.838 207.977 186.365 207.312 186.893 206.653C186.904 206.641 186.915 206.628 186.926 206.614C187.193 206.277 187.463 205.942 187.73 205.604L187.73 205.604C187.745 204.569 187.628 203.537 187.384 202.533Z" fill="#F2F2F2"/>
<path d="M135 86C126.693 86 118.573 83.5368 111.666 78.9217C104.759 74.3067 99.376 67.7472 96.1971 60.0727C93.0182 52.3982 92.1865 43.9534 93.807 35.8062C95.4276 27.659 99.4277 20.1753 105.302 14.3015C111.175 8.42773 118.659 4.42762 126.806 2.80704C134.953 1.18646 143.398 2.0182 151.073 5.19708C158.747 8.37596 165.307 13.7592 169.922 20.6661C174.537 27.5729 177 35.6932 177 44C176.987 55.1352 172.558 65.8108 164.685 73.6846C156.811 81.5583 146.135 85.9874 135 86ZM135 2.66144C126.824 2.66144 118.832 5.0859 112.034 9.62824C105.235 14.1706 99.937 20.6268 96.8081 28.1804C93.6793 35.7341 92.8607 44.0459 94.4557 52.0648C96.0508 60.0837 99.9879 67.4495 105.769 73.2308C111.551 79.0121 118.916 82.9492 126.935 84.5443C134.954 86.1393 143.266 85.3207 150.82 82.1919C158.373 79.0631 164.829 73.7646 169.372 66.9665C173.914 60.1684 176.339 52.176 176.339 44C176.326 33.0401 171.967 22.5327 164.217 14.7829C156.467 7.0331 145.96 2.67382 135 2.66144Z" fill="#F2F2F2"/>
<path d="M139.378 59H130.622C130.192 59 129.779 58.7893 129.475 58.4142C129.171 58.0391 129 57.5304 129 57C129 56.4696 129.171 55.9609 129.475 55.5858C129.779 55.2107 130.192 55 130.622 55H139.378C139.808 55 140.221 55.2107 140.525 55.5858C140.829 55.9609 141 56.4696 141 57C141 57.5304 140.829 58.0391 140.525 58.4142C140.221 58.7893 139.808 59 139.378 59Z" fill="#E6E6E6"/>
<path d="M141.568 107H128.432C127.787 107 127.169 106.789 126.712 106.414C126.256 106.039 126 105.53 126 105C126 104.47 126.256 103.961 126.712 103.586C127.169 103.211 127.787 103 128.432 103H141.568C142.213 103 142.831 103.211 143.288 103.586C143.744 103.961 144 104.47 144 105C144 105.53 143.744 106.039 143.288 106.414C142.831 106.789 142.213 107 141.568 107Z" fill="#004C99"/>
<path d="M179.04 97H90.9602C90.1754 96.9991 89.423 96.6887 88.868 96.1368C88.3131 95.585 88.0009 94.8368 88 94.0563V67.9437C88.0009 67.1632 88.3131 66.415 88.868 65.8632C89.423 65.3113 90.1754 65.0009 90.9602 65H179.04C179.825 65.0009 180.577 65.3113 181.132 65.8632C181.687 66.415 181.999 67.1632 182 67.9437V94.0563C181.999 94.8368 181.687 95.585 181.132 96.1368C180.577 96.6887 179.825 96.9991 179.04 97Z" fill="#E6E6E6"/>
<path d="M170.479 95H92.96C92.1752 94.9991 91.4229 94.689 90.868 94.1377C90.3131 93.5864 90.0009 92.8389 90 92.0592V69.9408C90.0009 69.1611 90.3131 68.4136 90.868 67.8623C91.4229 67.311 92.1752 67.0009 92.96 67H177.04C177.825 67.0009 178.577 67.311 179.132 67.8623C179.687 68.4136 179.999 69.1611 180 69.9408V85.5408C179.997 88.0487 178.993 90.453 177.208 92.2263C175.423 93.9997 173.003 94.9972 170.479 95Z" fill="white"/>
<path d="M144.214 75H107.786C107.577 75 107.377 74.8946 107.23 74.7071C107.083 74.5196 107 74.2652 107 74C107 73.7348 107.083 73.4804 107.23 73.2929C107.377 73.1054 107.577 73 107.786 73H144.214C144.423 73 144.623 73.1054 144.77 73.2929C144.917 73.4804 145 73.7348 145 74C145 74.2652 144.917 74.5196 144.77 74.7071C144.623 74.8946 144.423 75 144.214 75Z" fill="#004C99"/>
<path d="M162.221 78H107.779C107.573 78 107.374 77.8946 107.228 77.7071C107.082 77.5196 107 77.2652 107 77C107 76.7348 107.082 76.4804 107.228 76.2929C107.374 76.1054 107.573 76 107.779 76H162.221C162.427 76 162.626 76.1054 162.772 76.2929C162.918 76.4804 163 76.7348 163 77C163 77.2652 162.918 77.5196 162.772 77.7071C162.626 77.8946 162.427 78 162.221 78Z" fill="#E6E6E6"/>
<path d="M162.222 82H107.781C107.679 82.0003 107.577 81.9746 107.482 81.9245C107.388 81.8743 107.301 81.8007 107.229 81.7078C107.156 81.615 107.099 81.5046 107.059 81.3832C107.02 81.2617 107 81.1315 107 81C107 80.8685 107.02 80.7383 107.059 80.6168C107.099 80.4954 107.156 80.385 107.229 80.2922C107.301 80.1993 107.388 80.1257 107.482 80.0755C107.577 80.0254 107.679 79.9997 107.781 80H162.222C162.429 80.0006 162.626 80.1061 162.772 80.2936C162.918 80.4811 163 80.7351 163 81C163 81.2649 162.918 81.5189 162.772 81.7064C162.626 81.8938 162.429 81.9994 162.222 82Z" fill="#E6E6E6"/>
<path d="M162.222 85H107.781C107.679 85.0001 107.577 84.9873 107.482 84.9622C107.388 84.9372 107.301 84.9004 107.229 84.8539C107.156 84.8075 107.099 84.7523 107.059 84.6916C107.02 84.6308 107 84.5657 107 84.5C107 84.4343 107.02 84.3691 107.059 84.3084C107.099 84.2477 107.156 84.1925 107.229 84.1461C107.301 84.0996 107.388 84.0628 107.482 84.0378C107.577 84.0127 107.679 83.9999 107.781 84H162.222C162.429 84.0003 162.626 84.0531 162.772 84.1468C162.918 84.2406 163 84.3676 163 84.5C163 84.6324 162.918 84.7594 162.772 84.8532C162.626 84.9469 162.429 84.9997 162.222 85Z" fill="#E6E6E6"/>
<path d="M162.222 89H107.781C107.679 89.0003 107.577 88.9746 107.482 88.9245C107.388 88.8743 107.301 88.8007 107.229 88.7078C107.156 88.615 107.099 88.5046 107.059 88.3832C107.02 88.2617 107 88.1315 107 88C107 87.8685 107.02 87.7383 107.059 87.6168C107.099 87.4954 107.156 87.385 107.229 87.2922C107.301 87.1993 107.388 87.1257 107.482 87.0755C107.577 87.0254 107.679 86.9997 107.781 87H162.222C162.429 87.0006 162.626 87.1062 162.772 87.2936C162.918 87.4811 163 87.7351 163 88C163 88.2649 162.918 88.5189 162.772 88.7064C162.626 88.8939 162.429 88.9994 162.222 89Z" fill="#E6E6E6"/>
<path d="M206.999 206L203.612 206L202 192L207 192L206.999 206Z" fill="#A0616A"/>
<path d="M208 209L196 209V208.859C196 207.713 196.492 206.614 197.368 205.804C198.244 204.994 199.432 204.538 200.671 204.538L202.863 203L206.952 204.539L208 204.539L208 209Z" fill="#2F2E41"/>
<path d="M237 201.293L233.752 203L226 190.52L230.794 188L237 201.293Z" fill="#A0616A"/>
<path d="M239 204.031L228.538 209L228.472 208.873C227.937 207.838 227.853 206.641 228.238 205.546C228.624 204.451 229.447 203.548 230.527 203.035L231.72 200.737L236.004 200.434L236.917 200L239 204.031Z" fill="#2F2E41"/>
<path d="M197.174 132.713C197.174 132.713 193.148 138.301 196.054 147.955C198.959 157.609 197.328 166.24 198.144 167.971C198.959 169.702 200.601 171.345 199.245 172.657C197.888 173.97 197.174 175.037 198.245 175.392C199.317 175.748 202.888 200.644 202.888 200.644L208.96 201C208.96 201 211.16 189.435 208.81 180.102C208.81 180.102 209.326 173.326 208.25 171.336C207.174 169.346 207.385 171.141 207.459 168.643C207.499 166.836 207.763 165.042 208.246 163.3C208.603 161.877 208.81 147.538 208.81 147.538L214.721 166.566C214.958 167.222 215.047 167.921 214.982 168.615C214.835 169.595 214.834 171.06 215.013 171.572C215.193 172.085 215.392 172.193 215.292 173.206C215.193 174.219 227.089 195.575 227.089 195.575L233 191.626L227.176 172.903C226.598 172.265 226.117 171.546 225.748 170.769C225.033 169.346 225.005 169.268 225.377 168.24C225.748 167.212 225.748 165.21 225.748 164.61C225.748 164.011 226.119 136.804 221.468 132.802C216.818 128.8 197.174 132.713 197.174 132.713Z" fill="#2F2E41"/>
<path d="M219.5 88.5841L218.248 85.0903L214.83 81.7382L208.523 81L204.418 83.6463L200.616 87.3215L195 133.025C195 133.025 221.525 143.051 225 134.637L219.5 88.5841Z" fill="#CCCCCC"/>
<path d="M221.191 88.6003L217.647 85C217.647 85 215.955 108.01 216.676 109.628C217.397 111.247 218.246 110.834 217.328 111.708C216.41 112.583 215.424 111.715 216.41 113.318C216.992 114.217 217.277 115.281 217.225 116.355C217.225 116.355 222.329 149 225.288 149C228.247 149 230.1 148.12 229.996 147.223C229.891 146.327 228.146 144.096 228.69 143.541C229.234 142.986 230.575 143.405 229.247 142.36C227.919 141.316 227.261 141.65 227.59 140.313C227.919 138.977 225.405 121.652 225.405 121.652L225.16 92.7149L221.191 88.6003Z" fill="#3F3D56"/>
<path d="M204 84L199.367 84.6578L193.858 86.7676C193.858 86.7676 196.374 115.246 195.849 116.199C195.324 117.153 194.39 116.557 195.189 117.521C195.988 118.485 196.706 118.058 195.849 118.938C194.992 119.818 193.549 118.703 194.436 120.26C195.324 121.817 191.047 143.252 192.198 144.402C193.35 145.552 196.317 144.836 196.318 143.987C196.228 143.072 195.883 142.201 195.324 141.473C195.163 141.288 195.075 141.051 195.075 140.806C195.075 140.561 195.163 140.325 195.324 140.14C195.794 139.686 196.117 139.1 196.251 138.459C196.32 137.808 196.827 137.008 197.071 136.408C197.316 135.809 203.472 95.2346 203.472 95.2346L204 84Z" fill="#3F3D56"/>
<path d="M184.978 107L187 105.86C184.476 103.4 178.213 99.3756 178.213 99.3756L167.418 91.5138C167.26 91.1119 167.007 90.762 166.684 90.4995C166.361 90.2369 165.98 90.0709 165.579 90.0182C165.177 89.9655 164.77 90.0278 164.399 90.199C164.027 90.3702 163.703 90.6442 163.461 90.9934C163.218 91.3427 163.065 91.7548 163.017 92.1883C162.968 92.6218 163.026 93.0614 163.185 93.4629C163.344 93.8644 163.598 94.2136 163.922 94.4753C164.245 94.737 164.627 94.902 165.028 94.9537L177.125 106.662L184.978 107Z" fill="#A0616A"/>
<path d="M199.977 97.4887L200 88.4116L194.887 86L181.992 99.4596L180.993 98.8026H178.662L173 105.372C173 105.372 176.016 107.135 177.505 106.418C178.995 105.701 178.855 106.731 178.855 106.731C179.076 107.005 179.384 107.198 179.73 107.278C180.075 107.358 180.438 107.321 180.76 107.173C181.992 106.686 184.324 108 184.324 108L199.977 97.4887Z" fill="#3F3D56"/>
<path d="M212 79C216.418 79 220 75.6421 220 71.5C220 67.3579 216.418 64 212 64C207.582 64 204 67.3579 204 71.5C204 75.6421 207.582 79 212 79Z" fill="#A0616A"/>
<path d="M221.317 73.3347C220.602 74.7524 219.643 76.0291 218.484 77.1043C218.151 77.4875 217.726 77.7774 217.251 77.9464C217.012 78.0253 216.753 78.0168 216.52 77.9225C216.287 77.8281 216.093 77.6537 215.974 77.4298L215.833 77.2355C216.239 77.1097 216.622 76.9178 216.967 76.6673C217.138 76.5412 217.278 76.3754 217.373 76.1838C217.468 75.9921 217.517 75.7802 217.516 75.5656C217.503 75.3512 217.409 75.1499 217.254 75.0041C217.098 74.8583 216.892 74.7793 216.68 74.7837C216.207 74.8407 215.784 75.4005 215.36 75.1848C215.018 75.0084 215.067 74.5034 215.165 74.1221C215.692 72.1322 215.472 69.0478 214.713 68.94C213.959 68.7844 213.24 68.4864 212.595 68.0615C211.948 67.636 211.226 67.3418 210.469 67.1955C210.415 67.1882 210.359 67.1843 210.301 67.1795C210.279 66.7692 210.208 66.363 210.09 65.9699C210.008 66.385 209.882 66.7901 209.716 67.1783C209.06 67.2689 208.397 67.3028 207.736 67.2797C207.031 67.1968 205.004 68.8613 204.989 68.6323C204.967 68.222 204.897 67.8158 204.779 67.4227C204.697 67.8378 204.571 68.2429 204.404 68.6311C204.396 68.6469 204.393 68.6603 204.385 68.6762C204.17 68.144 204.108 67.5489 204.114 67.9933C203.661 65.1656 204.558 63.463 206.849 61.7862C207.307 61.4164 207.849 61.1703 208.426 61.071C208.715 61.0243 209.01 61.0536 209.284 61.1561C209.557 61.2586 209.8 61.4307 209.989 61.656C210.869 61.1847 211.857 60.9602 212.851 61.0058C213.845 61.0514 214.809 61.3655 215.642 61.9155C217.29 63.0339 218.59 63.7779 218.371 65.7778C219.932 65.9301 221.252 67.2009 221.745 68.7069C222.234 70.2154 221.98 71.8988 221.317 73.3347Z" fill="#2F2E41"/>
<path d="M231 111.797L225.682 111C223.883 114.147 223.244 122.522 223.244 122.522L218.039 135.465C217.695 135.71 217.418 136.046 217.236 136.439C217.055 136.831 216.976 137.267 217.006 137.701C217.037 138.136 217.177 138.555 217.411 138.915C217.646 139.275 217.967 139.565 218.342 139.754C218.718 139.943 219.134 140.026 219.55 139.993C219.965 139.96 220.365 139.814 220.709 139.568C221.053 139.322 221.33 138.986 221.51 138.593C221.69 138.2 221.769 137.764 221.737 137.329L230.283 122.264L231 111.797Z" fill="#A0616A"/>
<path d="M218 94.1028L220.404 91L225.28 93.1228L229.335 107.778C229.335 107.778 232.296 109.584 231.664 110.857C231.032 112.131 230.697 113.159 231.35 113.889C232.003 114.618 233.904 114.672 232.488 115.862C231.071 117.052 232.284 120.161 232.284 120.161L230.926 123L222.447 122.669L218 94.1028Z" fill="#3F3D56"/>
<path d="M34.1172 139.491C34.66 139.101 35.0153 138.533 35.1073 137.907C35.1993 137.281 35.0209 136.647 34.6099 136.139C34.5246 136.037 34.4302 135.942 34.3277 135.854L38 128.092L34.3528 125L30.5782 136.132C30.2139 136.549 30.0108 137.065 30.0004 137.599C29.9901 138.133 30.1731 138.655 30.5209 139.084C30.7214 139.326 30.9721 139.529 31.2586 139.683C31.5451 139.836 31.8618 139.937 32.1906 139.978C32.5195 140.02 32.854 140.002 33.1752 139.925C33.4964 139.848 33.7978 139.714 34.0624 139.53C34.0809 139.517 34.0991 139.504 34.1172 139.491Z" fill="#FFB6B6"/>
<path d="M54 88.9775C54 88.9775 51.5266 84.2879 45.7887 89.3523C40.0508 94.4167 33.2705 119.766 33.4021 120.719C33.5338 121.672 34.9362 121.295 33.1624 122.668C31.3885 124.04 30.4077 122.807 31.3885 124.04C32.3693 125.272 34.5626 126.579 32.6206 126.762C30.6785 126.945 37.7978 130 37.7978 130C37.7978 130 38.9176 129.732 39.2612 127.155C39.4542 125.708 38.8003 124.886 39.9513 124.645C41.1023 124.403 40.0235 121.786 40.1891 121.374C40.3548 120.962 49.5454 102.975 49.5454 102.975L54 88.9775Z" fill="#004C99"/>
<path d="M66.0011 205L70.7435 205L73 188L66 188L66.0011 205Z" fill="#FFB6B6"/>
<path d="M66.0002 209L79 208.999V208.836C78.9999 207.499 78.4668 206.217 77.5179 205.271C76.569 204.326 75.2821 203.795 73.9401 203.795H73.9398L71.5652 202L67.1348 203.795L66 203.795L66.0002 209Z" fill="#2F2E41"/>
<path d="M36 196.533L39.5815 199L51 186.641L45.7133 183L36 196.533Z" fill="#FFB6B6"/>
<path d="M33 200.364L43.9542 208L44.0516 207.863C44.8466 206.742 45.1599 205.353 44.9226 204.003C44.6852 202.653 43.9167 201.452 42.786 200.664L41.8523 197.764L37.0515 196.667L36.0953 196L33 200.364Z" fill="#2F2E41"/>
<path d="M49.2355 123.742L48.8799 124.486C46.5422 129.38 45.9445 134.85 46.8529 140.179C46.9205 140.387 46.9076 140.612 46.8167 140.812C46.2533 141.459 47.1372 144.272 47.6439 145.843L48.1006 148.621C48.1006 148.621 47.3433 151.201 48.4935 151.011C49.6438 150.822 47.931 153.574 49.0281 154.263L51.8743 171.575L40 190.751L44.3979 197L61.9894 174.807L62.2093 154.769L64.848 170.929L65.0679 196.354L73.0687 195.52L76 170.87L73.2039 136.781L68.8061 122L49.2355 123.742Z" fill="#2F2E41"/>
<path d="M54.6548 79L61.1032 79.3061L64.1868 84.6169C65.5542 85.0258 66.812 85.7357 67.8674 86.6941C68.9228 87.6526 69.7488 88.8351 70.2844 90.1543L72.2923 95.0998L70.0081 123.694C70.0081 123.694 69.5503 125.423 70.3933 125.171C71.2364 124.918 70.8928 127.086 70.8928 127.086L74 139L45.7499 136.551L47.3185 123.928C47.3185 123.928 45.1376 123.998 46.6711 122.469C48.2046 120.941 48.9503 121.428 47.4772 119.62C46.0041 117.813 45.7851 116.503 45.7851 116.503L45.1278 107.548L44.0444 94.9467C43.8725 92.9471 44.2018 90.9362 45.0027 89.095C45.8037 87.2538 47.0511 85.6399 48.6329 84.3985L54.6548 79Z" fill="#004C99"/>
<path d="M58 78C62.4183 78 66 74.1944 66 69.5C66 64.8056 62.4183 61 58 61C53.5817 61 50 64.8056 50 69.5C50 74.1944 53.5817 78 58 78Z" fill="#FFB6B6"/>
<path d="M54.8932 77C57.19 76.9245 57.3986 76.317 59.6954 76.2416C60.4267 76.2175 61.2896 76.1172 61.6432 75.4756C61.7461 75.2353 61.7919 74.9743 61.7771 74.7132C61.7622 74.4522 61.6871 74.1981 61.5575 73.971C61.2955 73.5203 61.0592 73.0549 60.85 72.5772C60.7239 72.2026 60.6909 71.8029 60.7537 71.4126C60.8164 71.0224 60.9732 70.6533 61.2103 70.3373C61.4475 70.0213 61.7579 69.7679 62.1148 69.5989C62.4717 69.43 62.8643 69.3507 63.2586 69.3677C63.9576 69.398 64.614 69.7271 65.311 69.7873C66.2669 69.8698 68.3806 66.7092 67.9405 65.8554C67.5121 65.0244 66.65 64.3974 66.5145 63.472C66.4258 62.8668 66.6753 62.2655 66.7094 61.6547C66.7599 60.7492 64.4677 62.791 64.8875 61.9873C65.9173 60.0159 56.2132 57.5719 54.6156 60.0413C54.0185 60.9642 52.9544 60.9012 52.006 61.4555C51.3843 61.8188 49.8147 63.072 49.4578 63.8532C49.1299 64.6503 48.975 65.508 49.0033 66.3696C48.9889 70.3766 49.5985 74.0625 52.826 76.431" fill="#2F2E41"/>
<path d="M77.9762 139.365C77.4855 138.92 77.1839 138.298 77.1354 137.629C77.0869 136.961 77.2954 136.299 77.7166 135.786C77.8038 135.682 77.8992 135.587 78.0018 135.5L75 127.064L78.6506 124L81.5407 136.011C81.8603 136.474 82.0211 137.033 81.9978 137.599C81.9745 138.165 81.7686 138.708 81.4121 139.142C81.207 139.387 80.9566 139.588 80.6754 139.734C80.3942 139.88 80.0876 139.968 79.7732 139.993C79.4587 140.018 79.1425 139.979 78.8427 139.879C78.5429 139.779 78.2653 139.619 78.0257 139.409C78.009 139.395 77.9925 139.38 77.9762 139.365Z" fill="#FFB6B6"/>
<path d="M61 86.835C61 86.835 63.7637 82.1657 69.2157 87.7238C74.6677 93.2818 79.9453 119.757 79.7559 120.729C79.5665 121.701 78.1821 121.227 79.8792 122.746C81.5764 124.266 82.6346 123.058 81.5764 124.266C80.5182 125.473 78.2391 126.681 80.1765 126.989C82.1139 127.296 74.7874 130 74.7874 130C74.7874 130 73.6801 129.656 73.4905 126.986C73.3839 125.486 74.0894 124.681 72.9491 124.363C71.8088 124.044 73.0487 121.419 72.9072 120.986C72.7658 120.552 64.6271 101.498 64.6271 101.498L61 86.835Z" fill="#004C99"/>
<path d="M142 43.4984C142 44.784 141.59 46.0408 140.821 47.1099C140.052 48.179 138.959 49.0123 137.68 49.5046C136.401 49.9969 134.994 50.1259 133.636 49.8754C132.278 49.6249 131.031 49.0062 130.051 48.0973C129.072 47.1885 128.405 46.0305 128.135 44.7697C127.864 43.5089 128.003 42.2019 128.532 41.0141C129.062 39.8262 129.959 38.8109 131.11 38.0964C132.261 37.3819 133.614 37.0003 134.998 37C135.918 36.9989 136.829 37.1661 137.678 37.4923C138.528 37.8184 139.3 38.297 139.951 38.9006C140.601 39.5042 141.117 40.221 141.469 41.01C141.82 41.7989 142.001 42.6445 142 43.4984Z" fill="#004C99"/>
<path d="M135 44C136.105 44 137 42.8807 137 41.5C137 40.1193 136.105 39 135 39C133.895 39 133 40.1193 133 41.5C133 42.8807 133.895 44 135 44Z" fill="white"/>
<path d="M137.727 45H132.273C131.935 45.0003 131.612 45.1267 131.373 45.3512C131.135 45.5758 131 45.8802 131 46.1978C131.078 47.2237 131.248 48.2415 131.509 49.2402C132.603 49.7707 133.822 50.0312 135.052 49.997C136.282 49.9629 137.483 49.6354 138.542 49.0452C138.775 48.1091 138.929 47.1569 139 46.1978C139 45.8802 138.865 45.5758 138.627 45.3512C138.388 45.1267 138.065 45.0003 137.727 45Z" fill="white"/>
<path d="M16 209.5C15.9998 209.566 16.01 209.631 16.0297 209.692C16.0495 209.752 16.0786 209.808 16.1152 209.854C16.1519 209.9 16.1955 209.937 16.2435 209.962C16.2914 209.987 16.3428 210 16.3947 210H253.605C253.71 210 253.81 209.947 253.884 209.854C253.958 209.76 254 209.633 254 209.5C254 209.367 253.958 209.24 253.884 209.146C253.81 209.053 253.71 209 253.605 209H16.3947C16.3428 209 16.2914 209.013 16.2435 209.038C16.1955 209.063 16.1519 209.1 16.1153 209.146C16.0786 209.192 16.0495 209.248 16.0297 209.308C16.01 209.369 15.9998 209.434 16 209.5Z" fill="#CCCCCC"/>
<g clip-path="url(#clip0_7907_24147)">
<path d="M142.247 197.428C141.528 196.431 140.554 195.702 139.33 195.429C138.263 195.191 137.166 195.232 136.081 195.24L122.364 195.345C121.189 195.354 120.063 196.361 120.117 197.568C120.171 198.766 121.104 199.802 122.364 199.792C126.382 199.762 130.4 199.731 134.418 199.7C135.366 199.693 136.313 199.676 137.261 199.679C137.474 199.68 137.685 199.691 137.898 199.693C137.949 199.694 137.987 199.693 138.013 199.692C138.019 199.694 138.025 199.696 138.034 199.699C138.144 199.729 138.258 199.749 138.37 199.778C138.331 199.779 138.442 199.848 138.498 199.871C138.506 199.886 138.522 199.913 138.549 199.954C138.588 200.025 138.701 200.24 138.705 200.233C138.875 200.659 139.015 201.095 139.125 201.539C139.386 202.518 139.443 202.723 139.481 203.642C139.528 204.803 140.48 205.921 141.727 205.866C142.904 205.814 144.025 204.887 143.974 203.642C143.888 201.544 143.516 199.188 142.247 197.428Z" fill="#F2F2F2"/>
<path d="M123.17 202.446C122.912 200.901 122.66 199.354 122.397 197.81C122.131 196.243 121.586 194.808 120.354 193.78C120.025 193.505 119.684 193.248 119.341 192.992C119.221 192.903 119.1 192.813 118.981 192.721C118.974 192.715 118.97 192.712 118.963 192.707C118.95 192.696 118.935 192.683 118.914 192.665C118.4 192.235 117.904 191.785 117.431 191.308C117.012 190.884 116.61 190.442 116.227 189.981C116.132 189.866 116.037 189.75 115.944 189.633C115.928 189.613 115.842 189.503 115.785 189.431C115.732 189.358 115.635 189.228 115.619 189.205C115.51 189.053 115.403 188.899 115.298 188.744C114.582 187.682 113.963 186.561 113.446 185.392C113.395 185.276 113.345 185.159 113.296 185.042C113.283 185.006 113.266 184.96 113.244 184.899C113.139 184.616 113.036 184.333 112.94 184.046C112.738 183.437 112.564 182.819 112.419 182.193C112.347 181.883 112.282 181.572 112.225 181.259C112.195 181.098 112.167 180.937 112.141 180.776C112.137 180.749 112.112 180.575 112.097 180.476C112.086 180.378 112.066 180.202 112.063 180.175C112.046 180.013 112.032 179.85 112.019 179.687C111.99 179.32 111.971 178.952 111.961 178.584C111.944 177.93 111.955 177.275 111.996 176.621C112.02 176.254 112.053 175.887 112.094 175.521C112.096 175.499 112.098 175.481 112.1 175.465C112.102 175.448 112.105 175.43 112.109 175.407C112.139 175.204 112.171 175.002 112.206 174.801C112.341 174.037 112.516 173.28 112.731 172.534C112.833 172.181 112.944 171.831 113.063 171.484C113.116 171.33 113.171 171.176 113.228 171.023C113.224 171.033 113.394 170.604 113.396 170.589C114.069 169.015 115.171 167.579 115.172 165.791C115.173 164.58 114.138 163.42 112.925 163.476C112.321 163.498 111.749 163.752 111.33 164.184C110.911 164.616 110.677 165.192 110.679 165.791C110.679 165.818 110.679 165.841 110.679 165.864C110.667 165.901 110.658 165.933 110.649 165.961C110.518 166.243 110.357 166.511 110.213 166.787C109.818 167.541 109.482 168.319 109.162 169.109C108.638 170.396 108.237 171.728 107.964 173.088C107.371 176.069 107.325 179.131 107.828 182.128C108.699 187.383 111.572 192.414 115.565 195.796C115.912 196.089 116.267 196.373 116.625 196.651C116.774 196.766 116.923 196.879 117.073 196.991C117.144 197.044 117.439 197.273 117.309 197.162C117.588 197.397 117.705 197.516 117.776 197.689C117.787 197.729 117.801 197.783 117.82 197.857C117.87 198.052 117.918 198.247 117.958 198.445C118.305 200.176 118.547 201.936 118.837 203.677C119.037 204.874 120.525 205.653 121.601 205.294C122.853 204.877 123.384 203.729 123.17 202.446Z" fill="#F2F2F2"/>
<path d="M142.474 206.935C141.531 206.938 140.625 206.569 139.955 205.912C139.285 205.254 138.907 204.36 138.902 203.426V200.889C136.219 201.186 127.031 201.117 124.397 200.699V203.324C124.39 204.257 124.011 205.15 123.342 205.807C122.673 206.465 121.768 206.834 120.825 206.834C119.883 206.834 118.978 206.465 118.309 205.807C117.64 205.15 117.26 204.257 117.253 203.324V198.169C113.686 196.207 110.713 193.339 108.639 189.86C106.566 186.381 105.468 182.418 105.459 178.379C105.459 171.453 108.63 164.992 114.158 160.653C117.753 157.822 122.121 156.12 126.7 155.764C127.322 155.716 127.947 155.692 128.559 155.692C130.715 155.692 140.441 156.021 142.881 156.716L148.445 151.251C148.527 151.17 148.632 151.114 148.745 151.092C148.859 151.069 148.977 151.081 149.084 151.125C149.192 151.168 149.284 151.241 149.349 151.337C149.414 151.432 149.448 151.545 149.447 151.66V152.529L150.531 151.466C150.612 151.385 150.717 151.329 150.83 151.307C150.944 151.284 151.062 151.296 151.169 151.34C151.277 151.383 151.369 151.457 151.434 151.552C151.499 151.647 151.533 151.76 151.532 151.875V161.585C154.324 164.077 156.452 167.212 157.728 170.712C159.003 174.212 159.387 177.97 158.844 181.652C158.301 185.334 156.85 188.827 154.617 191.821C152.385 194.815 149.441 197.217 146.046 198.816V203.426C146.042 204.36 145.663 205.254 144.993 205.912C144.324 206.569 143.418 206.938 142.474 206.935ZM139.183 200.574V203.426C139.19 204.285 139.54 205.107 140.156 205.712C140.773 206.317 141.606 206.657 142.474 206.657C143.342 206.657 144.176 206.317 144.792 205.712C145.408 205.107 145.758 204.285 145.765 203.426V198.64L145.846 198.602C149.655 196.813 152.888 194.014 155.187 190.516C158.117 186.052 159.335 180.697 158.622 175.421C157.909 170.144 155.311 165.295 151.298 161.751L151.251 161.709V151.875C151.252 151.815 151.235 151.757 151.201 151.707C151.167 151.658 151.119 151.619 151.063 151.598C151.007 151.574 150.945 151.568 150.885 151.579C150.826 151.591 150.771 151.62 150.729 151.663L149.166 153.195V151.66C149.167 151.6 149.15 151.541 149.116 151.492C149.082 151.442 149.034 151.404 148.978 151.382C148.922 151.359 148.86 151.352 148.8 151.364C148.74 151.376 148.685 151.405 148.643 151.449L142.96 157.031L142.879 157.006C140.61 156.303 130.731 155.97 128.559 155.97C127.955 155.97 127.337 155.994 126.722 156.042C122.199 156.393 117.884 158.074 114.333 160.871C108.872 165.157 105.739 171.538 105.739 178.379C105.749 182.382 106.841 186.31 108.902 189.754C110.964 193.199 113.919 196.034 117.462 197.966L117.534 198.005V203.324C117.541 204.184 117.891 205.005 118.508 205.61C119.124 206.216 119.957 206.555 120.825 206.555C121.694 206.555 122.527 206.216 123.143 205.61C123.759 205.005 124.109 204.184 124.117 203.324V200.366L124.283 200.397C126.65 200.838 136.616 200.907 139.024 200.594L139.183 200.574Z" fill="#3F3D56"/>
<path d="M132.443 135.398C129.889 135.399 127.435 136.384 125.602 138.144C123.768 139.904 122.698 142.301 122.618 144.828C122.616 144.927 122.614 145.027 122.614 145.127C122.614 147.051 123.191 148.932 124.271 150.532C125.351 152.132 126.886 153.379 128.682 154.116C130.478 154.852 132.454 155.045 134.361 154.669C136.267 154.294 138.019 153.367 139.393 152.007C140.768 150.646 141.704 148.912 142.083 147.025C142.462 145.138 142.268 143.182 141.524 141.404C140.78 139.626 139.52 138.107 137.904 137.038C136.287 135.969 134.387 135.398 132.443 135.398ZM132.443 154.578C129.912 154.576 127.485 153.579 125.695 151.807C123.905 150.035 122.898 147.633 122.895 145.127C122.895 144.998 122.898 144.87 122.904 144.743C122.98 142.892 123.604 141.104 124.698 139.601C125.793 138.098 127.31 136.946 129.06 136.29C130.811 135.633 132.717 135.5 134.543 135.908C136.369 136.315 138.034 137.245 139.331 138.582C140.627 139.918 141.498 141.603 141.835 143.425C142.172 145.248 141.961 147.128 141.227 148.833C140.493 150.537 139.269 151.991 137.707 153.012C136.146 154.034 134.315 154.578 132.443 154.578Z" fill="#3F3D56"/>
<path d="M140.727 145.127C140.727 147.302 139.855 149.388 138.301 150.926C136.747 152.464 134.64 153.328 132.443 153.328C130.246 153.328 128.139 152.464 126.585 150.926C125.032 149.388 124.159 147.302 124.159 145.127C124.159 144.867 124.171 144.612 124.195 144.359C124.395 142.26 125.403 140.317 127.012 138.935C128.62 137.553 130.704 136.837 132.832 136.936C134.959 137.035 136.966 137.941 138.437 139.466C139.907 140.992 140.727 143.019 140.727 145.127Z" fill="#E6E6E6"/>
<path d="M134.91 145.672C134.709 145.411 134.445 145.204 134.142 145.07C133.768 144.914 133.382 144.789 132.988 144.695V142.463C133.594 142.553 134.163 142.81 134.629 143.204L135.087 142.238C134.824 142.006 134.522 141.821 134.194 141.692C133.831 141.546 133.45 141.449 133.061 141.404V140.272H132.001V141.415C131.591 141.46 131.197 141.592 130.842 141.8C130.522 141.987 130.253 142.249 130.057 142.562C129.871 142.867 129.774 143.218 129.778 143.575C129.76 143.962 129.873 144.343 130.1 144.659C130.308 144.932 130.584 145.148 130.9 145.287C131.28 145.448 131.672 145.576 132.074 145.672V147.811C131.358 147.758 130.677 147.489 130.121 147.04L129.663 148.007C129.974 148.262 130.327 148.46 130.708 148.594C131.124 148.741 131.559 148.831 132.001 148.861V149.982H133.061V148.84C133.65 148.776 134.202 148.525 134.635 148.125C134.826 147.944 134.976 147.726 135.077 147.484C135.178 147.243 135.228 146.983 135.222 146.721C135.239 146.347 135.13 145.978 134.91 145.672ZM132.074 144.459C131.816 144.381 131.576 144.254 131.368 144.084C131.285 144.011 131.22 143.921 131.177 143.821C131.134 143.72 131.113 143.612 131.118 143.503C131.11 143.255 131.202 143.015 131.373 142.834C131.563 142.645 131.808 142.519 132.074 142.474V144.459ZM133.653 147.416C133.474 147.598 133.241 147.719 132.988 147.76V145.92C133.23 145.984 133.456 146.096 133.653 146.249C133.728 146.312 133.788 146.391 133.827 146.48C133.867 146.569 133.886 146.666 133.882 146.763C133.892 147.002 133.81 147.235 133.653 147.416Z" fill="#6C63FF"/>
<path d="M106.427 171.431C104.468 171.144 102.595 170.443 100.934 169.375C100.112 168.846 99.35 168.229 98.6632 167.536C97.9853 166.852 97.3368 166.074 97.001 165.162C96.678 164.319 96.6946 163.385 97.0476 162.554C97.3957 161.727 98.0606 161.071 98.8966 160.729C99.7376 160.397 100.754 160.362 101.572 160.725C101.962 160.895 102.3 161.164 102.55 161.505C102.666 161.662 102.753 161.839 102.804 162.027C102.852 162.197 102.857 162.377 102.817 162.549C102.769 162.722 102.684 162.882 102.569 163.019C102.453 163.156 102.309 163.267 102.147 163.345C101.789 163.526 101.401 163.643 101.002 163.69C100.6 163.745 100.024 163.794 99.7007 163.475C99.6342 163.412 99.5819 163.335 99.5473 163.251C99.523 163.186 99.5147 163.117 99.5231 163.048C99.5183 163.078 99.5425 162.983 99.5412 162.986C99.536 163.001 99.5139 163.035 99.5454 162.982C99.5552 162.965 99.5661 162.948 99.5781 162.932C99.5674 162.945 99.544 162.968 99.5858 162.929C99.6204 162.891 99.6649 162.864 99.7142 162.851C99.7337 162.845 99.7534 162.84 99.7729 162.835C99.8224 162.822 99.7235 162.836 99.7742 162.834C99.7937 162.834 99.8135 162.834 99.833 162.833C99.8827 162.831 99.784 162.82 99.8316 162.832C99.8501 162.836 99.8684 162.841 99.8866 162.847C99.9262 162.859 99.8586 162.818 99.8854 162.849C99.9169 162.885 99.8524 162.813 99.8882 162.848C99.9059 162.866 99.9227 162.884 99.9384 162.903C100 162.964 100.084 162.998 100.171 162.998C100.258 162.998 100.342 162.964 100.404 162.903C100.464 162.841 100.497 162.759 100.497 162.673C100.497 162.587 100.464 162.504 100.404 162.442C100.079 162.044 99.4382 162.143 99.1099 162.479C98.6912 162.908 98.857 163.589 99.2643 163.963C99.7254 164.387 100.378 164.417 100.971 164.346C101.473 164.298 101.961 164.161 102.413 163.942C102.863 163.724 103.214 163.348 103.4 162.888C103.483 162.642 103.513 162.382 103.488 162.123C103.462 161.865 103.382 161.616 103.251 161.391C102.728 160.416 101.643 159.917 100.572 159.83C100.02 159.787 99.465 159.853 98.9391 160.024C98.4132 160.195 97.9268 160.468 97.508 160.826C96.7008 161.545 96.2037 162.544 96.1196 163.616C96.026 164.727 96.4616 165.807 97.0967 166.704C97.7616 167.615 98.555 168.427 99.4528 169.115C101.208 170.502 103.267 171.463 105.464 171.922C105.726 171.975 105.988 172.021 106.252 172.059C106.337 172.079 106.425 172.067 106.5 172.025C106.576 171.982 106.632 171.913 106.657 171.831C106.68 171.748 106.668 171.659 106.625 171.584C106.582 171.509 106.511 171.454 106.427 171.431Z" fill="#3F3D56"/>
<path d="M137.794 157.271C134.923 157.231 132.062 157.303 129.21 157.488C128.235 157.551 127.391 157.892 127.391 158.465C127.391 158.944 128.228 159.506 129.21 159.442C132.061 159.258 134.922 159.186 137.794 159.226C140.135 159.259 140.133 157.304 137.794 157.271Z" fill="#CCCCCC"/>
<path d="M133.551 159.129C133.241 159.129 125.954 159.118 125.954 158.121C125.954 157.125 133.241 157.114 133.551 157.114C133.861 157.114 141.148 157.125 141.148 158.121C141.148 159.118 133.861 159.129 133.551 159.129ZM126.239 158.121C126.438 158.423 129.117 158.851 133.551 158.851C137.985 158.851 140.664 158.423 140.863 158.121C140.664 157.819 137.985 157.392 133.551 157.392C129.117 157.392 126.438 157.819 126.239 158.121Z" fill="#3F3D56"/>
<path d="M153.997 169.83H148.741V170.796H153.997V169.83Z" fill="#3F3D56"/>
<path d="M186.833 207H83.1672C83.1229 207 83.0805 206.982 83.0493 206.951C83.018 206.92 83.0005 206.878 83.0005 206.834C83.0005 206.791 83.018 206.749 83.0493 206.718C83.0805 206.687 83.1229 206.669 83.1672 206.669H186.833C186.877 206.669 186.92 206.686 186.951 206.717C186.982 206.748 187 206.791 187 206.834C187 206.878 186.982 206.92 186.951 206.951C186.92 206.982 186.877 207 186.833 207Z" fill="#3F3D56"/>
</g>
<defs>
<clipPath id="clip0_7907_24147">
<rect width="104" height="83" fill="white" transform="translate(83 124)"/>
</clipPath>
</defs>
</svg>
