<svg width="270" height="210" viewBox="0 0 270 210" fill="none" xmlns="http://www.w3.org/2000/svg">
<g clip-path="url(#clip0_7897_23395)">
<path d="M68.4837 57.8776C69.5857 57.0447 71.1942 56.9504 72.3858 57.6486C73.9679 54.4516 78.377 53.0405 81.5214 54.7249C82.3417 51.2793 85.7362 48.6314 89.2775 48.6741C92.8189 48.7167 96.1486 51.4457 96.8858 54.9097C97.0026 55.4599 97.0806 56.0633 97.4739 56.465C98.1136 57.1184 99.1814 56.8988 100.093 56.8278C102.961 56.604 105.847 58.6174 106.627 61.3864L67.1322 61.2426C66.7862 59.9063 67.3817 58.7101 68.4837 57.8776Z" fill="#F5F5F5"/>
<path d="M214.233 14.9279C215.046 14.314 216.231 14.2445 217.11 14.7594C218.276 12.4022 221.527 11.3623 223.845 12.6039C224.45 10.0639 226.952 8.11161 229.563 8.1432C232.174 8.17479 234.629 10.1866 235.172 12.7402C235.259 13.1462 235.316 13.5906 235.606 13.887C236.078 14.3688 236.865 14.2071 237.537 14.1545C239.651 13.9897 241.779 15.4739 242.354 17.5152L213.237 17.4094C212.982 16.4232 213.42 15.5413 214.233 14.9279Z" fill="#F5F5F5"/>
<path d="M266.26 177.088H3V177.22H266.26V177.088Z" fill="#E0E0E0"/>
<path d="M38.6622 184.598H30.2063V184.73H38.6622V184.598Z" fill="#E0E0E0"/>
<path d="M120.878 183.171H92.6937V183.303H120.878V183.171Z" fill="#E0E0E0"/>
<path d="M58.275 189.49H39.1887V189.621H58.275V189.49Z" fill="#E0E0E0"/>
<path d="M224.95 183.103H202.21V183.234H224.95V183.103Z" fill="#E0E0E0"/>
<path d="M232.974 183.103H229.641V183.234H232.974V183.103Z" fill="#E0E0E0"/>
<path d="M197.866 186.383H169.492V186.514H197.866V186.383Z" fill="#E0E0E0"/>
<path d="M155.357 147.727V137.365H161.773V139.728H166.05V113.841H174.273V124.03H176.74V118.942H183.156V143.754H192.203V134.988H197.876V115.981H204.877V128.652H211.458V155.95H216.556V142.658H221.82V134.104H227.412V127.537L233.652 130.828V148.398H240.232V144.774H249.022V177.405L146.71 177.454V147.727H155.357Z" fill="#F0F0F0"/>
<path d="M203.276 118.225H201.227V120.573H203.276V118.225Z" fill="#FAFAFA"/>
<path d="M203.276 122.161H201.227V124.509H203.276V122.161Z" fill="#FAFAFA"/>
<path d="M203.276 126.099H201.227V128.447H203.276V126.099Z" fill="#FAFAFA"/>
<path d="M203.276 130.036H201.227V132.383H203.276V130.036Z" fill="#FAFAFA"/>
<path d="M203.276 133.972H201.227V136.319H203.276V133.972Z" fill="#FAFAFA"/>
<path d="M203.276 137.91H201.227V140.258H203.276V137.91Z" fill="#FAFAFA"/>
<path d="M203.276 141.846H201.227V144.194H203.276V141.846Z" fill="#FAFAFA"/>
<path d="M203.276 145.785H201.227V148.133H203.276V145.785Z" fill="#FAFAFA"/>
<path d="M172.502 115.081H170.453V117.429H172.502V115.081Z" fill="#FAFAFA"/>
<path d="M172.502 119.018H170.453V121.365H172.502V119.018Z" fill="#FAFAFA"/>
<path d="M172.502 122.957H170.453V125.304H172.502V122.957Z" fill="#FAFAFA"/>
<path d="M172.502 126.892H170.453V129.24H172.502V126.892Z" fill="#FAFAFA"/>
<path d="M172.502 130.831H170.453V133.179H172.502V130.831Z" fill="#FAFAFA"/>
<path d="M172.502 134.768H170.453V137.115H172.502V134.768Z" fill="#FAFAFA"/>
<path d="M172.502 138.706H170.453V141.054H172.502V138.706Z" fill="#FAFAFA"/>
<path d="M172.502 142.642H170.453V144.99H172.502V142.642Z" fill="#FAFAFA"/>
<path d="M210.277 177.423V139.668H218.428V177.42L210.277 177.423Z" fill="#E0E0E0"/>
<path d="M217.809 140.866H216.821V142.905H217.809V140.866Z" fill="#FAFAFA"/>
<path d="M215.833 140.866H214.845V142.905H215.833V140.866Z" fill="#FAFAFA"/>
<path d="M213.857 140.866H212.869V142.905H213.857V140.866Z" fill="#FAFAFA"/>
<path d="M211.881 140.866H210.893V142.905H211.881V140.866Z" fill="#FAFAFA"/>
<path d="M217.809 144.285H216.821V146.323H217.809V144.285Z" fill="#FAFAFA"/>
<path d="M215.833 144.285H214.845V146.323H215.833V144.285Z" fill="#FAFAFA"/>
<path d="M213.857 144.285H212.869V146.323H213.857V144.285Z" fill="#FAFAFA"/>
<path d="M211.881 144.285H210.893V146.323H211.881V144.285Z" fill="#FAFAFA"/>
<path d="M217.809 147.701H216.821V149.739H217.809V147.701Z" fill="#FAFAFA"/>
<path d="M215.833 147.701H214.845V149.739H215.833V147.701Z" fill="#FAFAFA"/>
<path d="M213.857 147.701H212.869V149.739H213.857V147.701Z" fill="#FAFAFA"/>
<path d="M211.881 147.701H210.893V149.739H211.881V147.701Z" fill="#FAFAFA"/>
<path d="M217.809 151.117H216.821V153.156H217.809V151.117Z" fill="#FAFAFA"/>
<path d="M215.833 151.117H214.845V153.156H215.833V151.117Z" fill="#FAFAFA"/>
<path d="M213.857 151.117H212.869V153.156H213.857V151.117Z" fill="#FAFAFA"/>
<path d="M211.881 151.117H210.893V153.156H211.881V151.117Z" fill="#FAFAFA"/>
<path d="M217.809 154.533H216.821V156.572H217.809V154.533Z" fill="#FAFAFA"/>
<path d="M215.833 154.533H214.845V156.572H215.833V154.533Z" fill="#FAFAFA"/>
<path d="M213.857 154.533H212.869V156.572H213.857V154.533Z" fill="#FAFAFA"/>
<path d="M211.881 154.533H210.893V156.572H211.881V154.533Z" fill="#FAFAFA"/>
<path d="M217.809 157.95H216.821V159.988H217.809V157.95Z" fill="#FAFAFA"/>
<path d="M215.833 157.95H214.845V159.988H215.833V157.95Z" fill="#FAFAFA"/>
<path d="M213.857 157.95H212.869V159.988H213.857V157.95Z" fill="#FAFAFA"/>
<path d="M211.881 157.95H210.893V159.988H211.881V157.95Z" fill="#FAFAFA"/>
<path d="M217.809 161.365H216.821V163.404H217.809V161.365Z" fill="#FAFAFA"/>
<path d="M215.833 161.365H214.845V163.404H215.833V161.365Z" fill="#FAFAFA"/>
<path d="M213.857 161.365H212.869V163.404H213.857V161.365Z" fill="#FAFAFA"/>
<path d="M211.881 161.365H210.893V163.404H211.881V161.365Z" fill="#FAFAFA"/>
<path d="M217.809 164.784H216.821V166.822H217.809V164.784Z" fill="#FAFAFA"/>
<path d="M215.833 164.784H214.845V166.822H215.833V164.784Z" fill="#FAFAFA"/>
<path d="M213.857 164.784H212.869V166.822H213.857V164.784Z" fill="#FAFAFA"/>
<path d="M211.881 164.784H210.893V166.822H211.881V164.784Z" fill="#FAFAFA"/>
<path d="M181.955 177.437V135.31H198.854V177.449C198.854 177.449 182.085 177.454 181.955 177.437Z" fill="#E6E6E6"/>
<path d="M197.585 136.704H195.536V139.052H197.585V136.704Z" fill="#E0E0E0"/>
<path d="M193.485 136.704H191.436V139.052H193.485V136.704Z" fill="#E0E0E0"/>
<path d="M189.388 136.704H187.339V139.052H189.388V136.704Z" fill="#E0E0E0"/>
<path d="M185.288 136.704H183.239V139.052H185.288V136.704Z" fill="#E0E0E0"/>
<path d="M197.585 140.643H195.536V142.99H197.585V140.643Z" fill="#E0E0E0"/>
<path d="M193.485 140.643H191.436V142.99H193.485V140.643Z" fill="#E0E0E0"/>
<path d="M189.388 140.643H187.339V142.99H189.388V140.643Z" fill="#E0E0E0"/>
<path d="M185.288 140.643H183.239V142.99H185.288V140.643Z" fill="#E0E0E0"/>
<path d="M197.585 144.579H195.536V146.927H197.585V144.579Z" fill="#E0E0E0"/>
<path d="M193.485 144.579H191.436V146.927H193.485V144.579Z" fill="#E0E0E0"/>
<path d="M189.388 144.579H187.339V146.927H189.388V144.579Z" fill="#E0E0E0"/>
<path d="M185.288 144.579H183.239V146.927H185.288V144.579Z" fill="#E0E0E0"/>
<path d="M197.585 148.515H195.536V150.863H197.585V148.515Z" fill="#E0E0E0"/>
<path d="M193.485 148.515H191.436V150.863H193.485V148.515Z" fill="#E0E0E0"/>
<path d="M189.388 148.515H187.339V150.863H189.388V148.515Z" fill="#E0E0E0"/>
<path d="M185.288 148.515H183.239V150.863H185.288V148.515Z" fill="#E0E0E0"/>
<path d="M197.585 152.454H195.536V154.801H197.585V152.454Z" fill="#E0E0E0"/>
<path d="M193.485 152.454H191.436V154.801H193.485V152.454Z" fill="#E0E0E0"/>
<path d="M189.388 152.454H187.339V154.801H189.388V152.454Z" fill="#E0E0E0"/>
<path d="M185.288 152.454H183.239V154.801H185.288V152.454Z" fill="#E0E0E0"/>
<path d="M197.585 156.39H195.536V158.738H197.585V156.39Z" fill="#E0E0E0"/>
<path d="M193.485 156.39H191.436V158.738H193.485V156.39Z" fill="#E0E0E0"/>
<path d="M189.388 156.39H187.339V158.738H189.388V156.39Z" fill="#E0E0E0"/>
<path d="M185.288 156.39H183.239V158.738H185.288V156.39Z" fill="#E0E0E0"/>
<path d="M197.585 160.328H195.536V162.676H197.585V160.328Z" fill="#E0E0E0"/>
<path d="M193.485 160.328H191.436V162.676H193.485V160.328Z" fill="#E0E0E0"/>
<path d="M189.388 160.328H187.339V162.676H189.388V160.328Z" fill="#E0E0E0"/>
<path d="M185.288 160.328H183.239V162.676H185.288V160.328Z" fill="#E0E0E0"/>
<path d="M197.585 164.265H195.536V166.612H197.585V164.265Z" fill="#E0E0E0"/>
<path d="M193.485 164.265H191.436V166.612H193.485V164.265Z" fill="#E0E0E0"/>
<path d="M189.388 164.265H187.339V166.612H189.388V164.265Z" fill="#E0E0E0"/>
<path d="M185.288 164.265H183.239V166.612H185.288V164.265Z" fill="#E0E0E0"/>
<path d="M221.392 177.418V132.365H228.382V177.454C226.17 177.4 221.392 177.418 221.392 177.418Z" fill="#E6E6E6"/>
<path d="M227.348 133.199H225.299V135.547H227.348V133.199Z" fill="#FAFAFA"/>
<path d="M227.348 137.136H225.299V139.483H227.348V137.136Z" fill="#FAFAFA"/>
<path d="M227.348 141.075H225.299V143.422H227.348V141.075Z" fill="#FAFAFA"/>
<path d="M227.348 145.011H225.299V147.358H227.348V145.011Z" fill="#FAFAFA"/>
<path d="M227.348 148.947H225.299V151.295H227.348V148.947Z" fill="#FAFAFA"/>
<path d="M227.348 152.885H225.299V155.233H227.348V152.885Z" fill="#FAFAFA"/>
<path d="M227.348 156.822H225.299V159.169H227.348V156.822Z" fill="#FAFAFA"/>
<path d="M227.348 160.76H225.299V163.108H227.348V160.76Z" fill="#FAFAFA"/>
<path d="M224.608 133.199H222.559V135.547H224.608V133.199Z" fill="#FAFAFA"/>
<path d="M224.608 137.136H222.559V139.483H224.608V137.136Z" fill="#FAFAFA"/>
<path d="M224.608 141.075H222.559V143.422H224.608V141.075Z" fill="#FAFAFA"/>
<path d="M224.608 145.011H222.559V147.358H224.608V145.011Z" fill="#FAFAFA"/>
<path d="M224.608 148.947H222.559V151.295H224.608V148.947Z" fill="#FAFAFA"/>
<path d="M224.608 152.885H222.559V155.233H224.608V152.885Z" fill="#FAFAFA"/>
<path d="M224.608 156.822H222.559V159.169H224.608V156.822Z" fill="#FAFAFA"/>
<path d="M224.608 160.76H222.559V163.108H224.608V160.76Z" fill="#FAFAFA"/>
<path d="M166.77 133.168H154.432V177.455H166.77V133.168Z" fill="#E6E6E6"/>
<path d="M164.945 134.999H161.329V137.347H164.945V134.999Z" fill="#FAFAFA"/>
<path d="M164.945 138.938H161.329V141.285H164.945V138.938Z" fill="#FAFAFA"/>
<path d="M164.945 142.873H161.329V145.221H164.945V142.873Z" fill="#FAFAFA"/>
<path d="M164.945 146.812H161.329V149.16H164.945V146.812Z" fill="#FAFAFA"/>
<path d="M164.945 150.749H161.329V153.096H164.945V150.749Z" fill="#FAFAFA"/>
<path d="M164.945 154.684H161.329V157.032H164.945V154.684Z" fill="#FAFAFA"/>
<path d="M164.945 158.623H161.329V160.971H164.945V158.623Z" fill="#FAFAFA"/>
<path d="M164.945 162.559H161.329V164.907H164.945V162.559Z" fill="#FAFAFA"/>
<path d="M160.107 134.999H156.491V137.347H160.107V134.999Z" fill="#FAFAFA"/>
<path d="M160.107 138.938H156.491V141.285H160.107V138.938Z" fill="#FAFAFA"/>
<path d="M160.107 142.873H156.491V145.221H160.107V142.873Z" fill="#FAFAFA"/>
<path d="M160.107 146.812H156.491V149.16H160.107V146.812Z" fill="#FAFAFA"/>
<path d="M160.107 150.749H156.491V153.096H160.107V150.749Z" fill="#FAFAFA"/>
<path d="M160.107 154.684H156.491V157.032H160.107V154.684Z" fill="#FAFAFA"/>
<path d="M160.107 158.623H156.491V160.971H160.107V158.623Z" fill="#FAFAFA"/>
<path d="M160.107 162.559H156.491V164.907H160.107V162.559Z" fill="#FAFAFA"/>
<path d="M174.842 177.441V144.579H180.223V177.438L174.842 177.441Z" fill="#E0E0E0"/>
<path d="M179.815 145.619H179.163V147.369H179.815V145.619Z" fill="#FAFAFA"/>
<path d="M178.51 145.619H177.858V147.369H178.51V145.619Z" fill="#FAFAFA"/>
<path d="M177.208 145.619H176.555V147.369H177.208V145.619Z" fill="#FAFAFA"/>
<path d="M175.902 145.619H175.25V147.369H175.902V145.619Z" fill="#FAFAFA"/>
<path d="M179.815 148.554H179.163V150.303H179.815V148.554Z" fill="#FAFAFA"/>
<path d="M178.51 148.554H177.858V150.303H178.51V148.554Z" fill="#FAFAFA"/>
<path d="M177.208 148.554H176.555V150.303H177.208V148.554Z" fill="#FAFAFA"/>
<path d="M175.902 148.554H175.25V150.303H175.902V148.554Z" fill="#FAFAFA"/>
<path d="M179.815 151.489H179.163V153.239H179.815V151.489Z" fill="#FAFAFA"/>
<path d="M178.51 151.489H177.858V153.239H178.51V151.489Z" fill="#FAFAFA"/>
<path d="M177.208 151.489H176.555V153.239H177.208V151.489Z" fill="#FAFAFA"/>
<path d="M175.902 151.489H175.25V153.239H175.902V151.489Z" fill="#FAFAFA"/>
<path d="M179.815 154.425H179.163V156.174H179.815V154.425Z" fill="#FAFAFA"/>
<path d="M178.51 154.425H177.858V156.174H178.51V154.425Z" fill="#FAFAFA"/>
<path d="M177.208 154.425H176.555V156.174H177.208V154.425Z" fill="#FAFAFA"/>
<path d="M175.902 154.425H175.25V156.174H175.902V154.425Z" fill="#FAFAFA"/>
<path d="M179.815 157.362H179.163V159.112H179.815V157.362Z" fill="#FAFAFA"/>
<path d="M178.51 157.362H177.858V159.112H178.51V157.362Z" fill="#FAFAFA"/>
<path d="M177.208 157.362H176.555V159.112H177.208V157.362Z" fill="#FAFAFA"/>
<path d="M175.902 157.362H175.25V159.112H175.902V157.362Z" fill="#FAFAFA"/>
<path d="M179.815 160.297H179.163V162.047H179.815V160.297Z" fill="#FAFAFA"/>
<path d="M178.51 160.297H177.858V162.047H178.51V160.297Z" fill="#FAFAFA"/>
<path d="M177.208 160.297H176.555V162.047H177.208V160.297Z" fill="#FAFAFA"/>
<path d="M175.902 160.297H175.25V162.047H175.902V160.297Z" fill="#FAFAFA"/>
<path d="M179.815 163.233H179.163V164.982H179.815V163.233Z" fill="#FAFAFA"/>
<path d="M178.51 163.233H177.858V164.982H178.51V163.233Z" fill="#FAFAFA"/>
<path d="M177.208 163.233H176.555V164.982H177.208V163.233Z" fill="#FAFAFA"/>
<path d="M175.902 163.233H175.25V164.982H175.902V163.233Z" fill="#FAFAFA"/>
<path d="M179.815 166.167H179.163V167.917H179.815V166.167Z" fill="#FAFAFA"/>
<path d="M178.51 166.167H177.858V167.917H178.51V166.167Z" fill="#FAFAFA"/>
<path d="M177.208 166.167H176.555V167.917H177.208V166.167Z" fill="#FAFAFA"/>
<path d="M175.902 166.167H175.25V167.917H175.902V166.167Z" fill="#FAFAFA"/>
<path d="M227.758 177.454V149.451H242.145V177.408L227.758 177.454Z" fill="#FAFAFA"/>
<path d="M241.056 150.322H239.312V151.791H241.056V150.322Z" fill="#E0E0E0"/>
<path d="M237.567 150.322H235.823V151.791H237.567V150.322Z" fill="#E0E0E0"/>
<path d="M234.081 150.322H232.336V151.791H234.081V150.322Z" fill="#E0E0E0"/>
<path d="M230.592 150.322H228.848V151.791H230.592V150.322Z" fill="#E0E0E0"/>
<path d="M241.056 152.784H239.312V154.253H241.056V152.784Z" fill="#E0E0E0"/>
<path d="M237.567 152.784H235.823V154.253H237.567V152.784Z" fill="#E0E0E0"/>
<path d="M234.081 152.784H232.336V154.253H234.081V152.784Z" fill="#E0E0E0"/>
<path d="M230.592 152.784H228.848V154.253H230.592V152.784Z" fill="#E0E0E0"/>
<path d="M241.056 155.246H239.312V156.715H241.056V155.246Z" fill="#E0E0E0"/>
<path d="M237.567 155.246H235.823V156.715H237.567V155.246Z" fill="#E0E0E0"/>
<path d="M234.081 155.246H232.336V156.715H234.081V155.246Z" fill="#E0E0E0"/>
<path d="M230.592 155.246H228.848V156.715H230.592V155.246Z" fill="#E0E0E0"/>
<path d="M241.056 157.708H239.312V159.177H241.056V157.708Z" fill="#E0E0E0"/>
<path d="M237.567 157.708H235.823V159.177H237.567V157.708Z" fill="#E0E0E0"/>
<path d="M234.081 157.708H232.336V159.177H234.081V157.708Z" fill="#E0E0E0"/>
<path d="M230.592 157.708H228.848V159.177H230.592V157.708Z" fill="#E0E0E0"/>
<path d="M241.056 160.167H239.312V161.636H241.056V160.167Z" fill="#E0E0E0"/>
<path d="M237.567 160.167H235.823V161.636H237.567V160.167Z" fill="#E0E0E0"/>
<path d="M234.081 160.167H232.336V161.636H234.081V160.167Z" fill="#E0E0E0"/>
<path d="M230.592 160.167H228.848V161.636H230.592V160.167Z" fill="#E0E0E0"/>
<path d="M241.056 162.629H239.312V164.098H241.056V162.629Z" fill="#E0E0E0"/>
<path d="M237.567 162.629H235.823V164.098H237.567V162.629Z" fill="#E0E0E0"/>
<path d="M234.081 162.629H232.336V164.098H234.081V162.629Z" fill="#E0E0E0"/>
<path d="M230.592 162.629H228.848V164.098H230.592V162.629Z" fill="#E0E0E0"/>
<path d="M241.056 165.091H239.312V166.56H241.056V165.091Z" fill="#E0E0E0"/>
<path d="M237.567 165.091H235.823V166.56H237.567V165.091Z" fill="#E0E0E0"/>
<path d="M234.081 165.091H232.336V166.56H234.081V165.091Z" fill="#E0E0E0"/>
<path d="M230.592 165.091H228.848V166.56H230.592V165.091Z" fill="#E0E0E0"/>
<path d="M40.96 147.727V137.365H47.3762V139.728H51.6526V113.841H59.8757V124.03H62.343V118.942H68.7592V143.754H77.8069V134.988H83.4796V115.981H90.4807V128.652H97.0606V155.95H102.159V142.658H107.424V134.104H113.016V127.537L119.255 130.828V148.398H125.835V144.774H134.625V177.405L32.313 177.454V147.727H40.96Z" fill="#F0F0F0"/>
<path d="M88.8791 118.225H86.8304V120.573H88.8791V118.225Z" fill="#FAFAFA"/>
<path d="M88.8791 122.161H86.8304V124.509H88.8791V122.161Z" fill="#FAFAFA"/>
<path d="M88.8791 126.099H86.8304V128.447H88.8791V126.099Z" fill="#FAFAFA"/>
<path d="M88.8791 130.036H86.8304V132.383H88.8791V130.036Z" fill="#FAFAFA"/>
<path d="M88.8791 133.972H86.8304V136.319H88.8791V133.972Z" fill="#FAFAFA"/>
<path d="M88.8791 137.91H86.8304V140.258H88.8791V137.91Z" fill="#FAFAFA"/>
<path d="M88.8791 141.846H86.8304V144.194H88.8791V141.846Z" fill="#FAFAFA"/>
<path d="M88.8791 145.785H86.8304V148.133H88.8791V145.785Z" fill="#FAFAFA"/>
<path d="M58.1056 115.081H56.0569V117.429H58.1056V115.081Z" fill="#FAFAFA"/>
<path d="M58.1056 119.018H56.0569V121.365H58.1056V119.018Z" fill="#FAFAFA"/>
<path d="M58.1056 122.957H56.0569V125.304H58.1056V122.957Z" fill="#FAFAFA"/>
<path d="M58.1056 126.892H56.0569V129.24H58.1056V126.892Z" fill="#FAFAFA"/>
<path d="M58.1056 130.831H56.0569V133.179H58.1056V130.831Z" fill="#FAFAFA"/>
<path d="M58.1056 134.768H56.0569V137.115H58.1056V134.768Z" fill="#FAFAFA"/>
<path d="M58.1056 138.706H56.0569V141.054H58.1056V138.706Z" fill="#FAFAFA"/>
<path d="M58.1056 142.642H56.0569V144.99H58.1056V142.642Z" fill="#FAFAFA"/>
<path d="M95.8807 177.423V139.668H104.031V177.42L95.8807 177.423Z" fill="#E0E0E0"/>
<path d="M103.412 140.866H102.424V142.905H103.412V140.866Z" fill="#FAFAFA"/>
<path d="M101.436 140.866H100.448V142.905H101.436V140.866Z" fill="#FAFAFA"/>
<path d="M99.46 140.866H98.4723V142.905H99.46V140.866Z" fill="#FAFAFA"/>
<path d="M97.4845 140.866H96.4967V142.905H97.4845V140.866Z" fill="#FAFAFA"/>
<path d="M103.412 144.285H102.424V146.323H103.412V144.285Z" fill="#FAFAFA"/>
<path d="M101.436 144.285H100.448V146.323H101.436V144.285Z" fill="#FAFAFA"/>
<path d="M99.46 144.285H98.4723V146.323H99.46V144.285Z" fill="#FAFAFA"/>
<path d="M97.4845 144.285H96.4967V146.323H97.4845V144.285Z" fill="#FAFAFA"/>
<path d="M103.412 147.701H102.424V149.739H103.412V147.701Z" fill="#FAFAFA"/>
<path d="M101.436 147.701H100.448V149.739H101.436V147.701Z" fill="#FAFAFA"/>
<path d="M99.46 147.701H98.4723V149.739H99.46V147.701Z" fill="#FAFAFA"/>
<path d="M97.4845 147.701H96.4967V149.739H97.4845V147.701Z" fill="#FAFAFA"/>
<path d="M103.412 151.117H102.424V153.156H103.412V151.117Z" fill="#FAFAFA"/>
<path d="M101.436 151.117H100.448V153.156H101.436V151.117Z" fill="#FAFAFA"/>
<path d="M99.46 151.117H98.4723V153.156H99.46V151.117Z" fill="#FAFAFA"/>
<path d="M97.4845 151.117H96.4967V153.156H97.4845V151.117Z" fill="#FAFAFA"/>
<path d="M103.412 154.533H102.424V156.572H103.412V154.533Z" fill="#FAFAFA"/>
<path d="M101.436 154.533H100.448V156.572H101.436V154.533Z" fill="#FAFAFA"/>
<path d="M99.46 154.533H98.4723V156.572H99.46V154.533Z" fill="#FAFAFA"/>
<path d="M97.4845 154.533H96.4967V156.572H97.4845V154.533Z" fill="#FAFAFA"/>
<path d="M103.412 157.95H102.424V159.988H103.412V157.95Z" fill="#FAFAFA"/>
<path d="M101.436 157.95H100.448V159.988H101.436V157.95Z" fill="#FAFAFA"/>
<path d="M99.46 157.95H98.4723V159.988H99.46V157.95Z" fill="#FAFAFA"/>
<path d="M97.4845 157.95H96.4967V159.988H97.4845V157.95Z" fill="#FAFAFA"/>
<path d="M103.412 161.365H102.424V163.404H103.412V161.365Z" fill="#FAFAFA"/>
<path d="M101.436 161.365H100.448V163.404H101.436V161.365Z" fill="#FAFAFA"/>
<path d="M99.46 161.365H98.4723V163.404H99.46V161.365Z" fill="#FAFAFA"/>
<path d="M97.4845 161.365H96.4967V163.404H97.4845V161.365Z" fill="#FAFAFA"/>
<path d="M103.412 164.784H102.424V166.822H103.412V164.784Z" fill="#FAFAFA"/>
<path d="M101.436 164.784H100.448V166.822H101.436V164.784Z" fill="#FAFAFA"/>
<path d="M99.46 164.784H98.4723V166.822H99.46V164.784Z" fill="#FAFAFA"/>
<path d="M97.4845 164.784H96.4967V166.822H97.4845V164.784Z" fill="#FAFAFA"/>
<path d="M67.5582 177.437V135.31H84.4569V177.449C84.4569 177.449 67.6878 177.454 67.5582 177.437Z" fill="#E6E6E6"/>
<path d="M83.1889 136.704H81.1403V139.052H83.1889V136.704Z" fill="#E0E0E0"/>
<path d="M79.0884 136.704H77.0397V139.052H79.0884V136.704Z" fill="#E0E0E0"/>
<path d="M74.9911 136.704H72.9424V139.052H74.9911V136.704Z" fill="#E0E0E0"/>
<path d="M70.8911 136.704H68.8424V139.052H70.8911V136.704Z" fill="#E0E0E0"/>
<path d="M83.1889 140.643H81.1403V142.99H83.1889V140.643Z" fill="#E0E0E0"/>
<path d="M79.0884 140.643H77.0397V142.99H79.0884V140.643Z" fill="#E0E0E0"/>
<path d="M74.9911 140.643H72.9424V142.99H74.9911V140.643Z" fill="#E0E0E0"/>
<path d="M70.8911 140.643H68.8424V142.99H70.8911V140.643Z" fill="#E0E0E0"/>
<path d="M83.1889 144.579H81.1403V146.927H83.1889V144.579Z" fill="#E0E0E0"/>
<path d="M79.0884 144.579H77.0397V146.927H79.0884V144.579Z" fill="#E0E0E0"/>
<path d="M74.9911 144.579H72.9424V146.927H74.9911V144.579Z" fill="#E0E0E0"/>
<path d="M70.8911 144.579H68.8424V146.927H70.8911V144.579Z" fill="#E0E0E0"/>
<path d="M83.1889 148.515H81.1403V150.863H83.1889V148.515Z" fill="#E0E0E0"/>
<path d="M79.0884 148.515H77.0397V150.863H79.0884V148.515Z" fill="#E0E0E0"/>
<path d="M74.9911 148.515H72.9424V150.863H74.9911V148.515Z" fill="#E0E0E0"/>
<path d="M70.8911 148.515H68.8424V150.863H70.8911V148.515Z" fill="#E0E0E0"/>
<path d="M83.1889 152.454H81.1403V154.801H83.1889V152.454Z" fill="#E0E0E0"/>
<path d="M79.0884 152.454H77.0397V154.801H79.0884V152.454Z" fill="#E0E0E0"/>
<path d="M74.9911 152.454H72.9424V154.801H74.9911V152.454Z" fill="#E0E0E0"/>
<path d="M70.8911 152.454H68.8424V154.801H70.8911V152.454Z" fill="#E0E0E0"/>
<path d="M83.1889 156.39H81.1403V158.738H83.1889V156.39Z" fill="#E0E0E0"/>
<path d="M79.0884 156.39H77.0397V158.738H79.0884V156.39Z" fill="#E0E0E0"/>
<path d="M74.9911 156.39H72.9424V158.738H74.9911V156.39Z" fill="#E0E0E0"/>
<path d="M70.8911 156.39H68.8424V158.738H70.8911V156.39Z" fill="#E0E0E0"/>
<path d="M83.1889 160.328H81.1403V162.676H83.1889V160.328Z" fill="#E0E0E0"/>
<path d="M79.0884 160.328H77.0397V162.676H79.0884V160.328Z" fill="#E0E0E0"/>
<path d="M74.9911 160.328H72.9424V162.676H74.9911V160.328Z" fill="#E0E0E0"/>
<path d="M70.8911 160.328H68.8424V162.676H70.8911V160.328Z" fill="#E0E0E0"/>
<path d="M83.1889 164.265H81.1403V166.612H83.1889V164.265Z" fill="#E0E0E0"/>
<path d="M79.0884 164.265H77.0397V166.612H79.0884V164.265Z" fill="#E0E0E0"/>
<path d="M74.9911 164.265H72.9424V166.612H74.9911V164.265Z" fill="#E0E0E0"/>
<path d="M70.8911 164.265H68.8424V166.612H70.8911V164.265Z" fill="#E0E0E0"/>
<path d="M106.995 177.418V132.365H113.985V177.454C111.773 177.4 106.995 177.418 106.995 177.418Z" fill="#E6E6E6"/>
<path d="M112.951 133.199H110.902V135.547H112.951V133.199Z" fill="#FAFAFA"/>
<path d="M112.951 137.136H110.902V139.483H112.951V137.136Z" fill="#FAFAFA"/>
<path d="M112.951 141.075H110.902V143.422H112.951V141.075Z" fill="#FAFAFA"/>
<path d="M112.951 145.011H110.902V147.358H112.951V145.011Z" fill="#FAFAFA"/>
<path d="M112.951 148.947H110.902V151.295H112.951V148.947Z" fill="#FAFAFA"/>
<path d="M112.951 152.885H110.902V155.233H112.951V152.885Z" fill="#FAFAFA"/>
<path d="M112.951 156.822H110.902V159.169H112.951V156.822Z" fill="#FAFAFA"/>
<path d="M112.951 160.76H110.902V163.108H112.951V160.76Z" fill="#FAFAFA"/>
<path d="M110.211 133.199H108.162V135.547H110.211V133.199Z" fill="#FAFAFA"/>
<path d="M110.211 137.136H108.162V139.483H110.211V137.136Z" fill="#FAFAFA"/>
<path d="M110.211 141.075H108.162V143.422H110.211V141.075Z" fill="#FAFAFA"/>
<path d="M110.211 145.011H108.162V147.358H110.211V145.011Z" fill="#FAFAFA"/>
<path d="M110.211 148.947H108.162V151.295H110.211V148.947Z" fill="#FAFAFA"/>
<path d="M110.211 152.885H108.162V155.233H110.211V152.885Z" fill="#FAFAFA"/>
<path d="M110.211 156.822H108.162V159.169H110.211V156.822Z" fill="#FAFAFA"/>
<path d="M110.211 160.76H108.162V163.108H110.211V160.76Z" fill="#FAFAFA"/>
<path d="M52.3729 133.168H40.0344V177.455H52.3729V133.168Z" fill="#E6E6E6"/>
<path d="M50.5481 134.999H46.932V137.347H50.5481V134.999Z" fill="#FAFAFA"/>
<path d="M50.5481 138.938H46.932V141.285H50.5481V138.938Z" fill="#FAFAFA"/>
<path d="M50.5481 142.873H46.932V145.221H50.5481V142.873Z" fill="#FAFAFA"/>
<path d="M50.5481 146.812H46.932V149.16H50.5481V146.812Z" fill="#FAFAFA"/>
<path d="M50.5481 150.749H46.932V153.096H50.5481V150.749Z" fill="#FAFAFA"/>
<path d="M50.5481 154.684H46.932V157.032H50.5481V154.684Z" fill="#FAFAFA"/>
<path d="M50.5481 158.623H46.932V160.971H50.5481V158.623Z" fill="#FAFAFA"/>
<path d="M50.5481 162.559H46.932V164.907H50.5481V162.559Z" fill="#FAFAFA"/>
<path d="M45.7098 134.999H42.0936V137.347H45.7098V134.999Z" fill="#FAFAFA"/>
<path d="M45.7098 138.938H42.0936V141.285H45.7098V138.938Z" fill="#FAFAFA"/>
<path d="M45.7098 142.873H42.0936V145.221H45.7098V142.873Z" fill="#FAFAFA"/>
<path d="M45.7098 146.812H42.0936V149.16H45.7098V146.812Z" fill="#FAFAFA"/>
<path d="M45.7098 150.749H42.0936V153.096H45.7098V150.749Z" fill="#FAFAFA"/>
<path d="M45.7098 154.684H42.0936V157.032H45.7098V154.684Z" fill="#FAFAFA"/>
<path d="M45.7098 158.623H42.0936V160.971H45.7098V158.623Z" fill="#FAFAFA"/>
<path d="M45.7098 162.559H42.0936V164.907H45.7098V162.559Z" fill="#FAFAFA"/>
<path d="M60.4454 177.441V144.579H65.827V177.438L60.4454 177.441Z" fill="#E0E0E0"/>
<path d="M65.4184 145.619H64.766V147.369H65.4184V145.619Z" fill="#FAFAFA"/>
<path d="M64.1132 145.619H63.4608V147.369H64.1132V145.619Z" fill="#FAFAFA"/>
<path d="M62.811 145.619H62.1587V147.369H62.811V145.619Z" fill="#FAFAFA"/>
<path d="M61.5058 145.619H60.8534V147.369H61.5058V145.619Z" fill="#FAFAFA"/>
<path d="M65.4184 148.554H64.766V150.303H65.4184V148.554Z" fill="#FAFAFA"/>
<path d="M64.1132 148.554H63.4608V150.303H64.1132V148.554Z" fill="#FAFAFA"/>
<path d="M62.811 148.554H62.1587V150.303H62.811V148.554Z" fill="#FAFAFA"/>
<path d="M61.5058 148.554H60.8534V150.303H61.5058V148.554Z" fill="#FAFAFA"/>
<path d="M65.4184 151.489H64.766V153.239H65.4184V151.489Z" fill="#FAFAFA"/>
<path d="M64.1132 151.489H63.4608V153.239H64.1132V151.489Z" fill="#FAFAFA"/>
<path d="M62.811 151.489H62.1587V153.239H62.811V151.489Z" fill="#FAFAFA"/>
<path d="M61.5058 151.489H60.8534V153.239H61.5058V151.489Z" fill="#FAFAFA"/>
<path d="M65.4184 154.425H64.766V156.174H65.4184V154.425Z" fill="#FAFAFA"/>
<path d="M64.1132 154.425H63.4608V156.174H64.1132V154.425Z" fill="#FAFAFA"/>
<path d="M62.811 154.425H62.1587V156.174H62.811V154.425Z" fill="#FAFAFA"/>
<path d="M61.5058 154.425H60.8534V156.174H61.5058V154.425Z" fill="#FAFAFA"/>
<path d="M65.4184 157.362H64.766V159.112H65.4184V157.362Z" fill="#FAFAFA"/>
<path d="M64.1132 157.362H63.4608V159.112H64.1132V157.362Z" fill="#FAFAFA"/>
<path d="M62.811 157.362H62.1587V159.112H62.811V157.362Z" fill="#FAFAFA"/>
<path d="M61.5058 157.362H60.8534V159.112H61.5058V157.362Z" fill="#FAFAFA"/>
<path d="M65.4184 160.297H64.766V162.047H65.4184V160.297Z" fill="#FAFAFA"/>
<path d="M64.1132 160.297H63.4608V162.047H64.1132V160.297Z" fill="#FAFAFA"/>
<path d="M62.811 160.297H62.1587V162.047H62.811V160.297Z" fill="#FAFAFA"/>
<path d="M61.5058 160.297H60.8534V162.047H61.5058V160.297Z" fill="#FAFAFA"/>
<path d="M65.4184 163.233H64.766V164.982H65.4184V163.233Z" fill="#FAFAFA"/>
<path d="M64.1132 163.233H63.4608V164.982H64.1132V163.233Z" fill="#FAFAFA"/>
<path d="M62.811 163.233H62.1587V164.982H62.811V163.233Z" fill="#FAFAFA"/>
<path d="M61.5058 163.233H60.8534V164.982H61.5058V163.233Z" fill="#FAFAFA"/>
<path d="M65.4184 166.167H64.766V167.917H65.4184V166.167Z" fill="#FAFAFA"/>
<path d="M64.1132 166.167H63.4608V167.917H64.1132V166.167Z" fill="#FAFAFA"/>
<path d="M62.811 166.167H62.1587V167.917H62.811V166.167Z" fill="#FAFAFA"/>
<path d="M61.5058 166.167H60.8534V167.917H61.5058V166.167Z" fill="#FAFAFA"/>
<path d="M113.362 177.454V149.451H127.749V177.408L113.362 177.454Z" fill="#FAFAFA"/>
<path d="M126.66 150.322H124.915V151.791H126.66V150.322Z" fill="#E0E0E0"/>
<path d="M123.17 150.322H121.426V151.791H123.17V150.322Z" fill="#E0E0E0"/>
<path d="M119.684 150.322H117.94V151.791H119.684V150.322Z" fill="#E0E0E0"/>
<path d="M116.196 150.322H114.451V151.791H116.196V150.322Z" fill="#E0E0E0"/>
<path d="M126.66 152.784H124.915V154.253H126.66V152.784Z" fill="#E0E0E0"/>
<path d="M123.17 152.784H121.426V154.253H123.17V152.784Z" fill="#E0E0E0"/>
<path d="M119.684 152.784H117.94V154.253H119.684V152.784Z" fill="#E0E0E0"/>
<path d="M116.196 152.784H114.451V154.253H116.196V152.784Z" fill="#E0E0E0"/>
<path d="M126.66 155.246H124.915V156.715H126.66V155.246Z" fill="#E0E0E0"/>
<path d="M123.17 155.246H121.426V156.715H123.17V155.246Z" fill="#E0E0E0"/>
<path d="M119.684 155.246H117.94V156.715H119.684V155.246Z" fill="#E0E0E0"/>
<path d="M116.196 155.246H114.451V156.715H116.196V155.246Z" fill="#E0E0E0"/>
<path d="M126.66 157.708H124.915V159.177H126.66V157.708Z" fill="#E0E0E0"/>
<path d="M123.17 157.708H121.426V159.177H123.17V157.708Z" fill="#E0E0E0"/>
<path d="M119.684 157.708H117.94V159.177H119.684V157.708Z" fill="#E0E0E0"/>
<path d="M116.196 157.708H114.451V159.177H116.196V157.708Z" fill="#E0E0E0"/>
<path d="M126.66 160.167H124.915V161.636H126.66V160.167Z" fill="#E0E0E0"/>
<path d="M123.17 160.167H121.426V161.636H123.17V160.167Z" fill="#E0E0E0"/>
<path d="M119.684 160.167H117.94V161.636H119.684V160.167Z" fill="#E0E0E0"/>
<path d="M116.196 160.167H114.451V161.636H116.196V160.167Z" fill="#E0E0E0"/>
<path d="M126.66 162.629H124.915V164.098H126.66V162.629Z" fill="#E0E0E0"/>
<path d="M123.17 162.629H121.426V164.098H123.17V162.629Z" fill="#E0E0E0"/>
<path d="M119.684 162.629H117.94V164.098H119.684V162.629Z" fill="#E0E0E0"/>
<path d="M116.196 162.629H114.451V164.098H116.196V162.629Z" fill="#E0E0E0"/>
<path d="M126.66 165.091H124.915V166.56H126.66V165.091Z" fill="#E0E0E0"/>
<path d="M123.17 165.091H121.426V166.56H123.17V165.091Z" fill="#E0E0E0"/>
<path d="M119.684 165.091H117.94V166.56H119.684V165.091Z" fill="#E0E0E0"/>
<path d="M116.196 165.091H114.451V166.56H116.196V165.091Z" fill="#E0E0E0"/>
<path d="M170.738 84.0745C169.768 85.552 169.116 87.1747 168.768 88.8485L166.102 89.0996V94.2622L168.768 94.5133C169.115 96.1866 169.768 97.8093 170.738 99.2873L169.036 101.344L172.687 104.994L174.743 103.291C176.221 104.261 177.843 104.914 179.517 105.262L179.768 107.928L184.931 107.927L185.182 105.262C186.856 104.914 188.478 104.261 189.956 103.291L192.012 104.994L195.663 101.343L193.961 99.2867C194.93 97.8093 195.583 96.1866 195.93 94.5128L198.596 94.2616L198.597 89.0991L195.931 88.848C195.583 87.1747 194.93 85.552 193.961 84.0745L195.663 82.018L192.012 78.3671L189.956 80.0698C188.478 79.0995 186.855 78.4466 185.182 78.0996L184.931 75.4338L179.768 75.4344L179.517 78.1001C177.843 78.4476 176.22 79.1 174.743 80.0698L172.686 78.3671L169.035 82.018L170.738 84.0745ZM187.244 86.685C189.827 89.2687 189.827 93.4571 187.244 96.0407C184.66 98.6244 180.471 98.6244 177.888 96.0407C175.304 93.4571 175.304 89.2687 177.888 86.685C180.472 84.1014 184.66 84.1014 187.244 86.685Z" fill="#F0F0F0"/>
<path d="M126.365 55.3661C124.665 57.955 123.522 60.7982 122.913 63.7315L118.241 64.1711L118.241 73.2172L122.913 73.6574C123.521 76.5896 124.664 79.4328 126.365 82.0222L123.381 85.6257L129.777 92.0224L133.381 89.0391C135.97 90.7388 138.814 91.8824 141.746 92.491L142.185 97.1628L151.231 97.1623L151.672 92.4915C154.604 91.8823 157.448 90.7388 160.037 89.0391L163.641 92.0224L170.038 85.6257L167.054 82.0222C168.754 79.4333 169.898 76.5901 170.506 73.6574L175.177 73.2172L175.178 64.1711L170.506 63.7309C169.898 60.7988 168.754 57.955 167.054 55.3667L170.038 51.7632L163.641 45.3665L160.038 48.3497C157.448 46.6496 154.605 45.506 151.673 44.8973L151.233 40.2261L142.186 40.2266L141.747 44.8979C138.814 45.5071 135.971 46.6496 133.382 48.3497L129.778 45.366L123.381 51.7632L126.365 55.3661ZM155.286 59.94C159.813 64.4665 159.813 71.8062 155.286 76.3332C150.759 80.8602 143.419 80.8597 138.893 76.3332C134.366 71.8062 134.366 64.467 138.893 59.94C143.42 55.413 150.759 55.413 155.286 59.94Z" fill="#F0F0F0"/>
<path d="M194.078 64.8888C193.634 65.5638 193.336 66.3057 193.177 67.0707L191.959 67.1855V69.5448L193.177 69.6596C193.336 70.4241 193.634 71.166 194.078 71.8415L193.299 72.7814L194.968 74.4499L195.908 73.6717C196.583 74.115 197.325 74.413 198.09 74.572L198.205 75.7904H200.564L200.679 74.572C201.444 74.413 202.185 74.115 202.861 73.6717L203.8 74.4499L205.469 72.7814L204.691 71.8415C205.134 71.1665 205.432 70.4247 205.591 69.6596L206.809 69.5448V67.1855L205.591 67.0707C205.432 66.3057 205.134 65.5644 204.691 64.8888L205.469 63.949L203.8 62.2805L202.861 63.0587C202.185 62.6153 201.444 62.3168 200.679 62.1583L200.564 60.9399H198.205L198.09 62.1583C197.325 62.3173 196.583 62.6153 195.908 63.0587L194.968 62.2805L193.299 63.949L194.078 64.8888ZM201.621 66.0819C202.802 67.2624 202.802 69.1768 201.621 70.3578C200.44 71.5388 198.526 71.5382 197.345 70.3578C196.164 69.1768 196.164 67.2629 197.345 66.0819C198.526 64.9009 200.441 64.9009 201.621 66.0819Z" fill="#F0F0F0"/>
<path d="M244.607 207.166C244.607 208.949 195.368 210.395 134.63 210.395C73.8917 210.395 24.6532 208.949 24.6532 207.166C24.6532 205.383 73.8912 203.938 134.63 203.938C195.369 203.938 244.607 205.383 244.607 207.166Z" fill="#F5F5F5"/>
<path d="M90.4136 83.3982C91.8707 79.4042 89.8141 74.9853 85.8201 73.5283C81.8261 72.0712 77.4072 74.1278 75.9502 78.1218C74.4932 82.1158 76.5498 86.5347 80.5437 87.9917C84.5377 89.4487 88.9566 87.3921 90.4136 83.3982Z" fill="url(#paint0_linear_7897_23395)"/>
<path d="M80.1394 85.9675L80.6612 87.8793L78.4488 89.044L78.1929 86.5978L80.1394 85.9675Z" fill="url(#paint1_linear_7897_23395)"/>
<path d="M82.9763 84.5126C82.6972 84.5126 82.464 84.4225 82.2765 84.2419C82.0891 84.0613 81.9954 83.8418 81.9954 83.5827C81.9954 83.3237 82.0875 83.1073 82.2713 82.9335C82.455 82.7598 82.6904 82.6729 82.9763 82.6729C83.2622 82.6729 83.4975 82.7598 83.6813 82.9335C83.8656 83.1073 83.9572 83.3237 83.9572 83.5827C83.9572 83.8418 83.8635 84.0613 83.676 84.2419C83.4891 84.4225 83.2558 84.5126 82.9763 84.5126ZM83.6102 81.9474H82.3429L82.0259 77.2766H83.9266L83.6102 81.9474Z" fill="white"/>
<path d="M78.1892 73.0859C75.9504 74.2053 74.3509 76.5136 74.0897 79.0024" stroke="url(#paint2_linear_7897_23395)" stroke-width="0.319767" stroke-miterlimit="10" stroke-linecap="round" stroke-linejoin="round"/>
<path d="M74.0102 80.1482C73.9423 80.5236 73.9528 80.9138 74.0413 81.2849" stroke="url(#paint3_linear_7897_23395)" stroke-width="0.319767" stroke-miterlimit="10" stroke-linecap="round" stroke-linejoin="round"/>
<path d="M150.563 55.6039L144.948 56.3263L148.618 59.5428C140.979 66.4097 96.8079 114.782 97.0996 114.31L105.082 121.966L152.539 62.9789L156.222 66.2065L156.201 60.5443L156.181 54.8821L150.563 55.6039Z" fill="url(#paint4_linear_7897_23395)"/>
<path opacity="0.6" d="M150.563 55.6039L144.948 56.3263L148.618 59.5428C140.979 66.4097 96.8079 114.782 97.0996 114.31L105.082 121.966L152.539 62.9789L156.222 66.2065L156.201 60.5443L156.181 54.8821L150.563 55.6039Z" fill="white"/>
<path d="M139.829 189.684H75.6383V205.442H139.829V189.684Z" fill="url(#paint5_linear_7897_23395)"/>
<path d="M145.868 175.934H88.4174V189.684H145.868V175.934Z" fill="url(#paint6_linear_7897_23395)"/>
<path d="M150.201 162.942H97.2181V175.934H150.201V162.942Z" fill="url(#paint7_linear_7897_23395)"/>
<path d="M155.047 149.608H106.817V162.942H155.047V149.608Z" fill="url(#paint8_linear_7897_23395)"/>
<path d="M160.694 136.822H115.218V149.608H160.694V136.822Z" fill="url(#paint9_linear_7897_23395)"/>
<path d="M165.367 126.133H123.709V136.821H165.367V126.133Z" fill="url(#paint10_linear_7897_23395)"/>
<path d="M169.443 115.458H130.932V126.133H169.443V115.458Z" fill="url(#paint11_linear_7897_23395)"/>
<path d="M172.376 106.505H137.956V115.718H172.376V106.505Z" fill="url(#paint12_linear_7897_23395)"/>
<path d="M176.033 97.3691H143.635V106.582H176.033V97.3691Z" fill="url(#paint13_linear_7897_23395)"/>
<path d="M178.431 88.3428H150.255V97.5553H178.431V88.3428Z" fill="url(#paint14_linear_7897_23395)"/>
<path d="M182.012 79.1814H156.665V88.3939H182.012V79.1814Z" fill="url(#paint15_linear_7897_23395)"/>
<path d="M185.782 72.2761H162.759V79.3931H185.782V72.2761Z" fill="url(#paint16_linear_7897_23395)"/>
<path d="M187.215 65.1357H167.277V72.2527H187.215V65.1357Z" fill="url(#paint17_linear_7897_23395)"/>
<path d="M189.982 58.0105H172.526V65.1275H189.982V58.0105Z" fill="url(#paint18_linear_7897_23395)"/>
<path opacity="0.3" d="M189.982 58.0105H186.009V64.881H189.982V58.0105Z" fill="black"/>
<path d="M192.134 51.9954H177.246V58.0651H192.134V51.9954Z" fill="url(#paint19_linear_7897_23395)"/>
<path opacity="0.3" d="M139.829 189.684H130.932V205.442H139.829V189.684Z" fill="black"/>
<path opacity="0.3" d="M145.868 175.924H136.971V189.684H145.868V175.924Z" fill="black"/>
<path opacity="0.3" d="M150.188 162.866H141.291V175.967H150.188V162.866Z" fill="black"/>
<path opacity="0.3" d="M155.075 149.447H146.178V163.034H155.075V149.447Z" fill="black"/>
<path opacity="0.3" d="M160.691 136.822H151.794V149.608H160.691V136.822Z" fill="black"/>
<path opacity="0.3" d="M165.366 126.133H156.47V136.821H165.366V126.133Z" fill="black"/>
<path opacity="0.3" d="M169.443 115.436H160.547V126.133H169.443V115.436Z" fill="black"/>
<path opacity="0.3" d="M172.378 106.72H164.344V115.718H172.378V106.72Z" fill="black"/>
<path opacity="0.3" d="M176.033 97.4766H168.245V106.474H176.033V97.4766Z" fill="black"/>
<path opacity="0.3" d="M178.437 88.4072H171.743V97.4049H178.437V88.4072Z" fill="black"/>
<path opacity="0.3" d="M182.012 79.332H176.263V88.3297H182.012V79.332Z" fill="black"/>
<path d="M75.4866 190.137C92.1494 190.137 108.813 190.137 125.475 190.137C130.124 190.137 134.772 190.137 139.42 190.137C139.674 190.137 139.674 189.742 139.42 189.742C122.757 189.742 106.094 189.742 89.431 189.742C84.7829 189.742 80.1347 189.742 75.4866 189.742C75.2323 189.742 75.2323 190.137 75.4866 190.137Z" fill="#263238"/>
<path d="M88.2489 175.997C103.246 175.997 118.243 175.997 133.239 175.997C137.449 175.997 141.658 175.997 145.868 175.997C146.122 175.997 146.122 175.602 145.868 175.602C130.871 175.602 115.874 175.602 100.878 175.602C96.6684 175.602 92.4589 175.602 88.2489 175.602C87.9951 175.602 87.9946 175.997 88.2489 175.997Z" fill="#263238"/>
<path d="M97.2144 163.064C112.211 163.064 127.208 163.064 142.205 163.064C146.414 163.064 150.624 163.064 154.834 163.064C155.088 163.064 155.088 162.669 154.834 162.669C139.837 162.669 124.84 162.669 109.844 162.669C105.635 162.669 101.425 162.669 97.2149 162.669C96.9601 162.669 96.9596 163.064 97.2144 163.064Z" fill="#263238"/>
<path d="M106.858 149.644C119.385 149.644 131.913 149.644 144.441 149.644C147.976 149.644 151.512 149.644 155.048 149.644C155.302 149.644 155.302 149.25 155.048 149.25C142.52 149.25 129.992 149.25 117.465 149.25C113.929 149.25 110.394 149.25 106.858 149.25C106.603 149.25 106.603 149.644 106.858 149.644Z" fill="#263238"/>
<path d="M115.491 137.019C128.441 137.019 141.392 137.019 154.341 137.019C158.016 137.019 161.692 137.019 165.367 137.019C165.621 137.019 165.621 136.624 165.367 136.624C152.416 136.624 139.466 136.624 126.516 136.624C122.841 136.624 119.166 136.624 115.491 136.624C115.237 136.624 115.237 137.019 115.491 137.019Z" fill="#263238"/>
<path d="M123.9 126.33C135.747 126.33 147.594 126.33 159.44 126.33C162.775 126.33 166.11 126.33 169.444 126.33C169.698 126.33 169.698 125.935 169.444 125.935C157.597 125.935 145.751 125.935 133.904 125.935C130.57 125.935 127.235 125.935 123.9 125.935C123.646 125.935 123.645 126.33 123.9 126.33Z" fill="#263238"/>
<path d="M130.932 115.71C141.686 115.71 152.441 115.71 163.195 115.71C166.255 115.71 169.315 115.71 172.376 115.71C172.63 115.71 172.63 115.315 172.376 115.315C161.621 115.315 150.867 115.315 140.113 115.315C137.052 115.315 133.992 115.315 130.932 115.315C130.678 115.315 130.678 115.71 130.932 115.71Z" fill="#263238"/>
<path d="M137.974 106.918C147.861 106.918 157.747 106.918 167.634 106.918C170.434 106.918 173.234 106.918 176.034 106.918C176.288 106.918 176.288 106.523 176.034 106.523C166.147 106.523 156.26 106.523 146.373 106.523C143.573 106.523 140.774 106.523 137.974 106.523C137.72 106.523 137.719 106.918 137.974 106.918Z" fill="#263238"/>
<path d="M143.621 97.753C152.651 97.753 161.68 97.753 170.71 97.753C173.284 97.753 175.857 97.753 178.431 97.753C178.685 97.753 178.685 97.3582 178.431 97.3582C169.401 97.3582 160.372 97.3582 151.342 97.3582C148.769 97.3582 146.195 97.3582 143.621 97.3582C143.368 97.3582 143.367 97.753 143.621 97.753Z" fill="#263238"/>
<path d="M150.215 88.5922C160.814 88.5922 171.413 88.5922 182.013 88.5922C182.267 88.5922 182.267 88.1973 182.013 88.1973C171.413 88.1973 160.814 88.1973 150.215 88.1973C149.961 88.1973 149.96 88.5922 150.215 88.5922Z" fill="#263238"/>
<path d="M157.068 79.338C166.639 79.338 176.21 79.338 185.782 79.338C186.036 79.338 186.036 78.9431 185.782 78.9431C176.211 78.9431 166.64 78.9431 157.068 78.9431C156.814 78.9431 156.814 79.338 157.068 79.338Z" fill="#263238"/>
<path d="M162.815 72.4735C170.948 72.4735 179.081 72.4735 187.215 72.4735C187.469 72.4735 187.469 72.0786 187.215 72.0786C179.082 72.0786 170.948 72.0786 162.815 72.0786C162.561 72.0786 162.56 72.4735 162.815 72.4735Z" fill="#263238"/>
<path d="M167.339 65.3331C174.887 65.3331 182.434 65.3331 189.982 65.3331C190.236 65.3331 190.236 64.9382 189.982 64.9382C182.434 64.9382 174.887 64.9382 167.339 64.9382C167.085 64.9382 167.085 65.3331 167.339 65.3331Z" fill="#263238"/>
<path opacity="0.3" d="M185.782 72.5168H180.913V79.1405H185.782V72.5168Z" fill="black"/>
<path opacity="0.3" d="M187.21 65.3672H182.341V71.9908H187.21V65.3672Z" fill="black"/>
<path opacity="0.3" d="M192.134 51.9778H188.161V58.0828H192.134V51.9778Z" fill="black"/>
<path d="M172.745 58.2631C179.208 58.2631 185.671 58.2631 192.134 58.2631C192.388 58.2631 192.388 57.8682 192.134 57.8682C185.671 57.8682 179.208 57.8682 172.745 57.8682C172.491 57.8682 172.491 58.2631 172.745 58.2631Z" fill="#263238"/>
<path d="M59.0459 193.005L62.7057 192.649L61.8212 201.075L58.1566 201.432L59.0459 193.005Z" fill="#B97964"/>
<path d="M62.8001 199.532L61.4327 199.379C61.1231 199.345 60.8157 199.462 60.5977 199.678C59.66 200.614 59.1234 200.161 58.4063 199.103C57.8698 198.982 57.636 199.56 57.5686 199.715L56.0301 203.135C55.898 203.42 56.0328 203.747 56.3313 203.866C56.3845 203.887 56.4403 203.901 56.4982 203.907C58.1588 204.092 58.9444 204.18 61.011 204.411L67.3313 205.116C69.0541 205.309 69.6522 203.698 68.9651 203.466C65.8718 202.44 63.7421 201.295 62.8844 200.302C62.7243 200.128 62.9291 200.033 62.8001 199.532Z" fill="#263238"/>
<path d="M65.6201 200.868C65.7786 200.786 65.8875 200.638 65.9144 200.47C65.9397 200.381 65.9097 200.287 65.8365 200.228C65.45 199.892 63.6298 200.46 63.4245 200.528C63.4024 200.533 63.3829 200.547 63.3724 200.567C63.3529 200.602 63.3671 200.646 63.4045 200.664C63.811 200.806 64.2327 200.906 64.6629 200.964C64.9825 201.029 65.3179 200.996 65.6201 200.868ZM65.7112 200.339C65.7433 200.363 65.7554 200.404 65.7417 200.442C65.717 200.562 65.6385 200.669 65.5269 200.732C65.0983 200.965 64.1785 200.741 63.6867 200.596C64.4396 200.379 65.4974 200.156 65.7112 200.339Z" fill="url(#paint20_linear_7897_23395)"/>
<path d="M63.4603 200.687C64.0036 200.541 65.1962 199.859 65.1999 199.428C65.2041 199.338 65.1525 199.225 64.925 199.169C64.0026 198.963 63.3671 200.517 63.3571 200.585C63.3439 200.611 63.3481 200.642 63.3681 200.664C63.385 200.671 63.4034 200.673 63.4218 200.67L63.4603 200.687ZM64.8745 199.297C65.0461 199.334 65.0372 199.393 65.034 199.414C65.0451 199.678 64.1668 200.257 63.5682 200.475C63.7388 200.115 64.219 199.22 64.8124 199.286L64.8745 199.297Z" fill="url(#paint21_linear_7897_23395)"/>
<path d="M63.6024 200.641C63.1227 200.649 62.6468 200.868 62.3372 201.222" stroke="url(#paint22_linear_7897_23395)" stroke-width="0.319767" stroke-miterlimit="10" stroke-linecap="round" stroke-linejoin="round"/>
<path d="M64.3639 201.344C63.8837 201.352 63.4082 201.57 63.0986 201.925" stroke="url(#paint23_linear_7897_23395)" stroke-width="0.319767" stroke-miterlimit="10" stroke-linecap="round" stroke-linejoin="round"/>
<path d="M65.3462 201.973C64.8666 201.982 64.3906 202.2 64.0815 202.554" stroke="url(#paint24_linear_7897_23395)" stroke-width="0.319767" stroke-miterlimit="10" stroke-linecap="round" stroke-linejoin="round"/>
<path d="M20.1641 149.864L20.2641 151.516L38.6612 160.915L39.4384 159.528L20.1641 149.864Z" fill="url(#paint25_linear_7897_23395)"/>
<path opacity="0.2" d="M20.1641 149.864L20.2641 151.516L38.6612 160.915L39.4384 159.528L20.1641 149.864Z" fill="black"/>
<path d="M33.6403 139.197C33.6403 139.197 35.8185 136.842 37.9335 137.752C40.0491 138.662 39.6089 142.269 39.6089 142.269L38.4547 141.648C38.4547 141.648 39.2688 139.109 37.7613 138.487C36.2539 137.865 34.4448 139.728 34.4448 139.728L33.8003 139.243" fill="#263238"/>
<path d="M20.1641 149.863L21.1113 148.233L27.9623 136.443L45.726 145.059L39.4384 159.528L20.1641 149.863Z" fill="url(#paint26_linear_7897_23395)"/>
<path d="M38.8207 134.129C38.5232 134.178 36.6151 135.844 36.2076 136.339C35.8001 136.834 35.7053 137.186 35.9201 137.413C36.135 137.641 36.3877 137.875 36.463 137.886C36.5383 137.898 36.1092 138.409 36.4972 138.761C36.8852 139.112 37.1206 139.092 37.1206 139.092C37.1206 139.092 36.8752 139.903 37.4044 140.219C37.9335 140.536 38.2205 140.311 38.3084 140.363C38.3964 140.416 39.0587 139.537 39.0587 139.537L39.5558 140.658C39.5558 140.658 39.9048 140.406 40.2966 139.889C40.6883 139.372 40.9252 137.768 40.9252 137.768L40.8526 136.288L41.6892 134.314C41.6892 134.314 39.2567 133.579 39.2288 133.633C39.2009 133.687 38.8207 134.129 38.8207 134.129Z" fill="#B97964"/>
<path opacity="0.2" d="M27.9624 136.443C27.9624 136.443 28.2888 145.928 33.6409 147.377C38.993 148.826 45.7266 145.059 45.7266 145.059" fill="black"/>
<path d="M95.5712 96.3714C95.5712 96.3714 96.5436 93.9257 96.9348 93.4161C97.3261 92.9064 98.4028 92.7458 98.4028 92.7458C98.4028 92.7458 102.165 90.6534 102.363 91.0015C102.561 91.3495 101.893 91.786 101.582 92.045C101.271 92.3041 100.485 92.7848 100.485 92.7848C100.485 92.7848 100.411 93.3882 100.097 93.5319C100.097 93.5319 100.852 93.6983 100.48 94.1827C100.48 94.1827 101.185 94.3864 100.825 95.0883C100.825 95.0883 101.174 95.7401 100.819 96.0092C100.464 96.2782 99.747 97.376 98.745 97.6577C97.7431 97.9399 96.4705 98.616 96.4705 98.616L95.5712 96.3714Z" fill="#B97964"/>
<path d="M98.418 92.9033C99.0551 92.9175 99.6922 92.8981 100.327 92.8449C100.299 92.8333 100.271 92.8217 100.243 92.8101C100.252 92.8201 100.244 92.8238 100.237 92.8012C100.239 92.8101 100.25 92.818 100.255 92.8259C100.276 92.8602 100.298 92.8938 100.315 92.9312C100.349 93.0102 100.367 93.1055 100.333 93.1897C100.269 93.3472 100.073 93.4219 99.9249 93.4699C99.727 93.5336 99.5206 93.5683 99.3163 93.6062C98.9572 93.6731 98.4849 93.7363 98.2411 94.0427C98.1227 94.1917 98.1121 94.3897 98.2332 94.5408C98.3701 94.7119 98.5907 94.7446 98.7971 94.7398C99.3542 94.7261 99.9113 94.605 100.429 94.4023C100.57 94.3476 100.509 94.118 100.366 94.1738C100.086 94.2833 99.797 94.3686 99.5011 94.425C99.3574 94.4523 99.2126 94.4729 99.0667 94.486C98.9214 94.4992 98.7598 94.5203 98.6144 94.4955C98.5144 94.4787 98.3764 94.416 98.3801 94.2939C98.3838 94.178 98.5197 94.0975 98.6086 94.0496C98.8182 93.9374 99.0636 93.8937 99.2947 93.85C99.5364 93.8042 99.7823 93.7673 100.016 93.6884C100.213 93.621 100.424 93.5183 100.527 93.3272C100.637 93.1234 100.583 92.8117 100.414 92.648C100.336 92.5716 100.173 92.6206 100.072 92.628C99.8881 92.6411 99.7043 92.6511 99.5206 92.658C99.1525 92.6722 98.7845 92.6748 98.4165 92.6664C98.2659 92.6632 98.2659 92.9002 98.418 92.9033Z" fill="#A24E3F"/>
<path d="M98.5981 94.5349C98.4101 94.6634 98.2516 94.8614 98.2448 95.0983C98.2379 95.3437 98.4659 95.519 98.6892 95.5611C99.0172 95.6227 99.3831 95.5006 99.7043 95.4405C100.066 95.3726 100.428 95.3047 100.79 95.2368C100.94 95.2089 100.876 94.9804 100.727 95.0083C100.181 95.1104 99.6358 95.2189 99.0888 95.3152C98.914 95.3463 98.5444 95.3842 98.4833 95.1436C98.4438 94.9877 98.6049 94.8166 98.7171 94.7397C98.8429 94.6539 98.7244 94.4486 98.5981 94.5349Z" fill="#A24E3F"/>
<path d="M98.9662 95.3452C98.7882 95.4052 98.6639 95.5943 98.6018 95.7627C98.5207 95.9834 98.6366 96.185 98.8361 96.294C99.0941 96.4346 99.3963 96.3788 99.6738 96.3488C99.9976 96.314 100.322 96.2787 100.646 96.244C100.796 96.2277 100.797 95.9907 100.646 96.007C100.391 96.0344 100.138 96.0618 99.8834 96.0892C99.6491 96.1145 99.4027 96.1645 99.1662 96.1466C99.0415 96.1371 98.7782 96.0565 98.8108 95.887C98.8303 95.7849 98.923 95.6095 99.0288 95.5737C99.1731 95.5248 99.111 95.2962 98.9662 95.3452Z" fill="#A24E3F"/>
<path d="M98.0043 94.4525C98.1085 95.1081 97.8189 95.812 97.2845 96.2048C97.1629 96.2943 97.2808 96.5002 97.404 96.4096C98.0322 95.9473 98.3549 95.1597 98.2328 94.3894C98.2091 94.2393 97.9806 94.303 98.0043 94.4525Z" fill="#A24E3F"/>
<path d="M66.9069 105.43C64.6292 105.575 62.4942 104.976 60.9504 103.426C61.4233 102.962 61.6965 102.179 61.8629 101.557C62.2399 100.135 62.361 98.6699 62.2199 97.2246C62.1599 96.3885 62.0556 95.5566 61.9082 94.7332L64.1496 96.5839L66.6263 98.6004C66.4868 99.0606 66.3846 99.5297 66.3209 100.003C66.1656 101.327 65.9992 103.345 67.772 103.75C68.2417 104.557 69.0915 105.35 66.9069 105.43Z" fill="#B97964"/>
<path opacity="0.2" d="M62.2045 98.3213C62.2045 98.3213 63.7066 102.06 66.2487 100.69L66.3429 99.8371L62.2045 98.3213Z" fill="black"/>
<path d="M60.7918 90.4277C61.5905 87.9994 64.2837 86.5852 66.8062 87.2692C70.2844 88.2174 71.1132 93.0493 70.5845 96.0773C69.9954 99.4481 65.8353 101.404 63.0264 99.1453C61.1541 97.6432 61.0661 95.7045 60.6138 92.4406C60.5154 91.7704 60.5765 91.0827 60.7918 90.4277Z" fill="#B97964"/>
<path d="M71.4986 89.2884C71.4986 89.2884 71.1832 89.6659 70.882 89.5606C71.1763 89.0709 71.1311 88.4691 70.7683 88.0442C70.7683 88.0442 70.5577 88.5634 70.3023 88.577C70.1338 87.3587 69.5768 86.2309 68.7049 85.3447C67.1911 83.7015 62.3234 85.9034 62.3234 85.9034C62.3234 85.9034 61.1409 84.923 59.2991 86.6305C57.8228 87.9995 57.6817 90.7589 57.8343 91.9457C58.3925 93.0835 59.6866 94.1755 61.4299 94.7157C62.2713 93.7348 62.314 92.2695 62.2155 91.257C62.4725 91.1823 62.711 91.0464 62.9053 90.8553C63.6592 90.114 63.0601 87.574 66.107 87.9163C66.6404 87.5814 67.3206 87.5703 67.844 87.8884C68.7854 88.4212 69.3262 91.3908 70.6088 90.5041C71.8908 89.6175 71.4986 89.2884 71.4986 89.2884Z" fill="#263238"/>
<path d="M65.8596 93.1143C65.9017 93.4871 66.1903 93.7429 66.4498 93.6903C66.7094 93.6376 66.8542 93.2943 66.7868 92.9247C66.7199 92.5551 66.4498 92.2966 66.1966 92.3487C65.9433 92.3998 65.7917 92.7383 65.8596 93.1143Z" fill="#263238"/>
<path d="M69.1005 92.7117C69.1426 93.0845 69.4375 93.3398 69.6907 93.2877C69.9445 93.2361 70.0951 92.8912 70.0277 92.5222C69.9608 92.1525 69.6907 91.894 69.4375 91.9461C69.1842 91.9977 69.0357 92.36 69.1005 92.7117Z" fill="#263238"/>
<path d="M70.097 90.4188C70.0444 90.461 69.9733 90.4741 69.9101 90.4531C69.4868 90.2935 69.0035 90.3362 68.6049 90.5678C68.5238 90.6247 68.4117 90.61 68.3543 90.5342C68.2969 90.4583 68.3164 90.3509 68.3974 90.2941L68.398 90.2935C68.8939 89.9882 69.5068 89.9265 70.0423 90.1282C70.1355 90.1582 70.1834 90.2551 70.1492 90.3451C70.1486 90.3462 70.1481 90.3478 70.1476 90.3488C70.135 90.3746 70.1176 90.3983 70.097 90.4188Z" fill="#263238"/>
<path d="M64.733 91.5892C64.6966 91.5956 64.6598 91.5908 64.6277 91.5761C64.5497 91.5197 64.5371 91.4118 64.5987 91.336C64.5992 91.3349 64.6003 91.3339 64.6013 91.3328C64.9615 90.8837 65.5227 90.6231 66.1056 90.6336C66.2046 90.641 66.2757 90.7236 66.2646 90.8179C66.2514 90.9116 66.1635 90.9811 66.0656 90.9758C65.6043 90.9801 65.1658 91.1922 64.8825 91.5471C64.8409 91.5813 64.7861 91.5966 64.733 91.5892Z" fill="#263238"/>
<path d="M58.8153 95.2945C59.1986 96.1153 59.9126 96.7471 60.8008 97.0514C61.9802 97.4463 62.6879 96.4454 62.462 95.3318C62.2514 94.3441 61.3916 92.9156 60.1569 93.0136C58.9222 93.111 58.3583 94.2804 58.8153 95.2945Z" fill="#B97964"/>
<path opacity="0.1" d="M61.6369 95.5665C61.5611 94.9583 61.1872 94.3986 60.646 94.0817C60.4159 93.9469 60.0973 93.8616 59.8799 94.0274" stroke="black" stroke-width="0.319767" stroke-miterlimit="10"/>
<path d="M67.5209 95.9494C66.7811 95.8878 66.0693 95.6761 65.4317 95.3286C65.3874 95.4444 65.3611 95.5656 65.3537 95.6877C65.3337 95.9046 65.3701 96.1221 65.459 96.319C65.6417 96.7228 66.0988 97.1156 67.1934 97.2141C67.274 97.2251 67.355 97.2325 67.4366 97.2357C67.5646 96.8102 67.7241 96.3927 67.9142 95.9873C67.9142 95.9873 67.7657 95.9794 67.5209 95.9494Z" fill="#263238"/>
<path d="M65.4495 95.3252C65.4053 95.441 65.379 95.5621 65.3716 95.6843C65.6522 96.0134 66.3583 96.2129 67.3887 96.314L67.5393 95.946C66.799 95.8844 66.0871 95.6727 65.4495 95.3252Z" fill="white"/>
<path d="M66.6441 96.6592C66.2755 96.4796 65.8738 96.3649 65.4584 96.3196C65.6411 96.7234 66.0981 97.1162 67.1927 97.2147C67.0774 96.9772 66.8852 96.7829 66.6441 96.6592Z" fill="#F54948"/>
<path d="M68.0242 92.4231C68.5512 93.2297 69.1957 93.9595 69.9381 94.5913C69.57 94.962 69.054 95.1636 68.5286 95.1426L68.0242 92.4231Z" fill="#A24E3F"/>
<path d="M90.7509 178.697L94.2527 177.784L95.2805 186.233L91.7739 187.147L90.7509 178.697Z" fill="#B97964"/>
<path d="M95.8917 184.56L94.5191 184.619C94.2084 184.632 93.9331 184.795 93.7693 185.042C93.0617 186.109 92.4351 185.744 91.4953 184.81C90.943 184.773 90.8445 185.38 90.8129 185.543L90.0758 189.152C90.011 189.454 90.2164 189.756 90.5349 189.828C90.5918 189.841 90.6497 189.846 90.7071 189.842C92.374 189.77 93.1622 189.737 95.2372 189.647L101.582 189.374C103.311 189.299 103.535 187.619 102.81 187.495C99.5515 186.957 97.2101 186.154 96.1481 185.307C95.9512 185.159 96.1302 185.034 95.8917 184.56Z" fill="#263238"/>
<path d="M98.9524 185.445C99.0888 185.34 99.1625 185.177 99.1509 185.007C99.1557 184.916 99.1051 184.828 99.0204 184.781C98.5665 184.509 96.9127 185.348 96.7274 185.447C96.7063 185.455 96.691 185.472 96.6847 185.493C96.6737 185.531 96.6974 185.572 96.7384 185.584C97.1675 185.661 97.603 185.695 98.0373 185.687C98.3643 185.702 98.685 185.617 98.9524 185.445ZM98.9224 184.91C98.9593 184.929 98.9803 184.967 98.9751 185.006C98.9777 185.129 98.9251 185.246 98.8303 185.326C98.4633 185.621 97.5124 185.542 96.9985 185.474C97.6867 185.144 98.6723 184.761 98.9224 184.91Z" fill="url(#paint27_linear_7897_23395)"/>
<path d="M96.7974 185.598C97.296 185.371 98.3106 184.515 98.2174 184.09C98.2011 184.001 98.1252 183.896 97.8899 183.876C96.9406 183.814 96.6678 185.445 96.6736 185.514C96.6668 185.542 96.6778 185.572 96.7021 185.59C96.72 185.594 96.7389 185.593 96.7558 185.587L96.7974 185.598ZM97.8694 184.01C98.0452 184.019 98.0505 184.079 98.0521 184.101C98.1226 184.36 97.3929 185.066 96.8558 185.373C96.9416 184.991 97.2107 184.035 97.8062 184.009L97.8694 184.01Z" fill="url(#paint28_linear_7897_23395)"/>
<path d="M96.9265 185.531C96.4589 185.613 96.0419 185.902 95.8192 186.298" stroke="url(#paint29_linear_7897_23395)" stroke-width="0.319767" stroke-miterlimit="10" stroke-linecap="round" stroke-linejoin="round"/>
<path d="M97.8295 186.107C97.3619 186.189 96.9449 186.478 96.7217 186.875" stroke="url(#paint30_linear_7897_23395)" stroke-width="0.319767" stroke-miterlimit="10" stroke-linecap="round" stroke-linejoin="round"/>
<path d="M98.9325 186.578C98.4649 186.66 98.0479 186.948 97.8252 187.345" stroke="url(#paint31_linear_7897_23395)" stroke-width="0.319767" stroke-miterlimit="10" stroke-linecap="round" stroke-linejoin="round"/>
<path d="M93.4429 168.604C92.7716 164.487 91.8165 159.861 90.0637 156.076C85.2519 145.681 75.3554 136.473 69.5732 128.99L56.912 134.774C62.7706 140.44 69.6864 147.945 75.8935 153.397C77.8527 155.118 79.8793 157.747 81.591 159.714C81.591 159.714 84.4695 165.798 85.4514 169.445C86.4908 173.307 88.2799 179.895 89.0002 184.008L95.8191 182.389C95.4511 179.339 94.0942 172.601 93.4429 168.604Z" fill="url(#paint32_linear_7897_23395)"/>
<g opacity="0.2">
<path d="M93.4429 168.604C92.7716 164.487 91.8165 159.861 90.0637 156.076C85.2519 145.681 75.3554 136.473 69.5732 128.99L56.912 134.774C62.7706 140.44 69.6864 147.945 75.8935 153.397C77.8527 155.118 79.8793 157.747 81.591 159.714C81.591 159.714 84.4695 165.798 85.4514 169.445C86.4908 173.307 88.2799 179.895 89.0002 184.008L95.8191 182.389C95.4511 179.339 94.0942 172.601 93.4429 168.604Z" fill="black"/>
</g>
<path d="M73.0908 134.474C72.995 134.861 69.3657 167.478 67.6714 173.705C65.977 179.932 64.1653 191.094 63.8625 197.766L57.3247 198.496C57.3247 198.496 58.0903 188.252 59.0954 170.344C60.1005 152.435 56.4949 141.343 55.9115 136.471C55.3276 131.598 73.0908 134.474 73.0908 134.474Z" fill="url(#paint33_linear_7897_23395)"/>
<path opacity="0.2" d="M73.0908 134.474C72.995 134.861 69.3657 167.478 67.6714 173.705C65.977 179.932 64.1653 191.094 63.8625 197.766L57.3247 198.496C57.3247 198.496 58.0903 188.252 59.0954 170.344C60.1005 152.435 56.4949 141.343 55.9115 136.471C55.3276 131.598 73.0908 134.474 73.0908 134.474Z" fill="black"/>
<path opacity="0.2" d="M71.3221 149.164C71.4353 148.771 71.3221 141.616 71.3221 141.616L73.0907 138.748L72.3025 141.844L73.6609 151.381L71.3221 149.164Z" fill="black"/>
<path d="M60.4993 102.642L68.2854 103.331C69.7149 103.391 71.6662 105.262 72.0163 107.494C73.6364 120.471 73.6375 132.036 73.6375 132.036C70.5663 135.347 65.9645 134.164 55.351 134.473L57.9846 105.66C58.0199 104.249 59.5652 102.642 60.4993 102.642Z" fill="white"/>
<path d="M67.8336 103.245L67.2355 103.131L66.4699 101.389L65.549 102.809L62.1393 99.7507L60.645 102.121L63.9605 106.677L67.3587 107.138L67.8336 103.245Z" fill="white"/>
<path d="M66.5162 106.003C66.5162 106.003 71.2027 126.896 71.1353 127.908C71.0679 128.92 69.8769 131.534 69.8769 131.534L66.8326 126.833L65.7253 106.161L66.5162 106.003Z" fill="url(#paint34_linear_7897_23395)"/>
<path d="M65.6723 103.513C65.7776 103.539 66.7795 104.568 66.7795 104.568L66.4631 106.071L65.6723 106.229L64.6703 104.594L65.6723 103.513Z" fill="url(#paint35_linear_7897_23395)"/>
<path opacity="0.2" d="M57.3264 143.998C57.3264 143.998 62.4784 144.71 64.7766 144.851C67.0743 144.992 67.4966 145.358 67.684 144.425C67.8715 143.491 67.8378 130.877 67.1043 128.11C66.3709 125.343 63.7452 110.176 63.7452 110.176L56.991 142.269L57.3264 143.998Z" fill="black"/>
<path d="M95.4678 95.3252C95.4678 95.3252 84.2719 100.617 80.799 102.241C77.3261 103.865 71.5081 103.201 71.5081 103.201L72.8401 111.227C72.8401 111.227 80.5121 108.251 83.8291 106.686C89.5082 104.007 96.1349 99.6053 97.2032 99.2925L95.4678 95.3252Z" fill="#263238"/>
<path d="M72.2989 103.269C72.5306 103.617 74.2702 124.574 74.3297 127.485C74.3892 130.396 77.1671 137.26 77.1671 137.26L72.8317 132.777C72.8317 132.777 71.3348 113.401 70.0396 110.351C68.4305 106.561 66.7799 102.094 66.7799 102.094L68.1331 102.92C70.4513 102.876 72.2989 103.269 72.2989 103.269Z" fill="#263238"/>
<path opacity="0.3" d="M68.1331 102.921L70.1865 105.98C70.4687 106.4 70.2744 106.973 69.7953 107.136L69.4836 107.241L70.9605 108.019L71.3543 118.258C71.3543 118.258 70.7104 112.457 70.3955 111.566C69.5726 109.235 66.7799 102.094 66.7799 102.094C66.8799 102.104 68.1331 102.921 68.1331 102.921Z" fill="black"/>
<path opacity="0.3" d="M73.3257 111.038L73.035 107.138L74.8968 110.419L73.3257 111.038Z" fill="black"/>
<path d="M64.0051 109.799C64.0051 108.515 60.9287 101.173 60.9287 101.173L60.2 102.184L55.9904 103.893L54.393 113.819C54.3909 114.537 55.4918 126.118 55.4918 126.118C55.4423 126.958 52.6476 141.042 52.5696 141.853C52.4928 142.655 66.6361 144.44 67.0289 143.908C67.5149 143.249 64.0051 111.083 64.0051 109.799Z" fill="#263238"/>
<path d="M56.1785 103.817C56.1785 103.817 54.9201 104.281 53.3901 105.451C51.8605 106.621 47.8827 116.619 46.3531 119.318C44.8236 122.018 38.4185 133.033 38.6881 133.286C38.9582 133.538 41.2075 136.057 42.1073 135.607C43.0071 135.157 49.7318 125.978 52.187 121.265C54.6421 116.552 57.1994 112.533 57.4053 112.383C57.6112 112.234 56.1785 103.817 56.1785 103.817Z" fill="#263238"/>
<path opacity="0.3" d="M60.9286 101.174L60.1999 102.184C60.1999 102.184 59.08 106.046 59.8361 107.338L61.1572 107.903L60.3658 108.791L64.9807 119.567L63.9435 109.356C63.4122 107.222 62.1986 104.233 60.9286 101.174Z" fill="black"/>
<path opacity="0.3" d="M54.5499 116.968L56.9119 113.074L55.1049 122.001L54.5499 116.968Z" fill="black"/>
<g opacity="0.3">
<path d="M54.4042 132.472L59.5499 132.861V134.789L54.0809 134.222L54.4042 132.472Z" fill="black"/>
</g>
<path d="M209.83 35.8462C214.496 24.8304 209.35 12.117 198.334 7.45012C187.318 2.78323 174.605 7.93007 169.938 18.9459C165.271 29.9617 170.418 42.6751 181.433 47.342C192.449 52.0089 205.163 46.8621 209.83 35.8462Z" fill="url(#paint36_linear_7897_23395)"/>
<path opacity="0.3" d="M209.83 35.8462C214.496 24.8304 209.35 12.117 198.334 7.45012C187.318 2.78323 174.605 7.93007 169.938 18.9459C165.271 29.9617 170.418 42.6751 181.433 47.342C192.449 52.0089 205.163 46.8621 209.83 35.8462Z" fill="black"/>
<path d="M209.746 28.8507C211.844 17.0728 203.997 5.8239 192.219 3.72553C180.441 1.62716 169.192 9.47397 167.094 21.2519C164.996 33.0298 172.843 44.2787 184.62 46.3771C196.398 48.4754 207.647 40.6286 209.746 28.8507Z" fill="url(#paint37_linear_7897_23395)"/>
<path d="M204.552 31.7368C208.242 22.8267 204.01 12.6125 195.1 8.92271C186.19 5.23291 175.975 9.4648 172.286 18.3749C168.596 27.285 172.828 37.4992 181.738 41.189C190.648 44.8788 200.862 40.6469 204.552 31.7368Z" fill="white"/>
<path d="M199.896 29.2085C202.194 22.8645 198.914 15.8587 192.57 13.5605C186.226 11.2623 179.221 14.5421 176.922 20.886C174.624 27.23 177.904 34.2358 184.248 36.534C190.592 38.8322 197.598 35.5525 199.896 29.2085Z" fill="url(#paint38_linear_7897_23395)"/>
<path d="M196.025 26.4389C196.787 22.2371 193.999 18.213 189.797 17.4507C185.595 16.6884 181.571 19.4766 180.809 23.6784C180.047 27.8802 182.835 31.9043 187.037 32.6666C191.238 33.4289 195.262 30.6407 196.025 26.4389Z" fill="white"/>
<path d="M191.211 23.8311C191.851 25.389 191.106 27.1708 189.548 27.8105C187.991 28.4502 186.209 27.7057 185.569 26.1478C184.929 24.5898 185.674 22.808 187.232 22.1683C188.79 21.5291 190.572 22.2731 191.211 23.8311Z" fill="url(#paint39_linear_7897_23395)"/>
</g>
<defs>
<linearGradient id="paint0_linear_7897_23395" x1="75.9502" y1="78.1218" x2="90.4136" y2="83.3982" gradientUnits="userSpaceOnUse">
<stop stop-color="#0059B3"/>
<stop offset="1" stop-color="#003366"/>
</linearGradient>
<linearGradient id="paint1_linear_7897_23395" x1="79.427" y1="85.9675" x2="79.427" y2="89.044" gradientUnits="userSpaceOnUse">
<stop stop-color="#0059B3"/>
<stop offset="1" stop-color="#003366"/>
</linearGradient>
<linearGradient id="paint2_linear_7897_23395" x1="76.1395" y1="73.0859" x2="76.1395" y2="79.0024" gradientUnits="userSpaceOnUse">
<stop stop-color="#0059B3"/>
<stop offset="1" stop-color="#003366"/>
</linearGradient>
<linearGradient id="paint3_linear_7897_23395" x1="74.0037" y1="80.1482" x2="74.0037" y2="81.2849" gradientUnits="userSpaceOnUse">
<stop stop-color="#0059B3"/>
<stop offset="1" stop-color="#003366"/>
</linearGradient>
<linearGradient id="paint4_linear_7897_23395" x1="126.66" y1="54.8821" x2="126.66" y2="121.966" gradientUnits="userSpaceOnUse">
<stop stop-color="#0059B3"/>
<stop offset="1" stop-color="#003366"/>
</linearGradient>
<linearGradient id="paint5_linear_7897_23395" x1="107.734" y1="189.684" x2="107.734" y2="205.442" gradientUnits="userSpaceOnUse">
<stop stop-color="#0059B3"/>
<stop offset="1" stop-color="#003366"/>
</linearGradient>
<linearGradient id="paint6_linear_7897_23395" x1="117.143" y1="175.934" x2="117.143" y2="189.684" gradientUnits="userSpaceOnUse">
<stop stop-color="#0059B3"/>
<stop offset="1" stop-color="#003366"/>
</linearGradient>
<linearGradient id="paint7_linear_7897_23395" x1="123.709" y1="162.942" x2="123.709" y2="175.934" gradientUnits="userSpaceOnUse">
<stop stop-color="#0059B3"/>
<stop offset="1" stop-color="#003366"/>
</linearGradient>
<linearGradient id="paint8_linear_7897_23395" x1="130.932" y1="149.608" x2="130.932" y2="162.942" gradientUnits="userSpaceOnUse">
<stop stop-color="#0059B3"/>
<stop offset="1" stop-color="#003366"/>
</linearGradient>
<linearGradient id="paint9_linear_7897_23395" x1="137.956" y1="136.822" x2="137.956" y2="149.608" gradientUnits="userSpaceOnUse">
<stop stop-color="#0059B3"/>
<stop offset="1" stop-color="#003366"/>
</linearGradient>
<linearGradient id="paint10_linear_7897_23395" x1="144.538" y1="126.133" x2="144.538" y2="136.821" gradientUnits="userSpaceOnUse">
<stop stop-color="#0059B3"/>
<stop offset="1" stop-color="#003366"/>
</linearGradient>
<linearGradient id="paint11_linear_7897_23395" x1="150.188" y1="115.458" x2="150.188" y2="126.133" gradientUnits="userSpaceOnUse">
<stop stop-color="#0059B3"/>
<stop offset="1" stop-color="#003366"/>
</linearGradient>
<linearGradient id="paint12_linear_7897_23395" x1="155.166" y1="106.505" x2="155.166" y2="115.718" gradientUnits="userSpaceOnUse">
<stop stop-color="#0059B3"/>
<stop offset="1" stop-color="#003366"/>
</linearGradient>
<linearGradient id="paint13_linear_7897_23395" x1="159.834" y1="97.3691" x2="159.834" y2="106.582" gradientUnits="userSpaceOnUse">
<stop stop-color="#0059B3"/>
<stop offset="1" stop-color="#003366"/>
</linearGradient>
<linearGradient id="paint14_linear_7897_23395" x1="164.343" y1="88.3428" x2="164.343" y2="97.5553" gradientUnits="userSpaceOnUse">
<stop stop-color="#0059B3"/>
<stop offset="1" stop-color="#003366"/>
</linearGradient>
<linearGradient id="paint15_linear_7897_23395" x1="169.338" y1="79.1814" x2="169.338" y2="88.3939" gradientUnits="userSpaceOnUse">
<stop stop-color="#0059B3"/>
<stop offset="1" stop-color="#003366"/>
</linearGradient>
<linearGradient id="paint16_linear_7897_23395" x1="174.271" y1="72.2761" x2="174.271" y2="79.3931" gradientUnits="userSpaceOnUse">
<stop stop-color="#0059B3"/>
<stop offset="1" stop-color="#003366"/>
</linearGradient>
<linearGradient id="paint17_linear_7897_23395" x1="177.246" y1="65.1357" x2="177.246" y2="72.2527" gradientUnits="userSpaceOnUse">
<stop stop-color="#0059B3"/>
<stop offset="1" stop-color="#003366"/>
</linearGradient>
<linearGradient id="paint18_linear_7897_23395" x1="181.254" y1="58.0105" x2="181.254" y2="65.1275" gradientUnits="userSpaceOnUse">
<stop stop-color="#0059B3"/>
<stop offset="1" stop-color="#003366"/>
</linearGradient>
<linearGradient id="paint19_linear_7897_23395" x1="184.69" y1="51.9954" x2="184.69" y2="58.0651" gradientUnits="userSpaceOnUse">
<stop stop-color="#0059B3"/>
<stop offset="1" stop-color="#003366"/>
</linearGradient>
<linearGradient id="paint20_linear_7897_23395" x1="64.6434" y1="200.122" x2="64.6434" y2="200.997" gradientUnits="userSpaceOnUse">
<stop stop-color="#0059B3"/>
<stop offset="1" stop-color="#003366"/>
</linearGradient>
<linearGradient id="paint21_linear_7897_23395" x1="64.2748" y1="199.15" x2="64.2748" y2="200.687" gradientUnits="userSpaceOnUse">
<stop stop-color="#0059B3"/>
<stop offset="1" stop-color="#003366"/>
</linearGradient>
<linearGradient id="paint22_linear_7897_23395" x1="62.9698" y1="200.641" x2="62.9698" y2="201.222" gradientUnits="userSpaceOnUse">
<stop stop-color="#0059B3"/>
<stop offset="1" stop-color="#003366"/>
</linearGradient>
<linearGradient id="paint23_linear_7897_23395" x1="63.7312" y1="201.344" x2="63.7312" y2="201.925" gradientUnits="userSpaceOnUse">
<stop stop-color="#0059B3"/>
<stop offset="1" stop-color="#003366"/>
</linearGradient>
<linearGradient id="paint24_linear_7897_23395" x1="64.7139" y1="201.973" x2="64.7139" y2="202.554" gradientUnits="userSpaceOnUse">
<stop stop-color="#0059B3"/>
<stop offset="1" stop-color="#003366"/>
</linearGradient>
<linearGradient id="paint25_linear_7897_23395" x1="29.8012" y1="149.864" x2="29.8012" y2="160.915" gradientUnits="userSpaceOnUse">
<stop stop-color="#0059B3"/>
<stop offset="1" stop-color="#003366"/>
</linearGradient>
<linearGradient id="paint26_linear_7897_23395" x1="32.9451" y1="136.443" x2="32.9451" y2="159.528" gradientUnits="userSpaceOnUse">
<stop stop-color="#0059B3"/>
<stop offset="1" stop-color="#003366"/>
</linearGradient>
<linearGradient id="paint27_linear_7897_23395" x1="97.9171" y1="184.727" x2="97.9171" y2="185.689" gradientUnits="userSpaceOnUse">
<stop stop-color="#0059B3"/>
<stop offset="1" stop-color="#003366"/>
</linearGradient>
<linearGradient id="paint28_linear_7897_23395" x1="97.4475" y1="183.875" x2="97.4475" y2="185.598" gradientUnits="userSpaceOnUse">
<stop stop-color="#0059B3"/>
<stop offset="1" stop-color="#003366"/>
</linearGradient>
<linearGradient id="paint29_linear_7897_23395" x1="96.3729" y1="185.531" x2="96.3729" y2="186.298" gradientUnits="userSpaceOnUse">
<stop stop-color="#0059B3"/>
<stop offset="1" stop-color="#003366"/>
</linearGradient>
<linearGradient id="paint30_linear_7897_23395" x1="97.2756" y1="186.107" x2="97.2756" y2="186.875" gradientUnits="userSpaceOnUse">
<stop stop-color="#0059B3"/>
<stop offset="1" stop-color="#003366"/>
</linearGradient>
<linearGradient id="paint31_linear_7897_23395" x1="98.3788" y1="186.578" x2="98.3788" y2="187.345" gradientUnits="userSpaceOnUse">
<stop stop-color="#0059B3"/>
<stop offset="1" stop-color="#003366"/>
</linearGradient>
<linearGradient id="paint32_linear_7897_23395" x1="76.3656" y1="128.99" x2="76.3656" y2="184.008" gradientUnits="userSpaceOnUse">
<stop stop-color="#0059B3"/>
<stop offset="1" stop-color="#003366"/>
</linearGradient>
<linearGradient id="paint33_linear_7897_23395" x1="64.4941" y1="133.631" x2="64.4941" y2="198.496" gradientUnits="userSpaceOnUse">
<stop stop-color="#0059B3"/>
<stop offset="1" stop-color="#003366"/>
</linearGradient>
<linearGradient id="paint34_linear_7897_23395" x1="68.4307" y1="106.003" x2="68.4307" y2="131.534" gradientUnits="userSpaceOnUse">
<stop stop-color="#0059B3"/>
<stop offset="1" stop-color="#003366"/>
</linearGradient>
<linearGradient id="paint35_linear_7897_23395" x1="65.7249" y1="103.513" x2="65.7249" y2="106.229" gradientUnits="userSpaceOnUse">
<stop stop-color="#0059B3"/>
<stop offset="1" stop-color="#003366"/>
</linearGradient>
<linearGradient id="paint36_linear_7897_23395" x1="169.938" y1="18.9459" x2="209.83" y2="35.8462" gradientUnits="userSpaceOnUse">
<stop stop-color="#0059B3"/>
<stop offset="1" stop-color="#003366"/>
</linearGradient>
<linearGradient id="paint37_linear_7897_23395" x1="167.094" y1="21.2519" x2="209.746" y2="28.8507" gradientUnits="userSpaceOnUse">
<stop stop-color="#0059B3"/>
<stop offset="1" stop-color="#003366"/>
</linearGradient>
<linearGradient id="paint38_linear_7897_23395" x1="176.922" y1="20.886" x2="199.896" y2="29.2085" gradientUnits="userSpaceOnUse">
<stop stop-color="#0059B3"/>
<stop offset="1" stop-color="#003366"/>
</linearGradient>
<linearGradient id="paint39_linear_7897_23395" x1="188.39" y1="21.9392" x2="188.39" y2="28.0398" gradientUnits="userSpaceOnUse">
<stop stop-color="#0059B3"/>
<stop offset="1" stop-color="#003366"/>
</linearGradient>
<clipPath id="clip0_7897_23395">
<rect width="270" height="210" fill="white"/>
</clipPath>
</defs>
</svg>
