<svg width="21" height="13" viewBox="0 0 21 13" fill="none" xmlns="http://www.w3.org/2000/svg">
<mask id="path-1-outside-1_3037_48737" maskUnits="userSpaceOnUse" x="6" y="3.5" width="10" height="10" fill="black">
<rect fill="white" x="6" y="3.5" width="10" height="10"/>
<path d="M15 8.5C15 10.7091 13.2091 12.5 11 12.5C8.79086 12.5 7 10.7091 7 8.5C7 6.29086 8.79086 4.5 11 4.5C13.2091 4.5 15 6.29086 15 8.5ZM8.49214 8.5C8.49214 9.88505 9.61495 11.0079 11 11.0079C12.3851 11.0079 13.5079 9.88505 13.5079 8.5C13.5079 7.11495 12.3851 5.99214 11 5.99214C9.61495 5.99214 8.49214 7.11495 8.49214 8.5Z"/>
</mask>
<path d="M15 8.5C15 10.7091 13.2091 12.5 11 12.5C8.79086 12.5 7 10.7091 7 8.5C7 6.29086 8.79086 4.5 11 4.5C13.2091 4.5 15 6.29086 15 8.5ZM8.49214 8.5C8.49214 9.88505 9.61495 11.0079 11 11.0079C12.3851 11.0079 13.5079 9.88505 13.5079 8.5C13.5079 7.11495 12.3851 5.99214 11 5.99214C9.61495 5.99214 8.49214 7.11495 8.49214 8.5Z" fill="#484C52"/>
<path d="M15 8.5C15 10.7091 13.2091 12.5 11 12.5C8.79086 12.5 7 10.7091 7 8.5C7 6.29086 8.79086 4.5 11 4.5C13.2091 4.5 15 6.29086 15 8.5ZM8.49214 8.5C8.49214 9.88505 9.61495 11.0079 11 11.0079C12.3851 11.0079 13.5079 9.88505 13.5079 8.5C13.5079 7.11495 12.3851 5.99214 11 5.99214C9.61495 5.99214 8.49214 7.11495 8.49214 8.5Z" stroke="#484C52" stroke-width="0.4" mask="url(#path-1-outside-1_3037_48737)"/>
<path d="M10.732 0.900001L10.639 0.900018V0.900478C8.4221 0.922026 6.25479 1.67222 4.50551 3.0371C2.73007 4.42238 1.46853 6.36127 0.921308 8.5457L0.92128 8.54569L0.92075 8.54805C0.872007 8.76466 0.909953 8.99174 1.02647 9.18073C1.14299 9.36973 1.32883 9.50563 1.54426 9.55937C1.75968 9.61312 1.98758 9.58044 2.17922 9.46833C2.37087 9.35622 2.51103 9.17357 2.56975 8.95945L2.56977 8.95945L2.5703 8.95733C3.09479 6.86668 4.40261 5.05752 6.22334 3.9039C7.57761 3.04584 9.15754 2.59913 10.739 2.59903C12.3203 2.59913 13.8815 3.04572 15.236 3.9039C17.0567 5.05752 18.3645 6.86668 18.889 8.95733L18.889 8.95734L18.8896 8.95945C18.9483 9.17357 19.0885 9.35622 19.2801 9.46833C19.4718 9.58044 19.6997 9.61312 19.9151 9.55937C20.1305 9.50563 20.3164 9.36973 20.4329 9.18074C20.5494 8.99174 20.5873 8.76466 20.5386 8.54805L20.5386 8.54804L20.538 8.5457C19.9908 6.36127 18.7293 4.42238 16.9538 3.0371C15.2047 1.67233 13.0556 0.92203 10.839 0.900478V0.900018L10.746 0.900001C10.7437 0.9 10.7414 0.9 10.739 0.9C10.7367 0.9 10.7344 0.9 10.732 0.900001Z" fill="#484C52" stroke="#484C52" stroke-width="0.2"/>
</svg>
