<svg width="239" height="152" viewBox="0 0 239 152" fill="none" xmlns="http://www.w3.org/2000/svg">
<path d="M46.4294 20.2132L0.367676 51.0605L45.7361 118.964L91.7978 88.1167L46.4294 20.2132Z" fill="#EBEBEB"/>
<path d="M67.9969 84.9029L67.4739 88.142L44.5762 84.8397L45.0988 81.6006L67.9969 84.9029Z" fill="#E0E0E0"/>
<path d="M56.4651 73.3486L59.7509 73.8229L56.108 96.3936L52.8218 95.9202L56.4651 73.3486Z" fill="#E0E0E0"/>
<path d="M35.374 44.6607C35.4069 44.7101 30.7906 47.8587 25.0652 51.6929C19.3376 55.5283 14.6692 58.5968 14.6364 58.5475C14.6036 58.4986 19.2186 55.3503 24.9465 51.5149C30.672 47.6807 35.3412 44.6118 35.374 44.6607Z" fill="#E0E0E0"/>
<path d="M52.3135 40.4037C52.3463 40.453 44.6701 45.6509 35.1708 52.0119C25.6677 58.3753 17.9402 63.4926 17.9073 63.4433C17.8745 63.3944 25.5491 58.1974 35.0517 51.8339C44.5511 45.4729 52.2807 40.3548 52.3135 40.4037Z" fill="#E0E0E0"/>
<path d="M55.7089 45.4857C55.7417 45.535 48.0655 50.7329 38.5661 57.0939C29.0631 63.4573 21.3356 68.5747 21.3027 68.5253C21.2699 68.476 28.9445 63.2794 38.4471 56.9159C47.9469 50.5549 55.676 45.4368 55.7089 45.4857Z" fill="#E0E0E0"/>
<path d="M59.1043 50.5687C59.1371 50.618 51.4609 55.8159 41.9615 62.1769C32.4585 68.5404 24.7309 73.6577 24.6981 73.6084C24.6653 73.5595 32.3399 68.3624 41.8425 61.9989C51.3422 55.6375 59.0714 50.5194 59.1043 50.5687Z" fill="#E0E0E0"/>
<path d="M62.5 55.6507C62.5329 55.7001 54.8566 60.8975 45.3573 67.2589C35.8542 73.6224 28.1267 78.7397 28.0939 78.6904C28.061 78.6411 35.7356 73.4444 45.2382 67.081C54.7376 60.72 62.4672 55.6018 62.5 55.6507Z" fill="#E0E0E0"/>
<path d="M200.453 65.7156L161.77 91.6221L199.871 148.649L238.555 122.743L200.453 65.7156Z" fill="#EBEBEB"/>
<path d="M218.565 120.052L218.127 122.772L198.896 119.998L199.335 117.278L218.565 120.052Z" fill="#E0E0E0"/>
<path d="M208.881 110.348L211.64 110.746L208.581 129.701L205.821 129.304L208.881 110.348Z" fill="#E0E0E0"/>
<path d="M191.168 86.2546C191.201 86.3039 187.329 88.9544 182.52 92.1746C177.709 95.3956 173.785 97.9664 173.752 97.917C173.719 97.8677 177.591 95.2176 182.401 91.9966C187.209 88.7769 191.135 86.2057 191.168 86.2546Z" fill="#E0E0E0"/>
<path d="M205.394 82.6791C205.427 82.7284 198.985 87.0998 191.007 92.4424C183.026 97.7865 176.532 102.078 176.499 102.028C176.466 101.979 182.907 97.6086 190.888 92.2644C198.866 86.9223 205.361 82.6302 205.394 82.6791Z" fill="#E0E0E0"/>
<path d="M208.246 86.9477C208.279 86.997 201.837 91.3688 193.859 96.7109C185.878 102.055 179.384 106.346 179.351 106.297C179.318 106.248 185.759 101.877 193.74 96.5329C201.717 91.1904 208.213 86.8984 208.246 86.9477Z" fill="#E0E0E0"/>
<path d="M211.097 91.2162C211.13 91.2656 204.688 95.6369 196.71 100.979C188.729 106.324 182.235 110.615 182.202 110.566C182.17 110.517 188.611 106.146 196.591 100.802C204.569 95.4594 211.065 91.1673 211.097 91.2162Z" fill="#E0E0E0"/>
<path d="M213.949 95.4848C213.982 95.5341 207.54 99.9055 199.562 105.248C191.581 110.592 185.087 114.883 185.054 114.834C185.021 114.785 191.462 110.414 199.443 105.07C207.421 99.7279 213.916 95.4355 213.949 95.4848Z" fill="#E0E0E0"/>
<path d="M139.25 22.7066L97.0416 0.106445L63.8027 62.3294L106.011 84.9295L139.25 22.7066Z" fill="#EBEBEB"/>
<path d="M98.7863 65.4663L96.1085 66.3845L89.3112 47.5715L91.9894 46.6533L98.7863 65.4663Z" fill="#E0E0E0"/>
<path d="M102.892 51.9697L103.868 54.6696L85.2056 61.0684L84.2302 58.3685L102.892 51.9697Z" fill="#E0E0E0"/>
<path d="M116.152 24.2124C116.119 24.2745 111.838 22.0465 106.591 19.2373C101.343 16.4269 97.116 14.0994 97.1492 14.0374C97.1825 13.9757 101.463 16.2029 106.711 19.0129C111.958 21.8225 116.185 24.1508 116.152 24.2124Z" fill="#E0E0E0"/>
<path d="M126.281 35.4055C126.247 35.4675 119.162 31.7381 110.458 27.0774C101.75 22.4147 94.7198 18.5863 94.753 18.5242C94.7863 18.4625 101.87 22.1907 110.578 26.8535C119.282 31.5142 126.314 35.3434 126.281 35.4055Z" fill="#E0E0E0"/>
<path d="M123.793 40.0631C123.76 40.1252 116.675 36.3958 107.97 31.7347C99.2621 27.0719 92.232 23.2435 92.2653 23.1814C92.2985 23.1198 99.382 26.8479 108.09 31.5107C116.794 36.1714 123.826 40.0011 123.793 40.0631Z" fill="#E0E0E0"/>
<path d="M121.305 44.7203C121.272 44.7824 114.186 41.053 105.482 36.3919C96.774 31.7296 89.744 27.9007 89.7772 27.8387C89.8101 27.7766 96.8939 31.5052 105.602 36.1679C114.306 40.829 121.338 44.6587 121.305 44.7203Z" fill="#E0E0E0"/>
<path d="M118.817 49.3776C118.784 49.4396 111.699 45.7102 102.994 41.0491C94.2863 36.3868 87.2562 32.5579 87.2894 32.4959C87.3227 32.4342 94.4061 36.1624 103.114 40.8251C111.819 45.4862 118.85 49.3159 118.817 49.3776Z" fill="#E0E0E0"/>
<path fill-rule="evenodd" clip-rule="evenodd" d="M161.772 55.5068H152.489H145.998H94.0672H87.5758H78.2283C73.9243 55.5068 69.7966 57.2086 66.7532 60.2379C63.7098 63.2672 62 67.3757 62 71.6598V132.847C62 137.131 63.7098 141.24 66.7532 144.269C69.7966 147.298 73.9243 149 78.2283 149H161.772C163.903 149 166.013 148.582 167.982 147.77C169.951 146.959 171.74 145.769 173.247 144.269C174.754 142.769 175.949 140.988 176.765 139.029C177.58 137.069 178 134.968 178 132.847V71.6598C178 69.5385 177.58 67.4381 176.765 65.4783C175.949 63.5185 174.754 61.7378 173.247 60.2379C171.74 58.738 169.951 57.5481 167.982 56.7364C166.013 55.9246 163.903 55.5068 161.772 55.5068Z" fill="#D9D9D9"/>
<path d="M145.998 55.5068V49.6918C145.998 47.1213 144.972 44.6562 143.146 42.8387C141.32 41.0211 138.843 40 136.261 40H103.804C101.222 40 98.7451 41.0211 96.919 42.8387C95.093 44.6562 94.0672 47.1213 94.0672 49.6918V55.5068M145.998 55.5068H152.489H161.772C163.903 55.5068 166.013 55.9246 167.982 56.7364C169.951 57.5481 171.74 58.738 173.247 60.2379C174.754 61.7378 175.949 63.5185 176.765 65.4783C177.58 67.4381 178 69.5385 178 71.6598V132.847C178 134.968 177.58 137.069 176.765 139.029C175.949 140.988 174.754 142.769 173.247 144.269C171.74 145.769 169.951 146.959 167.982 147.77C166.013 148.582 163.903 149 161.772 149H78.2283C73.9243 149 69.7966 147.298 66.7532 144.269C63.7098 141.24 62 137.131 62 132.847V71.6598C62 67.3757 63.7098 63.2672 66.7532 60.2379C69.7966 57.2086 73.9243 55.5068 78.2283 55.5068H87.5758H94.0672M145.998 55.5068H94.0672" stroke="#B5B5B5" stroke-width="4"/>
<path d="M136.005 113.39L132.327 117.344L104 91.8316L107.678 87.877L136.005 113.39Z" fill="#B5B5B5"/>
<path d="M130.785 87L134.85 90.6607L109.22 118.221L105.155 114.56L130.785 87Z" fill="#B5B5B5"/>
</svg>
