<svg width="11" height="12" viewBox="0 0 11 12" fill="none" xmlns="http://www.w3.org/2000/svg">
<path d="M0.5 6H1.05556M5.5 1V1.55556M9.94444 6H10.5M1.94444 2.44444L2.33333 2.83333M9.05556 2.44444L8.66667 2.83333M4.22222 8.77778H6.77778M3.83333 8.22222C3.36693 7.87242 3.02241 7.38473 2.84857 6.82824C2.67474 6.27176 2.68041 5.67468 2.86477 5.12159C3.04913 4.5685 3.40284 4.08744 3.8758 3.74655C4.34876 3.40566 4.91699 3.22222 5.5 3.22222C6.08301 3.22222 6.65124 3.40566 7.1242 3.74655C7.59715 4.08744 7.95087 4.5685 8.13523 5.12159C8.31959 5.67468 8.32526 6.27176 8.15143 6.82824C7.97759 7.38473 7.63307 7.87242 7.16667 8.22222C6.94976 8.43693 6.78644 8.69969 6.68993 8.98923C6.59341 9.27878 6.56641 9.58697 6.61111 9.88889C6.61111 10.1836 6.49405 10.4662 6.28567 10.6746C6.0773 10.8829 5.79468 11 5.5 11C5.20531 11 4.9227 10.8829 4.71433 10.6746C4.50595 10.4662 4.38889 10.1836 4.38889 9.88889C4.43359 9.58697 4.40659 9.27878 4.31007 8.98923C4.21356 8.69969 4.05024 8.43693 3.83333 8.22222Z" stroke="black" stroke-linecap="round" stroke-linejoin="round"/>
</svg>
