<svg width="239" height="168" viewBox="0 0 239 168" fill="none" xmlns="http://www.w3.org/2000/svg">
<path d="M46.0617 20.1067L0 50.9541L45.3684 118.858L91.4302 88.0103L46.0617 20.1067Z" fill="#EBEBEB"/>
<path d="M67.6292 84.7965L67.1062 88.0356L44.2084 84.7332L44.731 81.4941L67.6292 84.7965Z" fill="#E0E0E0"/>
<path d="M56.0974 73.2422L59.3831 73.7165L55.7402 96.2872L52.454 95.8137L56.0974 73.2422Z" fill="#E0E0E0"/>
<path d="M35.0063 44.5543C35.0391 44.6036 30.4229 47.7523 24.6974 51.5864C18.9699 55.4219 14.3015 58.4904 14.2687 58.441C14.2358 58.3921 18.8508 55.2439 24.5788 51.4085C30.3042 47.5743 34.9735 44.5054 35.0063 44.5543Z" fill="#E0E0E0"/>
<path d="M51.9458 40.2972C51.9787 40.3465 44.3024 45.5444 34.8031 51.9054C25.3 58.2689 17.5725 63.3862 17.5397 63.3369C17.5068 63.288 25.1814 58.0909 34.684 51.7275C44.1834 45.3665 51.913 40.2483 51.9458 40.2972Z" fill="#E0E0E0"/>
<path d="M55.3412 45.3793C55.3741 45.4286 47.6978 50.6264 38.1985 56.9874C28.6954 63.3509 20.9679 68.4682 20.935 68.4189C20.9022 68.3696 28.5768 63.1729 38.0794 56.8095C47.5792 50.4485 55.3084 45.3303 55.3412 45.3793Z" fill="#E0E0E0"/>
<path d="M58.7366 50.4623C58.7694 50.5116 51.0932 55.7095 41.5939 62.0705C32.0908 68.4339 24.3633 73.5512 24.3304 73.5019C24.2976 73.453 31.9722 68.256 41.4748 61.8925C50.9746 55.5311 58.7038 50.4129 58.7366 50.4623Z" fill="#E0E0E0"/>
<path d="M62.1324 55.5453C62.1653 55.5946 54.489 60.7921 44.9897 67.1535C35.4866 73.5169 27.7591 78.6342 27.7262 78.5849C27.6934 78.5356 35.368 73.339 44.8706 66.9755C54.37 60.6145 62.0996 55.4964 62.1324 55.5453Z" fill="#E0E0E0"/>
<path d="M200.086 65.6092L161.402 91.5156L199.504 148.543L238.187 122.637L200.086 65.6092Z" fill="#EBEBEB"/>
<path d="M218.198 119.946L217.759 122.666L198.528 119.892L198.968 117.172L218.198 119.946Z" fill="#E0E0E0"/>
<path d="M208.513 110.241L211.273 110.639L208.213 129.595L205.454 129.197L208.513 110.241Z" fill="#E0E0E0"/>
<path d="M190.8 86.1481C190.833 86.1975 186.961 88.848 182.152 92.0681C177.342 95.2891 173.417 97.8599 173.384 97.8106C173.351 97.7613 177.223 95.1112 182.033 91.8902C186.842 88.6704 190.768 86.0992 190.8 86.1481Z" fill="#E0E0E0"/>
<path d="M205.026 82.5727C205.059 82.622 198.617 86.9934 190.639 92.3359C182.658 97.6801 176.164 101.971 176.131 101.922C176.099 101.873 182.54 97.5021 190.52 92.158C198.498 86.8158 204.994 82.5238 205.026 82.5727Z" fill="#E0E0E0"/>
<path d="M207.878 86.8412C207.911 86.8906 201.469 91.2623 193.491 96.6045C185.51 101.949 179.016 106.24 178.983 106.191C178.95 106.141 185.391 101.771 193.372 96.4265C201.35 91.084 207.845 86.7919 207.878 86.8412Z" fill="#E0E0E0"/>
<path d="M210.73 91.1098C210.763 91.1591 204.32 95.5305 196.342 100.873C188.362 106.217 181.868 110.508 181.835 110.459C181.802 110.41 188.243 106.039 196.224 100.695C204.201 95.3529 210.697 91.0609 210.73 91.1098Z" fill="#E0E0E0"/>
<path d="M213.582 95.3784C213.614 95.4277 207.172 99.799 199.194 105.142C191.213 110.486 184.719 114.777 184.687 114.728C184.654 114.679 191.095 110.308 199.076 104.964C207.053 99.6215 213.549 95.329 213.582 95.3784Z" fill="#E0E0E0"/>
<path d="M138.882 22.6001L96.674 0L63.4351 62.223L105.644 84.8231L138.882 22.6001Z" fill="#EBEBEB"/>
<path d="M98.4187 65.3598L95.7409 66.278L88.9436 47.465L91.6218 46.5469L98.4187 65.3598Z" fill="#E0E0E0"/>
<path d="M102.524 51.8633L103.5 54.5631L84.8381 60.9619L83.8627 58.2621L102.524 51.8633Z" fill="#E0E0E0"/>
<path d="M115.784 24.106C115.751 24.168 111.47 21.94 106.223 19.1309C100.975 16.3205 96.7483 13.993 96.7816 13.9309C96.8148 13.8693 101.095 16.0965 106.343 18.9065C111.59 21.716 115.818 24.0443 115.784 24.106Z" fill="#E0E0E0"/>
<path d="M125.913 35.299C125.88 35.3611 118.795 31.6317 110.09 26.971C101.382 22.3082 94.3522 18.4798 94.3854 18.4177C94.4187 18.3561 101.502 22.0842 110.21 26.747C118.915 31.4077 125.946 35.237 125.913 35.299Z" fill="#E0E0E0"/>
<path d="M123.425 39.9567C123.392 40.0187 116.307 36.2893 107.602 31.6282C98.8945 26.9655 91.8644 23.137 91.8977 23.075C91.931 23.0133 99.0144 26.7415 107.722 31.4042C116.427 36.0649 123.458 39.8946 123.425 39.9567Z" fill="#E0E0E0"/>
<path d="M120.937 44.6139C120.904 44.676 113.819 40.9466 105.114 36.2855C96.4064 31.6231 89.3763 27.7943 89.4095 27.7322C89.4424 27.6701 96.5262 31.3987 105.234 36.0615C113.939 40.7226 120.97 44.5522 120.937 44.6139Z" fill="#E0E0E0"/>
<path d="M118.449 49.2711C118.416 49.3332 111.332 45.6038 102.627 40.9427C93.9186 36.2803 86.8886 32.4515 86.9218 32.3894C86.9551 32.3278 94.0385 36.0559 102.746 40.7187C111.451 45.3798 118.482 49.2095 118.449 49.2711Z" fill="#E0E0E0"/>
<path opacity="0.5" d="M82.9522 130.932C63.3414 111.321 63.3414 79.53 82.9469 59.925C102.558 40.3141 134.349 40.3141 153.959 59.925C173.564 79.53 173.564 111.321 153.954 130.932C134.349 150.537 102.557 150.537 82.9522 130.932Z" fill="#D9D9D9"/>
<path d="M132.062 104.297L129.033 107.648L105.702 86.0272L108.732 82.6758L132.062 104.297Z" fill="#B5B5B5"/>
<path d="M127.95 81.9824L131.369 85.0732L109.814 108.342L106.396 105.251L127.95 81.9824Z" fill="#B5B5B5"/>
<path d="M190.852 158.738C190.647 157.743 190.247 156.945 189.708 156.285C188.549 155.046 187.312 153.885 186.095 152.705C184.868 151.533 183.631 150.373 182.366 149.24C181.117 148.092 179.832 146.979 178.548 145.866C175.959 143.658 173.309 141.514 170.56 139.467C169.306 138.538 168.036 137.624 166.74 136.737C167.342 135.093 166.989 133.178 165.669 131.859L163.782 129.972C163.443 129.633 163.065 129.357 162.662 129.146C179.507 107.155 177.876 75.5479 157.755 55.4277C135.852 33.5241 100.329 33.5241 78.4254 55.4277C56.5218 77.3313 56.5267 112.849 78.4303 134.753C98.5523 154.875 130.159 156.509 152.149 139.66C152.361 140.062 152.636 140.44 152.975 140.779L154.862 142.667C156.181 143.986 158.096 144.339 159.74 143.737C160.627 145.033 161.541 146.303 162.47 147.558C164.517 150.306 166.662 152.957 168.869 155.545C169.982 156.829 171.095 158.114 172.243 159.363C173.376 160.628 174.536 161.866 175.708 163.092C176.888 164.31 178.049 165.546 179.288 166.705C179.948 167.244 180.746 167.645 181.741 167.849C182.746 168.042 183.895 168.093 185.479 167.707C187.975 167.094 190.06 165.145 190.71 162.476C191.095 160.892 191.045 159.744 190.852 158.738ZM81.1248 132.058C60.7054 111.639 60.7054 78.5363 81.119 58.1222C101.539 37.7028 134.641 37.7028 155.061 58.1222C175.475 78.5363 175.475 111.639 155.055 132.058C134.641 152.472 101.538 152.472 81.1248 132.058Z" fill="#A0A0A0"/>
<path opacity="0.2" d="M190.852 158.738C190.647 157.743 190.247 156.945 189.708 156.285C188.549 155.046 187.312 153.885 186.095 152.705C184.868 151.533 183.631 150.373 182.366 149.24C181.117 148.092 179.832 146.979 178.548 145.866C175.959 143.658 173.309 141.514 170.56 139.467C169.306 138.538 168.036 137.624 166.74 136.737C167.342 135.093 166.989 133.178 165.669 131.859L163.782 129.972C163.443 129.633 163.065 129.357 162.662 129.146C179.507 107.155 177.876 75.5479 157.755 55.4277C135.852 33.5241 100.329 33.5241 78.4254 55.4277C56.5218 77.3313 56.5267 112.849 78.4303 134.753C98.5523 154.875 130.159 156.509 152.149 139.66C152.361 140.062 152.636 140.44 152.975 140.779L154.862 142.667C156.181 143.986 158.096 144.339 159.74 143.737C160.627 145.033 161.541 146.303 162.47 147.558C164.517 150.306 166.662 152.957 168.869 155.545C169.982 156.829 171.095 158.114 172.243 159.363C173.376 160.628 174.536 161.866 175.708 163.092C176.888 164.31 178.049 165.546 179.288 166.705C179.948 167.244 180.746 167.645 181.741 167.849C182.746 168.042 183.895 168.093 185.479 167.707C187.975 167.094 190.06 165.145 190.71 162.476C191.095 160.892 191.045 159.744 190.852 158.738ZM81.1248 132.058C60.7054 111.639 60.7054 78.5363 81.119 58.1222C101.539 37.7028 134.641 37.7028 155.061 58.1222C175.475 78.5363 175.475 111.639 155.055 132.058C134.641 152.472 101.538 152.472 81.1248 132.058Z" fill="#808080"/>
<path opacity="0.3" d="M159.74 143.737L166.74 136.736C166.74 136.736 164.88 142.067 159.74 143.737Z" fill="#808080"/>
<path d="M170.508 72.0174C169.839 70.4898 169.096 68.9774 168.299 67.5215L168.719 67.2921C169.522 68.7601 170.271 70.2855 170.945 71.8256L170.508 72.0174ZM166.358 64.2388C164.139 60.7594 161.529 57.5102 158.601 54.5814L158.939 54.2432C161.892 57.1962 164.524 60.4727 166.761 63.9816L166.358 64.2388Z" fill="#A0A0A0"/>
<path opacity="0.2" d="M170.508 72.0174C169.839 70.4898 169.096 68.9774 168.299 67.5215L168.719 67.2921C169.522 68.7601 170.271 70.2855 170.945 71.8256L170.508 72.0174ZM166.358 64.2388C164.139 60.7594 161.529 57.5102 158.601 54.5814L158.939 54.2432C161.892 57.1962 164.524 60.4727 166.761 63.9816L166.358 64.2388Z" fill="#808080"/>
</svg>
