<svg width="101" height="100" viewBox="0 0 101 100" fill="none" xmlns="http://www.w3.org/2000/svg">
<path d="M17.5293 87.5892C16.2229 86.4418 14.9766 85.2277 13.7955 83.9524C13.3005 83.4177 12.8171 82.8723 12.3458 82.3161C4.95624 73.6014 0.5 62.3211 0.5 50C0.5 22.386 22.886 0 50.5 0C78.114 0 100.5 22.386 100.5 50C100.5 62.3213 96.0436 73.6014 88.6541 82.3161C88.1828 82.8723 87.6992 83.4177 87.2044 83.9524C86.0233 85.2277 84.777 86.4418 83.4706 87.5892H17.5293Z" fill="#DCDCE0"/>
<path d="M83.4704 87.5892C74.6689 95.3154 63.1308 100 50.4999 100C37.869 100 26.3308 95.3155 17.5293 87.5892C24.933 75.837 36.9424 68.1956 50.4999 68.1956C64.0574 68.1956 76.0668 75.8371 83.4704 87.5892Z" fill="#AAAAB2"/>
<path d="M50.5001 59.839C61.6532 59.839 70.6946 50.7976 70.6946 39.6445C70.6946 28.4914 61.6532 19.45 50.5001 19.45C39.347 19.45 30.3057 28.4914 30.3057 39.6445C30.3057 50.7976 39.347 59.839 50.5001 59.839Z" fill="#AAAAB2"/>
</svg>
