<svg width="239" height="152" viewBox="0 0 239 152" fill="none" xmlns="http://www.w3.org/2000/svg">
<g clip-path="url(#clip0_12182_91994)">
<path d="M46.4295 20.2142L0.367737 51.0615L45.7362 118.965L91.7979 88.1177L46.4295 20.2142Z" fill="#EBEBEB"/>
<path d="M67.9969 84.9029L67.4739 88.142L44.5762 84.8397L45.0988 81.6006L67.9969 84.9029Z" fill="#E0E0E0"/>
<path d="M56.4651 73.3486L59.7509 73.8229L56.108 96.3936L52.8218 95.9202L56.4651 73.3486Z" fill="#E0E0E0"/>
<path d="M35.374 44.6607C35.4069 44.7101 30.7906 47.8587 25.0652 51.6929C19.3376 55.5283 14.6692 58.5968 14.6364 58.5475C14.6036 58.4986 19.2186 55.3503 24.9465 51.5149C30.672 47.6807 35.3412 44.6118 35.374 44.6607Z" fill="#E0E0E0"/>
<path d="M52.3136 40.4037C52.3464 40.453 44.6702 45.6509 35.1708 52.0119C25.6678 58.3753 17.9402 63.4926 17.9074 63.4433C17.8746 63.3944 25.5491 58.1974 35.0518 51.8339C44.5511 45.4729 52.2807 40.3548 52.3136 40.4037Z" fill="#E0E0E0"/>
<path d="M55.709 45.4857C55.7418 45.535 48.0655 50.7329 38.5662 57.0939C29.0632 63.4573 21.3356 68.5747 21.3028 68.5253C21.2699 68.476 28.9445 63.2794 38.4472 56.9159C47.9469 50.5549 55.6761 45.4368 55.709 45.4857Z" fill="#E0E0E0"/>
<path d="M59.1043 50.5687C59.1372 50.618 51.4609 55.8159 41.9616 62.1769C32.4586 68.5404 24.731 73.6577 24.6982 73.6084C24.6653 73.5595 32.3399 68.3624 41.8425 61.9989C51.3423 55.6375 59.0715 50.5194 59.1043 50.5687Z" fill="#E0E0E0"/>
<path d="M62.5002 55.6507C62.533 55.7001 54.8567 60.8975 45.3574 67.2589C35.8544 73.6224 28.1268 78.7397 28.094 78.6904C28.0611 78.6411 35.7357 73.4444 45.2384 67.081C54.7377 60.72 62.4673 55.6018 62.5002 55.6507Z" fill="#E0E0E0"/>
<path d="M200.453 65.7156L161.77 91.6221L199.871 148.649L238.555 122.743L200.453 65.7156Z" fill="#EBEBEB"/>
<path d="M218.566 120.052L218.127 122.772L198.896 119.998L199.335 117.278L218.566 120.052Z" fill="#E0E0E0"/>
<path d="M208.881 110.348L211.641 110.746L208.581 129.701L205.822 129.304L208.881 110.348Z" fill="#E0E0E0"/>
<path d="M191.168 86.2546C191.201 86.3039 187.329 88.9544 182.52 92.1746C177.709 95.3956 173.785 97.9664 173.752 97.917C173.719 97.8677 177.591 95.2176 182.401 91.9966C187.21 88.7769 191.135 86.2057 191.168 86.2546Z" fill="#E0E0E0"/>
<path d="M205.394 82.6791C205.427 82.7284 198.985 87.0998 191.007 92.4424C183.026 97.7865 176.532 102.078 176.499 102.028C176.466 101.979 182.907 97.6086 190.888 92.2644C198.866 86.9223 205.361 82.6302 205.394 82.6791Z" fill="#E0E0E0"/>
<path d="M208.246 86.9477C208.279 86.997 201.837 91.3688 193.859 96.7109C185.878 102.055 179.384 106.346 179.351 106.297C179.318 106.248 185.759 101.877 193.74 96.5329C201.718 91.1904 208.213 86.8984 208.246 86.9477Z" fill="#E0E0E0"/>
<path d="M211.098 91.2162C211.13 91.2656 204.688 95.6369 196.71 100.979C188.729 106.324 182.235 110.615 182.203 110.566C182.17 110.517 188.611 106.146 196.592 100.802C204.569 95.4594 211.065 91.1673 211.098 91.2162Z" fill="#E0E0E0"/>
<path d="M213.949 95.4848C213.982 95.5341 207.54 99.9055 199.562 105.248C191.581 110.592 185.087 114.883 185.054 114.834C185.021 114.785 191.462 110.414 199.443 105.07C207.421 99.7279 213.916 95.4355 213.949 95.4848Z" fill="#E0E0E0"/>
<path d="M139.25 22.7066L97.0417 0.106445L63.8029 62.3294L106.011 84.9295L139.25 22.7066Z" fill="#EBEBEB"/>
<path d="M98.7865 65.4663L96.1087 66.3845L89.3113 47.5715L91.9895 46.6533L98.7865 65.4663Z" fill="#E0E0E0"/>
<path d="M102.892 51.9697L103.868 54.6696L85.2058 61.0684L84.2304 58.3685L102.892 51.9697Z" fill="#E0E0E0"/>
<path d="M116.152 24.2124C116.119 24.2745 111.838 22.0465 106.591 19.2373C101.343 16.4269 97.1161 14.0994 97.1493 14.0374C97.1826 13.9757 101.463 16.2029 106.711 19.0129C111.958 21.8225 116.185 24.1508 116.152 24.2124Z" fill="#E0E0E0"/>
<path d="M126.281 35.4055C126.248 35.4675 119.162 31.7381 110.458 27.0774C101.75 22.4147 94.7199 18.5863 94.7532 18.5242C94.7864 18.4625 101.87 22.1907 110.578 26.8535C119.282 31.5142 126.314 35.3434 126.281 35.4055Z" fill="#E0E0E0"/>
<path d="M123.793 40.0631C123.76 40.1252 116.675 36.3958 107.97 31.7347C99.2623 27.0719 92.2322 23.2435 92.2654 23.1814C92.2987 23.1198 99.3821 26.8479 108.09 31.5107C116.795 36.1714 123.826 40.0011 123.793 40.0631Z" fill="#E0E0E0"/>
<path d="M121.305 44.7203C121.272 44.7824 114.187 41.053 105.482 36.3919C96.7741 31.7296 89.744 27.9007 89.7773 27.8387C89.8101 27.7766 96.894 31.5052 105.602 36.1679C114.306 40.829 121.338 44.6587 121.305 44.7203Z" fill="#E0E0E0"/>
<path d="M118.817 49.3776C118.784 49.4396 111.699 45.7102 102.994 41.0491C94.2864 36.3868 87.2563 32.5579 87.2895 32.4959C87.3228 32.4342 94.4063 36.1624 103.114 40.8251C111.819 45.4862 118.85 49.3159 118.817 49.3776Z" fill="#E0E0E0"/>
<path d="M78.8912 66.3614L64.3749 141.08L62.4746 150.861L159.382 150.383C163.731 150.361 167.586 146.495 168.985 140.751L186.169 70.2087C187.231 65.8481 184.9 61.3127 181.599 61.3164L83.5169 61.4196C81.3514 61.4224 79.4581 63.4454 78.8912 66.3614Z" fill="#9E9E9E"/>
<g opacity="0.5">
<path d="M78.8912 66.3614L64.3749 141.08L62.4746 150.861L159.382 150.383C163.731 150.361 167.586 146.495 168.985 140.751L186.169 70.2087C187.231 65.8481 184.9 61.3127 181.599 61.3164L83.5169 61.4196C81.3514 61.4224 79.4581 63.4454 78.8912 66.3614Z" fill="#CCCCCC"/>
</g>
<path d="M150.087 136.018L139.826 53.2395C139.406 49.8476 136.707 47.3175 133.521 47.3282L111.022 47.4017C109.357 47.4071 107.76 48.116 106.577 49.3749L95.8935 60.7451L33.3202 61.0719C29.4962 61.092 26.5586 64.7141 27.0656 68.7842L36.592 145.293C37.0136 148.68 39.7074 151.206 42.8893 151.2L151.942 150.984C164.088 151.236 165.247 147.645 165.247 147.645C151.328 150.733 150.088 136.027 150.087 136.018Z" fill="#D9D9D9"/>
<g opacity="0.5">
<path d="M103.064 119.451L99.3862 123.406L71.0593 97.8931L74.7375 93.9385L103.064 119.451Z" fill="#9E9E9E"/>
<path d="M97.8447 93.0615L101.91 96.7223L76.279 124.282L72.2141 120.621L97.8447 93.0615Z" fill="#9E9E9E"/>
</g>
</g>
<defs>
<clipPath id="clip0_12182_91994">
<rect width="239" height="152" fill="white"/>
</clipPath>
</defs>
</svg>
